<svg id="Capa_1" enable-background="new 0 0 512.502 512.502" height="512" viewBox="0 0 512.502 512.502" width="512" xmlns="http://www.w3.org/2000/svg"><g><path d="m178.098 71.622c1.464 1.464 3.384 2.197 5.303 2.197s3.839-.732 5.303-2.197l6.244-6.244 6.244 6.244c1.464 1.465 3.384 2.197 5.303 2.197s3.839-.732 5.303-2.197c2.929-2.929 2.929-7.678 0-10.606l-6.244-6.244 6.244-6.244c2.929-2.929 2.929-7.678 0-10.606-2.929-2.929-7.678-2.929-10.606 0l-6.244 6.244-6.244-6.244c-2.929-2.93-7.678-2.929-10.606 0-2.929 2.929-2.929 7.678 0 10.606l6.244 6.244-6.244 6.244c-2.929 2.928-2.929 7.677 0 10.606z"/><path d="m83.958 60.441c4.238 0 7.673-3.435 7.673-7.673s-3.435-7.673-7.673-7.673-7.673 3.436-7.673 7.673 3.435 7.673 7.673 7.673z"/><ellipse cx="272.17" cy="242.959" rx="7.673" ry="7.673" transform="matrix(.099 -.995 .995 .099 3.574 489.863)"/><circle cx="256.127" cy="8.224" r="7.673"/><path d="m238.891 122.649-91.728-31.327c-12.272-4.193-25.597 1.979-30.338 14.053l-49.034 124.978c-13.259 31.916-1.534 72.814 27.554 92.857l-40.289 117.962-22.164-7.57c-33.424-9.226-45.743 36.442-16.189 47.384l86.981 29.715c32.667 9.308 46.239-36.028 16.197-47.385l-22.167-7.571 30.472-89.217c1.338-3.92-.754-8.183-4.673-9.522-3.92-1.339-8.183.754-9.522 4.673l-32.896 96.314c-.853 1.748-.24 7.757 4.674 9.522l29.27 9.997c11.963 4.216 6.306 22.472-6.504 18.994l-86.988-29.717c-11.123-3.715-7.639-22.42 6.494-18.993l29.265 9.995c1.747.853 7.757.24 9.522-4.674l41.775-122.315c2.281 1.026 4.619 1.96 7.02 2.78 39.691 14.919 89.988-10.029 100.992-52.394l37.667-128.866c3.64-12.447-3.121-25.481-15.391-29.673zm-68.485 193.004c-14.63 7.553-33.113 9.649-49.936 3.734-33.101-10.559-52.407-50.229-38.716-83.554l5.653-14.408h131.049l-16.239 55.554c-4.927 16.853-16.224 30.588-31.811 38.674zm69.479-167.54-17.044 58.312h-129.549l37.495-95.569c2.22-3.539 5.26-7.176 11.527-5.339l91.728 31.327c4.659 1.591 7.225 6.541 5.843 11.269z"/><path d="m511.162 369.025c-3.915-11.966-18.31-20.283-31.797-15.606l-22.167 7.571-40.29-117.955c28.145-19.578 41.275-59.381 27.555-92.864l-49.036-124.983c-4.745-12.068-18.069-18.238-30.336-14.048l-91.729 31.338c-12.27 4.191-19.029 17.226-15.39 29.672l37.667 128.855c9.502 33.649 42.587 58.292 78.618 56.622l40.283 117.935-22.171 7.572c-31.844 13.03-14.242 56.736 16.2 47.394l86.982-29.715c13.059-4.462 20.062-18.722 15.611-31.788zm-169.306-133.545c-15.59-8.088-26.891-21.826-31.819-38.683l-20.869-71.399h27.934c4.142 0 7.5-3.358 7.5-7.5s-3.358-7.5-7.5-7.5h-32.32l-12.412-42.457c-1.383-4.728 1.184-9.677 5.842-11.269l91.729-31.338c.987-.337 1.992-.498 2.98-.498 3.678 0 7.125 2.223 8.545 5.834l31.28 79.728h-60.286c-4.142 0-7.5 3.358-7.5 7.5s3.358 7.5 7.5 7.5h66.168l11.873 30.252c13.338 32.25-4.431 72.35-38.719 83.565-15.137 5.454-34.624 4.349-49.926-3.735zm148.845 151.139-86.975 29.713c-11.955 3.726-19.011-13.71-6.505-19.003l29.265-9.995c3.025-1.779 5.714-3.014 4.673-9.522l-41.777-122.31c2.431-.584 4.85-1.271 7.249-2.091 2.401-.82 4.739-1.755 7.021-2.782l41.776 122.307c1.338 3.919 5.603 6.01 9.521 4.673l29.269-9.997c11.819-4.02 18.9 14.033 6.483 19.007z"/><path d="m403.289 189.907v-18.829c0-11.95-9.722-21.671-21.671-21.671h-18.829c-11.95 0-21.671 9.722-21.671 21.671v18.829c0 11.95 9.722 21.671 21.671 21.671h18.829c11.95 0 21.671-9.721 21.671-21.671zm-47.171 0v-18.829c0-3.679 2.993-6.671 6.671-6.671h18.829c3.678 0 6.671 2.993 6.671 6.671v18.829c0 3.679-2.993 6.671-6.671 6.671h-18.829c-3.679 0-6.671-2.992-6.671-6.671z"/><path d="m150.549 239.119h-18.829c-11.95 0-21.671 9.722-21.671 21.671v18.829c0 11.949 9.722 21.671 21.671 21.671h18.829c11.949 0 21.671-9.722 21.671-21.671v-18.829c0-11.949-9.721-21.671-21.671-21.671zm6.671 40.501c0 3.678-2.993 6.671-6.671 6.671h-18.829c-3.679 0-6.671-2.993-6.671-6.671v-18.829c0-3.679 2.993-6.671 6.671-6.671h18.829c3.678 0 6.671 2.993 6.671 6.671z"/></g></svg>