<svg id="Capa_1" enable-background="new 0 0 511.996 511.996" height="512" viewBox="0 0 511.996 511.996" width="512" xmlns="http://www.w3.org/2000/svg"><g><path d="m465.983 262.364h-215.767v-215.767c.103-9.19-8.288-19.218-19.416-18.569-62.146 3.011-120.098 29.504-163.18 74.599-43.225 45.244-67.03 104.637-67.03 167.237 0 64.675 25.185 125.479 70.916 171.21 45.73 45.731 106.534 70.916 171.209 70.916 83.236.608 164.214-44.941 207.211-116.798 2.147-3.542 1.016-8.154-2.527-10.301s-8.154-1.015-10.301 2.527c-8.2 13.531-17.814 26.133-28.588 37.636l-13.865-13.865c32.933-35.38 53.686-82.231 55.528-133.824h15.81c1.393.316 2.963.177 3.587 3.69-1.278 26.378-7.056 52.038-17.172 76.266-1.596 3.822.209 8.214 4.031 9.811 3.823 1.596 8.215-.208 9.811-4.031 10.789-25.839 16.95-53.199 18.313-81.324.592-9.222-7.452-19.467-18.57-19.413zm-176.599 64.775c.144 4.556 1.113 9.348 3.401 14.137 5.487 11.487-6.681 26.627-14.423 34.629-2.88 2.977-2.802 7.725.175 10.605 1.456 1.409 3.336 2.11 5.214 2.11 1.961 0 3.92-.765 5.391-2.285 15.68-16.207 20.252-29.379 20.039-39.398l64.256 64.256c-10.19 9.432-21.396 17.781-33.438 24.857.001-.094.007-.188.007-.282 0-14.425-11.736-26.161-26.161-26.161s-26.161 11.736-26.161 26.161c0 7.573 3.238 14.401 8.397 19.182-14.653 4.23-30.016 6.769-45.867 7.379v-174.358zm13.302 108.628c0-6.154 5.007-11.161 11.161-11.161s11.161 5.007 11.161 11.161-5.007 11.161-11.161 11.161-11.161-5.007-11.161-11.161zm-201.3-13.966c35.812 33.644 84.377 53.778 133.83 55.523v19.546c-55.363-1.784-107.296-23.311-147.704-61.195zm66.917-159.437c-2.51-8.977-7.426-14.461-12.31-17.791-11.584-7.898-10.26-25.365-10.229-25.747.383-4.113-2.632-7.763-6.746-8.161-4.126-.393-7.789 2.621-8.187 6.744-.104 1.079-2.335 26.572 16.711 39.558 2.044 1.393 3.575 3.245 4.705 5.397h-101.995c.538-14.008 2.583-27.637 5.97-40.73 4.688 4.428 11.003 7.152 17.945 7.152 14.425 0 26.161-11.736 26.161-26.161 0-14.378-11.66-26.081-26.02-26.157 7.529-13.523 16.64-26.046 27.08-37.325l123.221 123.221zm-94.136-70.9c6.154 0 11.161 5.007 11.161 11.161s-5.007 11.161-11.161 11.161-11.161-5.007-11.161-11.161c0-1.312.24-2.567.657-3.737.119-.298.241-.595.361-.893 1.765-3.847 5.642-6.531 10.143-6.531zm161.049 60.294-123.222-123.222c32.654-30.225 75.759-49.312 123.221-51.136v174.358zm0 86.006c-3.387-1.605-7.17-2.506-11.161-2.506-14.425 0-26.161 11.736-26.161 26.161s11.736 26.161 26.161 26.161c3.99 0 7.773-.902 11.161-2.506v77.252c-10.667-.419-21.238-1.728-31.606-3.887 1.255-20.515-6.636-30.66-13.904-35.62-11.633-7.932-10.251-25.513-10.23-25.753.38-4.11-2.634-7.759-6.748-8.156-4.126-.395-7.788 2.622-8.186 6.745-.104 1.079-2.333 26.572 16.71 39.557 5.917 4.038 7.557 11.826 7.479 19.501-28.066-8.219-54.655-23.081-76.736-43.519l123.22-123.22v49.79zm0 23.655c0 6.154-5.007 11.161-11.161 11.161s-11.161-5.007-11.161-11.161 5.007-11.161 11.161-11.161 11.161 5.007 11.161 11.161zm-3.694-318.409c1.434.268 2.892.049 3.693 3.587v15.809c-51.592 1.842-98.443 22.595-133.823 55.528l-13.884-13.884c39.307-36.85 89.968-58.421 144.014-61.04zm-154.617 71.65 13.881 13.881c-33.323 35.76-53.858 83.436-55.528 133.823h-19.546c1.792-55.193 23.352-107.302 61.193-147.704zm78.059 162.704c-.169 6.067-1.345 12.187-2.481 16.788-.993 4.021 1.462 8.086 5.483 9.08.604.149 1.208.221 1.804.221 3.369 0 6.432-2.287 7.275-5.704 1.924-7.79 2.818-14.533 2.946-20.384h54.618l-123.21 123.211c-24.934-26.96-41.833-60.584-48.293-96.747-.729-4.078-4.625-6.793-8.702-6.064-4.078.729-6.792 4.625-6.064 8.702 6.999 39.183 25.359 75.594 52.447 104.721l-13.881 13.881c-37.884-40.408-59.41-92.342-61.195-147.704h139.253zm200.913 189.477c-32.103 18.482-68.483 28.8-105.662 30.025v-19.544c51.592-1.842 98.443-22.595 133.824-55.528l13.867 13.867c-12.745 11.937-26.84 22.436-42.029 31.18zm28.167-66.255-79.258-79.258c1.345-7.703 5.541-13.781 5.638-13.919 2.396-3.362 1.625-8.032-1.731-10.443-3.363-2.416-8.05-1.649-10.467 1.714-.271.376-3.124 4.429-5.523 10.564l-31.88-31.88h174.357c-1.825 47.463-20.911 90.568-51.136 123.222z"/><path d="m509.809 119.926c-22.606-50.973-62.527-92.857-112.409-117.937-4.555-2.29-9.913-2.618-14.699-.903-4.83 1.732-8.633 5.27-10.708 9.962l-83.006 187.681c-2.458 5.559-1.336 11.993 2.859 16.392 2.888 3.028 6.807 4.647 10.819 4.647 1.816 0 3.651-.332 5.418-1.015l101.072-39.083c6.982-3.216 5.114-9.823 1.234-16.731-3.336-5.781-4.017-16.659 11.689-35.655 2.639-3.192 2.191-7.92-1.001-10.559-3.193-2.64-7.921-2.191-10.559 1.001-19.899 24.068-19.033 40.681-14.133 50.799l-93.653 36.21 36.477-82.478c4.801 5.541 11.88 9.057 19.77 9.057 14.425 0 26.161-11.736 26.161-26.161s-11.736-26.161-26.161-26.161c-.216 0-.428.011-.643.016l14.872-33.626c39.737 19.335 73.979 53.438 92.13 96.475l-28.279 10.936c-3.863 1.494-5.784 5.837-4.29 9.7s5.837 5.784 9.7 4.29l57.021-22.05c4.729-1.829 8.554-5.566 10.492-10.252 1.956-4.725 1.894-9.894-.173-14.555zm-139.669-14.772c0 6.154-5.007 11.161-11.161 11.161s-11.161-5.007-11.161-11.161 5.007-11.161 11.161-11.161 11.161 5.007 11.161 11.161zm125.983 23.595c-.222.536-.782 1.508-2.042 1.995l-14.729 5.696c-18.806-43.999-53.902-82.788-100.066-104.797l6.425-14.527c.537-1.214 1.517-1.718 2.053-1.91.552-.198 1.664-.437 2.898.184 46.789 23.525 84.233 62.809 105.436 110.617.521 1.177.239 2.223.025 2.742z"/><path d="m106.527 343.613c14.425 0 26.161-11.736 26.161-26.161s-11.736-26.161-26.161-26.161-26.161 11.736-26.161 26.161 11.737 26.161 26.161 26.161zm0-37.321c6.154 0 11.161 5.007 11.161 11.161s-5.007 11.161-11.161 11.161-11.161-5.007-11.161-11.161 5.008-11.161 11.161-11.161z"/><path d="m371.603 345.96c14.425 0 26.161-11.736 26.161-26.161s-11.736-26.161-26.161-26.161-26.161 11.736-26.161 26.161 11.737 26.161 26.161 26.161zm0-37.322c6.154 0 11.161 5.007 11.161 11.161s-5.007 11.161-11.161 11.161-11.161-5.007-11.161-11.161 5.008-11.161 11.161-11.161z"/><path d="m192.733 172.203c14.425 0 26.161-11.736 26.161-26.161s-11.736-26.161-26.161-26.161-26.161 11.736-26.161 26.161 11.737 26.161 26.161 26.161zm0-37.322c6.154 0 11.161 5.007 11.161 11.161s-5.007 11.161-11.161 11.161-11.161-5.007-11.161-11.161 5.008-11.161 11.161-11.161z"/></g></svg>