<svg id="Capa_1" enable-background="new 0 0 511.993 511.993" height="512" viewBox="0 0 511.993 511.993" width="512" xmlns="http://www.w3.org/2000/svg"><g><path d="m434.851 336.68c9.749-5.521 20.994-14.036 29.537-22.652 37.588-37.639 50.683-92.443 34.174-143.053-1.284-3.938-5.519-6.091-9.456-4.805-3.938 1.285-6.089 5.519-4.804 9.456 14.759 45.244 3.038 94.239-30.589 127.865-14.195 14.038-32.659 26.176-55.922 32.424.369-13.949-.393-27.148-1.842-39.347 11.273-4.253 21.846-10.884 30.905-19.942 29.813-29.814 33.594-75.947 11.353-109.907 13.648-7.873 25.634-13.142 35.35-16.655 1.082-.373.447-.199 4.759-1.648 4.413-1.341 6.874-7.307 3.751-11.494-25.004-38.378-70.717-63.242-117.149-62.816-64.38-1.059-124.535 47.284-137.444 111.008-5.348 24.945-3.826 50.265 3.867 73.6-6.574-7.679-20.571-9.68-29.074-1.045l-16.239 16.239c-7.78 7.455-7.658 22.795 2.812 29.723h-.001l29.919 20.331-147.323 147.324c-5.087 5.088-5.087 13.365-.001 18.451l18.449 18.459c2.544 2.532 5.881 3.797 9.217 3.797 3.342 0 6.683-1.271 9.224-3.81l121.929-121.931c2.929-2.929 2.929-7.678 0-10.606-2.93-2.929-7.678-2.929-10.607 0l-120.549 120.55-15.675-15.684 139.315-139.315c.531.727 1.105 1.432 1.76 2.088l11.829 11.829c3.348 3.348 7.798 5.191 12.532 5.191 1.991 0 3.925-.344 5.755-.972l21.365 31.44c5.955 9.009 20.734 11.881 29.723 2.81l16.237-16.239c7.294-7.056 8.083-21.321-1.136-29.166 14.151 4.675 29.037 7.099 44.112 7.098 22.854.167 49.267-6.459 69.937-18.596zm-18.604-70.659c-6.676 6.676-14.347 11.757-22.533 15.283-2.191-12.58-5.003-23.77-7.836-33.202 2.478-1.561 4.805-3.401 6.926-5.523h-.001c12.153-11.854 15.501-32.847 5.841-48.346 9.092-7.276 14.367-11.444 26.776-19.653 18.695 28.176 15.639 66.628-9.173 91.441zm-172.302-85.045c13.49-51.952 65.803-93.175 120.973-91.867 37.655-.089 75.333 17.503 99.148 48.485-10.527 4.063-23.86 10.479-35.257 17.222-22.932-24.907-60.862-34.255-93.064-22.731-3.906 1.377-5.957 5.66-4.58 9.567 1.377 3.906 5.662 5.958 9.566 4.581 26.035-9.176 55.433-2.607 75.083 16.716-5.215 3.482-14.727 9.878-27.272 20.162-21.058-16.743-55.526-4.979-61.84 21.794-11.361-1.277-22.333-3.083-32.775-5.39 2.879-13.596 9.606-26.091 19.665-36.15 2.929-2.929 2.929-7.677 0-10.606-2.93-2.929-7.678-2.929-10.607 0-12.013 12.013-20.083 26.907-23.615 43.118-12.972-3.622-25-8.052-35.872-13.246.144-.554.295-1.105.447-1.655zm138.254 50.996c-.001 0-.001 0 0 0-4.616 4.616-10.753 7.158-17.28 7.158-12.019.206-24.614-10.518-24.438-24.438 0-6.527 2.542-12.665 7.157-17.28 8.354-8.643 24.842-9.967 34.56 0 8.645 8.354 9.967 24.842.001 34.56zm-89.865-17.458c10.711 2.303 21.917 4.116 33.497 5.391 2.362 21.001 24.032 37.917 46.01 33.611 2.718 9.193 5.394 20.078 7.432 32.298-23.025 4.61-47.869-1.981-65.681-19.794-13.128-12.975-21.467-32.315-21.258-51.506zm-95.066 76.712c-1.281-1.38-3.132-2.588-.634-6.709l16.239-16.239c1.147-.824 3.428-2.603 6.814 0l27.376 27.375-17.511 17.511zm49.666 53.281-11.83-11.829c-1.055-1.056-1.059-2.768-.017-3.831l22.586-22.586 15.678 15.678-22.567 22.568c-.856.109-.298 1.634-3.85 0zm64.398 22.231-16.238 16.239c-1.594.999-3.129 2.591-6.709-.634l-21.938-32.285 17.511-17.511 27.376 27.375c.823 1.148 2.603 3.428-.002 6.816zm-35.215-63.246c-27.976-27.975-40.929-66.91-35.626-105.742 11.324 5.153 23.68 9.564 36.931 13.152-1.245 23.767 8.314 48.697 25.562 65.726 17.075 17.075 39.505 25.613 61.935 25.613 5.495 0 10.99-.52 16.407-1.545 1.304 11.891 1.896 24.748 1.347 38.308-39.071 5.557-78.525-7.481-106.556-35.512z"/><path d="m405.058 392.078c-2.929-2.929-7.677-2.929-10.607 0l-6.28 6.28-6.28-6.28c-2.93-2.929-7.678-2.929-10.607 0s-2.929 7.678 0 10.606l6.28 6.28-6.28 6.28c-2.929 2.929-2.929 7.678 0 10.606 1.465 1.465 3.384 2.197 5.304 2.197 1.919 0 3.839-.732 5.304-2.197l6.28-6.28 6.28 6.28c1.465 1.464 3.385 2.197 5.304 2.197s3.839-.732 5.304-2.197c2.929-2.929 2.929-7.678 0-10.606l-6.28-6.28 6.28-6.28c2.927-2.928 2.927-7.677-.002-10.606z"/><path d="m332.981 450.008c-4.251 0-7.697 3.446-7.697 7.697s3.446 7.697 7.697 7.697 7.697-3.446 7.697-7.697-3.446-7.697-7.697-7.697z"/><path d="m468.268 401.268c-4.251 0-7.697 3.446-7.697 7.697s3.446 7.697 7.697 7.697 7.697-3.446 7.697-7.697-3.446-7.697-7.697-7.697z"/><path d="m44.588 359.158c24.271 17.84 58.133 21.534 86.373 8.855 27.783-12.008 46.681-37.066 25.847-60.372-10.717-10.964-30.999-12.027-42.505 0-16.233 16.843-45.78 4.169-47.9-19.614-.098-6.816 1.592-14.352 7.745-20.545l216.17-216.181c5.68-5.673 8.808-13.219 8.809-21.249 0-8.03-3.128-15.577-8.802-21.244-5.673-5.68-13.22-8.808-21.251-8.808-8.029 0-15.578 3.127-21.256 8.805l-216.175 216.174c-26.647 26.087-33.103 69.703-14.969 102.732 6.428 11.863 16.205 22.678 27.914 31.447zm-4.68-24.459c-.521-.853-1.236-.615-7.217-9.365l22.164-22.164c3.188 7.106 7.938 12.756 14.922 18.507l-21.37 21.371c-2.233-1.954-5.31-4.89-8.499-8.349zm2.829-99.6 16.712-16.703 21.282 21.283-16.706 16.713-21.29-21.29zm189.312-189.312v42.571l-23.639 23.638v-42.57zm-38.638 81.213-30.821 30.823v-42.576l30.821-30.821zm-45.822 3.247v42.576l-23.628 23.629v-42.578zm-38.628 81.206-17.621 17.622-21.29-21.29 38.91-38.91v42.578zm20.676 103.605c4.981-2.086 11.858-1.636 16.566 3.193 5.127 5.169 6.325 14.577-.004 21.287h.001c-4.933 4.566-7.983 7.687-16.995 12.615zm-15.431 10.942v32.09c-16.157 4.588-37.545 2.675-53.306-6.323l22.94-22.94c8.46 2.604 20.997 2.09 30.366-2.827zm144.219-306.589c2.844-2.845 6.626-4.411 10.648-4.411 4.021 0 7.799 1.565 10.644 4.414 2.843 2.84 4.409 6.618 4.409 10.638-.001 4.02-1.566 7.797-4.408 10.637-.002.001-.003.002-.004.003l-32.665 32.667v-42.572zm-225.274 227.32 22.07 22.071c-2.406 5.205-3.735 10.9-3.861 16.65l-25.714 25.714c-7.766-21.309-4.998-45.467 7.505-64.435z"/></g></svg>