<svg id="Capa_1" enable-background="new 0 0 512 512" height="512" viewBox="0 0 512 512" width="512" xmlns="http://www.w3.org/2000/svg"><g><path d="m142.297 315.588.63 6.027c.555 5.317 4.03 9.729 9.068 11.516 1.524.54 3.089.804 4.635.804 3.562 0 7.025-1.4 9.662-4.037l18.521-18.521c2.938-2.939 4.375-6.996 3.945-11.13-1.171-10.986-1.897-24.157-6.109-35.136 7.741 3.796 11.65 9.277 21.979 6.11 4.322-1.647 7.641-5.108 9.104-9.496l21.855-65.495c10.036 12.732 31.041 15.195 43.297 2.683l9.577-9.577c5.425-5.424 8.412-12.636 8.412-20.307 0-5.566-1.58-10.886-4.515-15.461 6.985-1.153 13.423-4.435 18.528-9.541l28.532-28.533c6.456-6.455 10.011-15.037 10.011-24.166s-3.555-17.711-10.01-24.166l-4.13-4.13 8.83-8.83c2.93-2.929 2.93-7.677.001-10.606s-7.678-2.93-10.606 0l-8.831 8.83-4.129-4.129c-13.324-13.324-35.006-13.326-48.332 0l-28.532 28.534c-5.108 5.106-8.39 11.547-9.542 18.534-11.109-7.099-26.07-5.805-35.766 3.891l-9.578 9.577c-12.099 11.846-10.565 32.361 2.684 43.299l-65.495 21.855c-4.388 1.464-7.849 4.782-9.495 9.104-1.647 4.322-1.272 9.102 1.027 13.114l5.082 8.866c-9.051-3.811-25.242-5.137-35.132-6.108-4.134-.428-8.193 1.006-11.135 3.947l-18.521 18.519c-3.779 3.78-5.019 9.258-3.232 14.296 1.787 5.039 6.199 8.514 11.517 9.069 39.766 1.004 74.263 43.293 76.193 70.794zm61.05-151.6 20.386 20.385-15.646 46.888c-22.689-10.827-40.819-29.247-51.627-51.627zm50.952-76.55 28.532-28.533c3.739-3.739 8.648-5.607 13.56-5.607 4.91 0 9.821 1.87 13.559 5.607l18.866 18.865c3.621 3.622 5.616 8.438 5.616 13.56s-1.995 9.937-5.617 13.559l-28.533 28.533c-3.621 3.622-8.437 5.616-13.559 5.616s-9.938-1.995-13.559-5.616l-18.866-18.866c-3.621-3.622-5.616-8.437-5.616-13.559s1.995-9.937 5.617-13.559zm-35.607 18.413c3.513 0 7.026 1.338 9.7 4.012l49.465 49.465h.001c2.591 2.591 4.018 6.037 4.018 9.701 0 3.419-1.256 6.639-3.528 9.161l-13.846-13.847c-2.929-2.929-7.677-2.93-10.607 0-2.929 2.929-2.929 7.677 0 10.606l13.846 13.846c-4.482 4.084-12.897 5.112-18.861-.49l-49.466-49.465c-5.175-5.175-5.327-13.482-.489-18.861l13.641 13.641c1.465 1.465 3.384 2.197 5.304 2.197 1.919 0 3.839-.732 5.304-2.197 2.929-2.929 2.929-7.678 0-10.606l-13.641-13.641c2.598-2.338 5.873-3.522 9.159-3.522zm-88.176 82.581c.062-.162.169-.198.227-.217l11.203-3.738c17.045 33.793 36.352 48.224 61.298 61.298l-3.738 11.203c-41.551-18.923-54.048-39.783-68.99-68.546zm-56.827 42.071-3.376-.353 16.207-16.207 15.477 1.615c14.692 1.533 28.535 8.13 38.979 18.575l12.61 12.611c10.445 10.445 17.042 24.289 18.575 38.98l1.615 15.476-16.208 16.208c-2.631-45.323-50.602-84.65-83.879-86.905z"/><path d="m92.593 284.519-90.396 90.397c-2.929 2.929-2.929 7.678 0 10.606 1.465 1.464 3.385 2.197 5.304 2.197s3.839-.732 5.304-2.197l90.396-90.397c2.929-2.929 2.929-7.678 0-10.606-2.93-2.928-7.678-2.928-10.608 0z"/><path d="m458.614 186.354 8.83-8.83c2.93-2.929 2.93-7.677.001-10.606s-7.678-2.93-10.606 0l-8.831 8.83-4.129-4.13c-6.455-6.455-15.037-10.01-24.166-10.01s-17.711 3.555-24.166 10.01l-28.532 28.533c-5.106 5.105-8.388 11.543-9.542 18.528-4.575-2.935-9.895-4.515-15.46-4.515-7.671 0-14.883 2.987-20.308 8.412l-9.577 9.577c-12.099 11.845-10.565 32.361 2.684 43.298l-65.495 21.855c-4.389 1.464-7.85 4.782-9.496 9.104-1.647 4.322-1.272 9.102 1.027 13.114l5.082 8.865c-9.051-3.812-25.243-5.137-35.133-6.108-4.147-.434-8.193 1.007-11.135 3.947l-18.518 18.519c-3.78 3.78-5.02 9.258-3.233 14.296 1.786 5.039 6.199 8.514 11.517 9.069 16.547.708 34.154 7.631 46.008 20.206l-109.918 109.92c-2.929 2.929-2.929 7.678 0 10.606 1.465 1.464 3.385 2.197 5.304 2.197s3.839-.732 5.304-2.197l109.917-109.917c12.154 11.245 19.457 29.054 20.205 46.007.555 5.317 4.029 9.73 9.068 11.517 1.524.541 3.09.804 4.636.804 3.562 0 7.025-1.4 9.662-4.037l18.519-18.519c2.94-2.941 4.379-7 3.946-11.135-1.172-10.995-1.895-24.148-6.107-35.132l8.866 5.083c6.557 4.305 19.18 1.335 22.218-8.468l13.794-41.34c1.312-3.929-.812-8.177-4.74-9.488-3.932-1.313-8.178.811-9.488 4.74l-5.213 15.624c-22.689-10.828-40.818-29.248-51.627-51.628l46.888-15.646 34.925 34.925c10.675 10.778 29.05 11.329 40.615 0l9.577-9.577c9.696-9.698 10.989-24.658 3.891-35.767 6.986-1.152 13.427-4.435 18.534-9.542l28.533-28.534c13.324-13.325 13.324-35.006 0-48.331zm-177.724 254.374c-1.138-18.45-9.713-38.045-23.238-51.406-16.497-18.721-38.188-34.779-64.018-35.851l16.206-16.207 15.477 1.615c14.691 1.533 28.534 8.13 38.979 18.575l12.612 12.611c10.444 10.444 17.04 24.287 18.573 38.979l1.615 15.476zm-8.058-119.731c11.349 21.143 32.412 37.185 53.732 48.098l-3.738 11.203c-46.779-22.019-53.526-41.436-68.965-68.233-.56-.973 10.507-3.638 11.405-4.268zm99.368-9.369-49.466-49.466c-5.175-5.175-5.328-13.482-.489-18.861l13.641 13.64c1.464 1.465 3.384 2.197 5.303 2.197s3.839-.732 5.304-2.197c2.929-2.929 2.929-7.678-.001-10.606l-13.642-13.641c4.482-4.084 12.898-5.112 18.861.489l49.466 49.465c5.175 5.175 5.327 13.482.489 18.861l-13.846-13.845c-2.928-2.93-7.677-2.929-10.606 0s-2.929 7.678.001 10.606l13.846 13.845c-5.378 4.84-13.686 4.688-18.861-.487zm79.936-83.419-28.532 28.534c-3.622 3.622-8.438 5.616-13.56 5.616s-9.938-1.995-13.559-5.616l-18.873-18.872c-3.617-3.621-5.61-8.434-5.61-13.553 0-5.122 1.995-9.937 5.617-13.559l28.533-28.533c3.621-3.622 8.437-5.616 13.559-5.616s9.938 1.995 13.559 5.616l18.865 18.865c7.478 7.476 7.478 19.641.001 27.118z"/><path d="m504.5.959h-111.577c-12.06 0-21.87 9.811-21.87 21.871s9.811 21.871 21.87 21.871h19.834c3.788 0 6.87 3.082 6.87 6.871v8.791c0 3.788-3.082 6.87-6.87 6.87h-4.084c-12.06 0-21.87 9.811-21.87 21.871v33.738c0 4.142 3.357 7.5 7.5 7.5s7.5-3.358 7.5-7.5v-33.739c0-3.789 3.082-6.871 6.87-6.871h4.084c12.06 0 21.87-9.811 21.87-21.87v-8.791c0-12.06-9.811-21.871-21.87-21.871h-19.834c-3.788 0-6.87-3.082-6.87-6.871s3.082-6.871 6.87-6.871h111.577c4.143 0 7.5-3.358 7.5-7.5s-3.357-7.499-7.5-7.499z"/><path d="m425.072 152.203c4.143 0 7.5-3.358 7.5-7.5v-17.765c0-3.354 2.729-6.082 6.082-6.082h12.031c11.625 0 21.082-9.458 21.082-21.082v-26.217c0-4.142-3.357-7.5-7.5-7.5s-7.5 3.358-7.5 7.5v26.217c0 3.354-2.729 6.082-6.082 6.082h-12.031c-11.625 0-21.082 9.458-21.082 21.082v17.765c0 4.143 3.357 7.5 7.5 7.5z"/></g></svg>