<svg id="Capa_1" enable-background="new 0 0 511.842 511.842" height="512" viewBox="0 0 511.842 511.842" width="512" xmlns="http://www.w3.org/2000/svg"><g><path d="m144.399 105.4c0 3.381 1.317 6.56 3.708 8.95l33.172 33.172-2.047 5.192c-6.054 15.354-2.425 32.815 9.245 44.485l27.194 27.194c2.467 2.467 5.708 3.701 8.949 3.701s6.482-1.234 8.95-3.701l13.948-13.948c4.934-4.935 4.934-12.964 0-17.899l-33.173-33.173 2.047-5.192c6.055-15.354 2.426-32.815-9.244-44.485l-27.194-27.194c-2.39-2.391-5.569-3.708-8.95-3.708-3.38 0-6.559 1.317-8.949 3.708l-13.947 13.947c-2.392 2.392-3.709 5.571-3.709 8.951zm80.221 106.73-25.538-25.537c-7.221-7.222-9.616-17.919-6.227-27.494l42.398 42.397zm-53.617-117.362 25.537 25.537c7.222 7.221 9.616 17.918 6.227 27.493l-42.397-42.397z"/><path d="m370.9 107.83-50.647 50.646c-4.934 4.935-4.934 12.964 0 17.898l13.948 13.948c2.468 2.467 5.708 3.7 8.949 3.7s6.482-1.233 8.949-3.701l44.668-44.668c11.67-11.67 15.299-29.131 9.244-44.484l-2.047-5.192 33.173-33.173c4.935-4.935 4.935-12.964 0-17.899l-13.947-13.947c-4.935-4.934-12.964-4.934-17.898 0l-27.194 27.194c-11.67 11.67-15.299 29.131-9.245 44.485zm15.261 27.218-43.011 43.011-10.633-10.633 59.871-59.871c3.389 9.574.995 20.271-6.227 27.493zm2.542-66.289 25.537-25.537 10.633 10.633-42.397 42.397c-3.388-9.574-.994-20.271 6.227-27.493z"/><path d="m233.638 277.114c-2.928-2.929-7.677-2.929-10.606 0l-17.813 17.813c-2.929 2.929-2.929 7.677 0 10.606 1.464 1.465 3.384 2.197 5.303 2.197s3.839-.732 5.303-2.197l17.813-17.813c2.93-2.928 2.93-7.677 0-10.606z"/><path d="m182.844 262.61c-4.106-.587-7.9 2.264-8.485 6.364l-2.544 17.813c-.585 4.101 2.264 7.899 6.364 8.485.36.051.717.076 1.07.076 3.672 0 6.881-2.7 7.416-6.44l2.544-17.813c.585-4.1-2.264-7.899-6.365-8.485z"/><path d="m289.018 277.114c-2.929 2.929-2.929 7.678 0 10.606l17.813 17.813c1.464 1.464 3.384 2.197 5.303 2.197s3.839-.732 5.303-2.197c2.929-2.929 2.929-7.678 0-10.606l-17.813-17.813c-2.928-2.93-7.677-2.929-10.606 0z"/><path d="m339.813 262.61c-4.101.586-6.95 4.385-6.364 8.485l2.544 17.813c.535 3.741 3.743 6.44 7.416 6.44.353 0 .71-.025 1.07-.076 4.101-.586 6.95-4.385 6.364-8.485l-2.544-17.813c-.587-4.1-4.384-6.952-8.486-6.364z"/><path d="m183.137 314.779c-8.23-8.874-25.775-10.068-35.376 0l-131.282 131.273c-9.744 9.758-9.743 25.626.004 35.373l23.244 23.245c8.831 9.189 26.171 10.083 35.859-.481l.294-.294 130.493-130.493c9.008-8.662 10.108-25.59.001-35.376zm15.566 40.93c0 2.675-1.043 5.191-2.937 7.085l-19.886 19.886v-53.944l19.89 19.898c1.891 1.889 2.933 4.402 2.933 7.075zm-40.336-30.323c.744-.744 1.595-1.351 2.513-1.819v74.114l-33.336 33.337v-74.81zm-45.823 45.821v74.81l-34.761 34.761v-74.813zm-62.21 122.856-23.245-23.245c-3.902-3.902-3.9-10.257 0-14.164l35.693-35.691v74.471c-2.047 1.519-8.178 2.684-12.448-1.371z"/><path d="m368.119 314.779c-8.899-9.101-25.44-9.99-35.378.001l-23.229 23.24c-9.113 9.045-10.211 24.785-.004 35.381l130.787 130.787c8.588 9.422 25.884 10.786 35.858.481l23.246-23.245c9.746-9.747 9.747-25.614 0-35.376zm69.979 165.999-34.761-34.761v-74.81l34.761 34.758zm-49.761-124.571v74.809l-33.337-33.336v-74.114c.917.469 1.769 1.075 2.513 1.819zm-68.221-7.577 19.884-19.894v53.944l-19.886-19.886c-2.836-2.986-4.57-9.009.002-14.164zm168.676 122.188-23.246 23.245c-3.142 2.121-5.856 4.584-12.448 1.371v-74.47l35.69 35.687c3.904 3.91 3.906 10.266.004 14.167z"/><path d="m133.317 229.885 11.965-11.965c3.545-3.545 5.498-8.259 5.498-13.273s-1.953-9.728-5.498-13.273l-11.965-11.966c-7.319-7.317-19.227-7.318-26.546 0l-11.965 11.965c-3.545 3.545-5.498 8.259-5.498 13.273s1.953 9.728 5.498 13.273l11.965 11.966c3.66 3.659 8.466 5.488 13.273 5.488 4.807.001 9.614-1.829 13.273-5.488zm-27.905-22.573c-.961-.96-1.104-2.083-1.104-2.666s.144-1.706 1.104-2.667l11.965-11.965c1.47-1.47 3.862-1.471 5.333 0l11.965 11.965c.961.961 1.104 2.083 1.104 2.667s-.144 1.706-1.104 2.667l-11.965 11.965c-1.469 1.47-3.863 1.471-5.333 0z"/><path d="m233.734 55.975c3.545 3.545 8.259 5.498 13.273 5.498s9.728-1.953 13.273-5.498l11.966-11.965c7.318-7.319 7.318-19.228 0-26.546l-11.965-11.966c-3.545-3.545-8.259-5.498-13.273-5.498s-9.728 1.953-13.273 5.498l-11.965 11.965c-7.319 7.319-7.319 19.228 0 26.546zm-1.359-27.905 11.965-11.965c.961-.961 2.083-1.104 2.667-1.104s1.705.144 2.667 1.104l11.965 11.965c1.471 1.47 1.471 3.863 0 5.333l-11.966 11.965c-.961.961-2.083 1.104-2.666 1.104s-1.706-.144-2.667-1.104l-11.965-11.965c-1.47-1.47-1.47-3.862 0-5.333z"/><path d="m107.618 126.535c1.464 1.464 3.384 2.197 5.303 2.197s3.839-.732 5.303-2.197c2.929-2.929 2.929-7.678 0-10.606l-66.318-66.319c-2.929-2.929-7.678-2.929-10.606 0-2.929 2.929-2.929 7.678 0 10.606z"/><path d="m21.802 37.613c1.919 0 3.839-.732 5.303-2.197 2.929-2.929 2.929-7.678 0-10.606l-12.065-12.066c-2.929-2.929-7.678-2.929-10.606 0-2.929 2.929-2.929 7.678 0 10.606l12.065 12.065c1.464 1.465 3.384 2.198 5.303 2.198z"/><path d="m416.041 183.103c-2.929-2.929-7.678-2.929-10.606 0l-14.959 14.959c-2.929 2.929-2.929 7.678 0 10.606 1.464 1.464 3.384 2.197 5.303 2.197s3.839-.732 5.303-2.197l14.959-14.959c2.929-2.929 2.929-7.678 0-10.606z"/><path d="m507.409 91.734c-2.929-2.929-7.678-2.929-10.606 0l-67.156 67.156c-2.929 2.929-2.929 7.678 0 10.606 1.464 1.464 3.384 2.197 5.303 2.197s3.839-.732 5.303-2.197l67.156-67.156c2.929-2.928 2.929-7.677 0-10.606z"/><path d="m274.443 94.153c0-4.142-3.358-7.5-7.5-7.5s-7.5 3.358-7.5 7.5v36.425c0 4.142 3.358 7.5 7.5 7.5s7.5-3.358 7.5-7.5z"/><path d="m39.12 145.698c0 4.247 3.443 7.689 7.689 7.689s7.689-3.443 7.689-7.689c0-4.247-3.443-7.689-7.689-7.689s-7.689 3.442-7.689 7.689z"/><path d="m257.94 366.456c-4.247 0-7.689 3.443-7.689 7.689 0 4.247 3.443 7.689 7.689 7.689 4.247 0 7.689-3.443 7.689-7.689.001-4.247-3.442-7.689-7.689-7.689z"/><path d="m324.047 99.649c4.247 0 7.689-3.443 7.689-7.689 0-4.247-3.443-7.689-7.689-7.689s-7.689 3.443-7.689 7.689c-.001 4.246 3.442 7.689 7.689 7.689z"/><path d="m103.742 276.647c0 4.247 3.443 7.689 7.689 7.689s7.689-3.443 7.689-7.689c0-4.247-3.443-7.689-7.689-7.689s-7.689 3.442-7.689 7.689z"/><circle cx="493.474" cy="16.597" r="7.689"/><path d="m122.733 41.162c1.464 1.465 3.384 2.197 5.303 2.197s3.839-.732 5.303-2.197l6.269-6.269 6.269 6.269c1.464 1.464 3.384 2.197 5.303 2.197s3.839-.732 5.303-2.197c2.929-2.929 2.929-7.678 0-10.606l-6.269-6.269 6.269-6.269c2.929-2.929 2.929-7.678 0-10.606-2.929-2.93-7.678-2.929-10.606 0l-6.269 6.269-6.269-6.269c-2.929-2.929-7.678-2.929-10.606 0-2.929 2.929-2.929 7.678 0 10.606l6.269 6.269-6.269 6.269c-2.93 2.928-2.93 7.677 0 10.606z"/><path d="m289.553 326.766-25.86-15.628c-2.252-1.361-5.052-1.443-7.381-.213l-29.605 15.628c-3.663 1.934-5.065 6.471-3.131 10.134 1.344 2.546 3.946 4 6.639 4 1.181 0 2.378-.279 3.495-.869l25.854-13.648 22.23 13.435c3.545 2.141 8.156 1.004 10.298-2.54 2.142-3.546 1.005-8.156-2.539-10.299z"/><path d="m274.447 214.332 6.269 6.269-6.269 6.269c-2.929 2.929-2.929 7.678 0 10.606 1.464 1.464 3.384 2.197 5.303 2.197s3.839-.732 5.303-2.197l6.269-6.269 6.269 6.269c1.464 1.465 3.384 2.197 5.303 2.197s3.839-.732 5.303-2.197c2.929-2.929 2.929-7.678 0-10.606l-6.269-6.269 6.269-6.269c2.929-2.929 2.929-7.678 0-10.606-2.929-2.929-7.678-2.929-10.606 0l-6.269 6.269-6.269-6.269c-2.929-2.93-7.678-2.929-10.606 0-2.93 2.928-2.93 7.677 0 10.606z"/><path d="m437.593 242.286c-2.929-2.929-7.678-2.929-10.606 0l-6.269 6.269-6.269-6.269c-2.929-2.93-7.678-2.929-10.606 0-2.929 2.929-2.929 7.678 0 10.606l6.269 6.269-6.269 6.269c-2.929 2.929-2.929 7.678 0 10.606 1.464 1.464 3.384 2.197 5.303 2.197s3.839-.732 5.303-2.197l6.269-6.269 6.269 6.269c1.464 1.465 3.384 2.197 5.303 2.197s3.839-.732 5.303-2.197c2.929-2.929 2.929-7.678 0-10.606l-6.269-6.269 6.269-6.269c2.929-2.928 2.929-7.677 0-10.606z"/><path d="m331.345 54.12c1.087.551 2.245.812 3.385.812 2.736 0 5.374-1.503 6.695-4.11l19.527-38.523c1.873-3.695.396-8.208-3.298-10.081-3.694-1.874-8.208-.396-10.081 3.298l-19.527 38.524c-1.873 3.694-.396 8.208 3.299 10.08z"/></g></svg>