<svg id="Capa_1" enable-background="new 0 0 512.006 512.006" height="512" viewBox="0 0 512.006 512.006" width="512" xmlns="http://www.w3.org/2000/svg"><g><path d="m7.5 58.612h25.63v54.159c0 4.755 2.437 9.049 6.519 11.487 4.082 2.439 9.018 2.548 13.205.294l18.139-9.768 18.139 9.768c2.003 1.079 4.178 1.616 6.349 1.616 2.366 0 4.727-.639 6.856-1.91 4.082-2.438 6.519-6.732 6.519-11.487v-54.159h49.642l20.111 62.705c2.234 6.967 8.406 11.469 15.723 11.469s13.488-4.502 15.723-11.469l20.111-62.705h49.642v54.159c0 4.755 2.437 9.049 6.519 11.487 4.082 2.439 9.018 2.548 13.205.294l18.139-9.768 18.139 9.768c2.003 1.079 4.178 1.616 6.349 1.616 2.366 0 4.727-.639 6.856-1.91 4.082-2.438 6.519-6.732 6.519-11.487v-61.659c0-4.142-3.358-7.5-7.5-7.5h-333.034v-15.793c0-4.142-3.358-7.5-7.5-7.5s-7.5 3.358-7.5 7.5v23.292c0 4.143 3.358 7.501 7.5 7.501zm333.032 0v51.448l-19.307-10.396c-2.22-1.195-4.892-1.195-7.111 0l-19.307 10.396v-51.448zm-126.12 0-18.642 58.124c-.092.287-.337 1.05-1.439 1.05s-1.347-.763-1.439-1.05l-18.642-58.124zm-120.556 0v51.448l-19.307-10.397c-2.22-1.195-4.892-1.195-7.111 0l-19.308 10.396v-51.447z"/><path d="m504.5 20.319c-4.142 0-7.5 3.358-7.5 7.5v15.792h-113.041c-4.142 0-7.5 3.358-7.5 7.5s3.358 7.5 7.5 7.5h21.214l20.111 62.705c2.234 6.967 8.406 11.469 15.723 11.469s13.488-4.502 15.723-11.469l20.111-62.705h27.66c4.142 0 7.5-3.358 7.5-7.5v-23.292c-.001-4.142-3.359-7.5-7.501-7.5zm-62.054 96.416c-.092.287-.337 1.05-1.439 1.05s-1.347-.763-1.439-1.05l-18.642-58.124h40.162z"/><path d="m504.5 143.744c-4.142 0-7.5 3.358-7.5 7.5v16.849l-482 73.871v-14.554c0-4.142-3.358-7.5-7.5-7.5s-7.5 3.358-7.5 7.5v23.292c-.017 4.019 3.669 8.216 8.636 7.413l31.403-4.813 16.811 50.829c2.284 6.905 8.411 11.327 15.656 11.327.09 0 .18-.001.27-.002 7.362-.111 13.477-4.743 15.577-11.8l18.01-60.519 58.057-8.898v50.718c0 5.194 2.909 9.816 7.592 12.063 1.865.895 3.847 1.334 5.813 1.334 2.972 0 5.909-1.005 8.347-2.96l17.143-13.749 17.727 8.379c4.169 1.97 8.983 1.673 12.877-.793 3.896-2.467 6.221-6.693 6.221-11.304v-55.293l44.344-6.796 17.045 51.983c2.272 6.929 8.404 11.367 15.668 11.367.088 0 .178 0 .267-.002 7.381-.11 13.5-4.755 15.59-11.834l18.231-61.751 53.685-8.228v49.744c0 5.194 2.909 9.816 7.591 12.063 1.865.895 3.847 1.334 5.814 1.334 2.972 0 5.908-1.004 8.346-2.96l17.034-13.662 17.517 8.856c4.181 2.114 9.058 1.911 13.046-.543 3.99-2.453 6.372-6.714 6.372-11.398v-55.041l24.947-3.823c3.351-.482 6.463-3.645 6.363-7.409v-23.292c0-4.14-3.358-7.498-7.5-7.498zm-430.525 155.634c-.086.291-.316 1.063-1.426 1.08-1.112.027-1.362-.749-1.458-1.037l-16.014-48.421 34.888-5.349zm151.165-74.44v50.433l-19.655-9.291c-2.594-1.227-5.661-.866-7.897.93l-18.168 14.571v-49.641zm109.763-16.825-16.235 54.992c-.086.292-.315 1.067-1.427 1.083-1.15.044-1.364-.75-1.459-1.04l-16.268-49.613zm130.787-20.045v50.107l-19.476-9.847c-2.625-1.326-5.782-.997-8.077.843l-18.167 14.571v-48.667z"/><path d="m504.5 396.139c-4.142 0-7.5 3.358-7.5 7.5v14.554l-482-73.871v-16.849c0-4.142-3.358-7.5-7.5-7.5s-7.5 3.358-7.5 7.5v23.292c.016 3.404 2.528 6.888 6.363 7.409l24.947 3.823v55.041c0 4.684 2.382 8.944 6.371 11.397 3.99 2.454 8.867 2.656 13.046.543l17.518-8.856 17.033 13.661c2.439 1.956 5.375 2.96 8.347 2.96 1.966 0 3.949-.44 5.813-1.334 4.683-2.247 7.592-6.87 7.592-12.063v-22.93c0-4.142-3.358-7.5-7.5-7.5s-7.5 3.358-7.5 7.5v19.555l-18.168-14.571c-2.294-1.841-5.453-2.169-8.076-.843l-19.476 9.847v-50.107l114.405 17.533 18.231 61.752c2.09 7.079 8.209 11.724 15.589 11.834.089.001.178.002.267.002 7.264 0 13.397-4.438 15.669-11.367l17.045-51.983 44.344 6.796v55.293c0 4.611 2.325 8.836 6.22 11.304 3.895 2.466 8.708 2.764 12.878.793l17.728-8.379 17.143 13.75c2.438 1.956 5.374 2.959 8.346 2.959 1.967 0 3.95-.44 5.814-1.334 4.683-2.247 7.591-6.87 7.591-12.063v-50.718l58.058 8.898 18.01 60.519c2.1 7.057 8.214 11.689 15.577 11.8.09.001.179.002.27.002 7.245 0 13.372-4.422 15.656-11.327l16.811-50.829 31.403 4.813c4.063.729 8.838-2.779 8.636-7.413v-23.292c-.001-4.143-3.359-7.501-7.501-7.501zm-308.282 43.238c-.095.29-.371 1.034-1.459 1.041-1.112-.017-1.341-.792-1.427-1.083l-16.235-54.993 35.389 5.422zm136.362 18.434-18.167-14.571c-1.357-1.088-3.018-1.649-4.693-1.649-1.088 0-2.183.237-3.204.719l-19.655 9.29v-50.433l45.72 7.003v49.641zm124.343-30.582-16.015 48.421c-.095.289-.31 1.024-1.458 1.037-1.109-.017-1.339-.789-1.426-1.08l-15.989-53.727z"/><circle cx="459.141" cy="292.274" r="7.69"/><path d="m369.576 346.67c1.464 1.464 3.384 2.197 5.303 2.197s3.839-.732 5.303-2.197l6.269-6.269 6.269 6.269c1.464 1.464 3.384 2.197 5.303 2.197s3.839-.732 5.303-2.197c2.929-2.929 2.929-7.678 0-10.606l-6.269-6.269 6.269-6.269c2.929-2.929 2.929-7.678 0-10.606-2.929-2.929-7.678-2.929-10.606 0l-6.269 6.269-6.269-6.269c-2.929-2.929-7.678-2.929-10.606 0-2.929 2.929-2.929 7.678 0 10.606l6.269 6.269-6.269 6.269c-2.929 2.928-2.929 7.677 0 10.606z"/><path d="m159.545 134.368c-2.928-2.929-7.677-2.929-10.606 0l-6.27 6.269-6.27-6.269c-2.929-2.929-7.678-2.929-10.606 0-2.929 2.929-2.929 7.678 0 10.606l6.269 6.269-6.269 6.269c-2.929 2.929-2.929 7.678 0 10.606 1.464 1.465 3.384 2.197 5.303 2.197s3.839-.732 5.303-2.197l6.27-6.269 6.27 6.269c1.464 1.464 3.384 2.197 5.303 2.197s3.839-.732 5.303-2.197c2.929-2.929 2.929-7.678 0-10.606l-6.269-6.269 6.269-6.269c2.93-2.928 2.93-7.677 0-10.606z"/><path d="m69.131 194.102c0 4.247 3.443 7.69 7.69 7.69s7.69-3.443 7.69-7.69-3.443-7.69-7.69-7.69-7.69 3.443-7.69 7.69z"/><path d="m287.05 341.366c0-4.247-3.443-7.69-7.69-7.69s-7.69 3.443-7.69 7.69 3.443 7.689 7.69 7.689 7.69-3.442 7.69-7.689z"/></g></svg>