<svg id="Capa_1" enable-background="new 0 0 512 512" height="512" viewBox="0 0 512 512" width="512" xmlns="http://www.w3.org/2000/svg"><g><path d="m390.841 80.83c-5.043 0-10.077.349-15.037 1.023-18.742-47.864-65.377-81.853-119.804-81.853-70.911 0-128.601 57.69-128.601 128.601 0 34.71 14.098 76.745 36.793 109.698 8.744 12.696 18.238 23.464 28.249 32.177-19.622 31.871-45.944 50.714-71.281 50.714-13.676 0-40.546-5.704-66.853-43.904-17.843-25.91-28.927-58.739-28.927-85.676 0-23.138 8.361-45.475 23.543-62.896 15.038-17.256 35.721-28.574 58.238-31.869 4.099-.6 6.935-4.408 6.335-8.507-.6-4.098-4.405-6.933-8.507-6.335-26.058 3.813-49.985 16.902-67.375 36.855-17.563 20.153-27.235 45.99-27.235 72.751 0 29.815 12.098 65.904 31.573 94.184 19.276 27.991 42.819 45.138 67.315 49.359l-13.181 24.982c-6.5 12.176 4.697 26.298 18.7 24.141v70.122c0 3.492-2.841 6.333-6.333 6.333-11.763 0-21.333 9.57-21.333 21.333v22.437c0 4.142 3.358 7.5 7.5 7.5s7.5-3.358 7.5-7.5v-22.436c0-3.492 2.841-6.333 6.333-6.333 11.763 0 21.333-9.57 21.333-21.333v-70.122c13.674 2.336 25.65-11.756 18.303-24.849l-14.437-24.369c12.966-2.343 25.661-8.336 37.878-17.918 12.074-9.47 23.313-22.308 32.827-37.426 12.721 8.679 26.089 14.168 39.683 16.209l-16.296 30.886c-2.971 5.631-2.782 12.249.506 17.701s9.052 8.707 15.418 8.707h27.302c6.552 0 12.399-3.398 15.643-9.09s3.188-12.456-.151-18.093l-17.891-30.2c13.383-2.112 26.54-7.57 39.071-16.119 9.514 15.117 20.753 27.956 32.827 37.426 12.404 9.729 25.302 15.751 38.476 18.016l-13.179 24.98c-2.717 5.147-2.544 11.197.462 16.181 3.005 4.984 8.274 7.96 14.095 7.96h3.986l-.584 27.995c-.127 6.064-5.164 10.997-11.229 10.997h-18.627c-14.464 0-26.23 11.768-26.23 26.231 0 6.193-5.038 11.231-11.231 11.231h-34.914c-4.143 0-7.5 3.358-7.5 7.5s3.357 7.5 7.5 7.5h34.914c14.464 0 26.231-11.767 26.231-26.231 0-6.193 5.038-11.231 11.23-11.231h18.627c14.165 0 25.929-11.521 26.225-25.684l.591-28.308h4.297c5.988 0 11.334-3.106 14.3-8.31s2.913-11.386-.139-16.54l-14.436-24.369c12.916-2.334 25.564-8.291 37.739-17.809 13.939-10.897 26.784-26.285 37.145-44.499 2.048-3.6.789-8.179-2.812-10.227-3.603-2.048-8.179-.791-10.228 2.811-19.894 34.974-47.684 55.854-74.337 55.854-25.338 0-51.659-18.843-71.281-50.714 10.011-8.713 19.505-19.481 28.249-32.177 22.694-32.954 36.793-74.988 36.793-109.698 0-11.116-1.419-21.906-4.083-32.201 3.417-.367 6.864-.57 10.322-.57 52.812 0 95.779 42.967 95.779 95.78 0 12.949-2.585 27.591-7.475 42.343-1.303 3.932.828 8.176 4.76 9.479.783.26 1.578.383 2.36.383 3.145 0 6.074-1.994 7.118-5.142 5.389-16.256 8.236-32.531 8.236-47.063.001-61.083-49.694-110.779-110.778-110.779zm-255.644 287.71c-.279.489-.705.737-1.268.737h-23.284c-.152-.215-1.655.128-1.291-2.141l12.186-23.096 13.645 23.033c.286.484.29.978.012 1.467zm269.679 0c-.278.489-.705.737-1.268.737h-23.285c-.547 0-.967-.237-1.25-.706-.282-.468-.296-.951-.04-1.435l12.186-23.096 13.645 23.033c.286.485.29.978.012 1.467zm-131.294-31.84c-.322.566-1.091 1.517-2.61 1.517h-27.302c-1.477 0-2.246-.911-2.573-1.453-.328-.543-.774-1.649-.085-2.955l15.368-29.126 17.178 28.998c.774 1.306.347 2.452.024 3.019zm61.873-106.908c-22.117 33.987-55.705 52.986-79.455 52.037-33.689.674-63.651-28.602-79.455-52.037-21.062-30.583-34.146-69.357-34.146-101.19 0-62.641 50.962-113.602 113.601-113.602 62.64 0 113.601 50.961 113.601 113.601 0 31.833-13.084 70.607-34.146 101.191z"/><path d="m257.321 374.266c-4.142 0-7.5 3.358-7.5 7.5v18.041c0 4.929-4.01 8.939-8.939 8.939-13.201 0-23.94 10.739-23.94 23.94v71.814c0 4.142 3.358 7.5 7.5 7.5s7.5-3.358 7.5-7.5v-71.814c0-4.93 4.01-8.94 8.94-8.94 13.2 0 23.939-10.739 23.939-23.939v-18.041c0-4.142-3.357-7.5-7.5-7.5z"/><path d="m486.432 92.572c4.247 0 7.69-3.443 7.69-7.69s-3.443-7.69-7.69-7.69-7.69 3.443-7.69 7.69 3.443 7.69 7.69 7.69z"/><path d="m421.813 44.692c1.465 1.465 3.384 2.197 5.304 2.197 1.919 0 3.839-.732 5.304-2.197l6.269-6.269 6.269 6.269c1.465 1.464 3.385 2.197 5.304 2.197s3.839-.732 5.304-2.197c2.929-2.929 2.929-7.678 0-10.606l-6.269-6.269 6.269-6.269c2.929-2.929 2.929-7.678 0-10.606s-7.677-2.93-10.607 0l-6.269 6.269-6.269-6.269c-2.93-2.929-7.678-2.929-10.607 0s-2.929 7.678 0 10.606l6.269 6.269-6.269 6.269c-2.93 2.928-2.93 7.677-.002 10.606z"/><path d="m287.316 211.991c-3.891-1.408-8.194.609-9.602 4.505l-13.35 36.956c-1.407 3.896.609 8.195 4.506 9.602.841.304 1.701.448 2.548.448 3.07 0 5.95-1.899 7.054-4.954l13.35-36.956c1.407-3.895-.609-8.194-4.506-9.601z"/><path d="m234.286 216.496c-1.407-3.896-5.704-5.915-9.602-4.505-3.896 1.407-5.913 5.706-4.505 9.602l13.35 36.956c1.103 3.054 3.984 4.954 7.054 4.954.846 0 1.706-.144 2.548-.448 3.896-1.407 5.913-5.706 4.505-9.602z"/><path d="m405.527 268.38-9.354 25.895c-1.407 3.896.61 8.195 4.506 9.602.842.304 1.701.448 2.548.448 3.07 0 5.951-1.9 7.054-4.954l9.354-25.895c1.407-3.896-.61-8.195-4.506-9.602-3.895-1.406-8.196.609-9.602 4.506z"/><path d="m99.124 263.874c-3.896 1.407-5.913 5.706-4.505 9.602l9.354 25.895c1.103 3.054 3.984 4.954 7.054 4.954.846 0 1.706-.144 2.548-.448 3.896-1.407 5.913-5.706 4.505-9.602l-9.354-25.895c-1.407-3.896-5.705-5.916-9.602-4.506z"/></g></svg>