<svg id="Capa_1" enable-background="new 0 0 512 512" height="512" viewBox="0 0 512 512" width="512" xmlns="http://www.w3.org/2000/svg"><g><path d="m485.49 228.049h-90.875l39.195-25.069c5.13-3.281 8.192-8.875 8.192-14.965v-25.461c0-6.493-3.538-12.464-9.233-15.582-5.694-3.118-12.631-2.882-18.102.617l-39.44 25.226c-3.354-10.426-13.143-17.993-24.669-17.993h-31.107c-11.526 0-21.315 7.567-24.669 17.993l-39.44-25.226c-5.47-3.498-12.406-3.734-18.102-.617-5.695 3.118-9.233 9.089-9.233 15.582v25.461c0 6.089 3.062 11.684 8.192 14.965l39.195 25.069h-49.61c-4.143 0-7.5 3.358-7.5 7.5s3.357 7.5 7.5 7.5h67.756v63.93h-94.82v-177.229c.248-12.825-10.817-24.353-24.14-24.37h-45.45l53.581-28.828c9.874-5.312 16.008-15.578 16.008-26.79 0-16.774-13.646-30.421-30.421-30.421h-5.538c-10.771 0-20.838 5.778-26.271 15.081l-37.13 63.586-37.13-63.586c-5.431-9.302-15.497-15.081-26.27-15.081h-5.538c-16.775 0-30.421 13.647-30.421 30.421 0 11.212 6.134 21.477 16.007 26.79l53.581 28.828h-45.448c-13.311-.001-24.14 10.828-24.14 24.14v339c0 13.311 10.829 24.14 24.14 24.14h436.921c13.283 0 24.09-10.811 24.09-24.1v-46.715c0-.003 0-.007 0-.01v-44.393c0-4.142-3.357-7.5-7.5-7.5s-7.5 3.358-7.5 7.5v41.291l-58.927 58.927h-34.754v-26.573l106.484-106.493c1.147-1.252 2.228-2.968 2.196-5.306v-17.308h.34c14.617 0 26.51-11.893 26.51-26.51v-40.91c0-14.618-11.893-26.511-26.51-26.511zm-62.74-67.823c1.199-.767 2.279-.39 2.816-.096.536.294 1.437 1 1.437 2.425v25.461c0 .947-.477 1.818-1.274 2.328l-49.259 31.506v-32.023zm-114.21 20.506c0-6.016 4.895-10.911 10.911-10.911h31.107c6.017 0 10.911 4.895 10.911 10.911v4.988 42.329h-52.93v-42.329-4.988zm-65.533 7.283v-25.461c0-1.425.9-2.131 1.437-2.425.302-.165.774-.357 1.344-.357.444 0 .947.117 1.473.453l46.28 29.601v32.023l-49.259-31.506c-.799-.51-1.275-1.381-1.275-2.328zm65.533 55.034h52.93v63.93h-52.93zm-15 234.61h-26.182l26.182-26.182zm0-129.936-94.82 94.82v-61.327l59.237-59.237h35.583zm-109.82-210.896v86.875c-23.572-.45-42.609-19.76-42.609-43.432-.001-23.678 19.036-42.993 42.609-43.443zm0 306.435c-23.572-.45-42.609-19.765-42.609-43.442s19.037-42.993 42.609-43.442zm53.023-121.283-38.023 38.023v-10.703-27.32zm-56.94-199.95c-30.011 2.431-53.693 27.614-53.693 58.24 0 31.942 25.768 57.966 57.609 58.419v102.702c-31.842.453-57.609 26.481-57.609 58.429s25.768 57.976 57.609 58.429v19.411h-76.861v-136.564c17.59-9.082 29.652-27.43 29.652-48.553s-12.062-39.471-29.652-48.554v-43.481c0-4.142-3.357-7.5-7.5-7.5s-7.5 3.358-7.5 7.5v38.344c-3.234-.599-6.561-.928-9.966-.928-30.116 0-54.618 24.502-54.618 54.619s24.502 54.618 54.618 54.618c3.405 0 6.732-.329 9.966-.928v131.427h-19.922c.853-3.996 1.295-8.088 1.295-12.25 0-32.156-26.102-58.325-58.23-58.444v-236.442c25.445-4.176 45.082-24.566 48.331-50.143h28.527v45.4c0 4.142 3.357 7.5 7.5 7.5s7.5-3.358 7.5-7.5v-45.4h67.722c1.941-.001 3.74.613 5.222 1.649zm-72.945 139.779c8.933 7.271 14.652 18.345 14.652 30.734s-5.719 23.463-14.652 30.733zm-15 69.081c-3.185.828-6.525 1.271-9.966 1.271-21.846 0-39.618-17.772-39.618-39.618s17.772-39.619 39.618-39.619c3.441 0 6.78.443 9.966 1.271zm57.584-288.903c2.754-4.716 7.856-7.645 13.317-7.645h5.538c8.503 0 15.421 6.918 15.421 15.421 0 5.684-3.109 10.887-8.115 13.58l-56.328 30.307zm-134.442 7.776c0-8.503 6.918-15.421 15.421-15.421h5.538c5.461 0 10.563 2.929 13.316 7.645l30.168 51.662-56.329-30.306c-5.005-2.693-8.114-7.897-8.114-13.58zm0 79.758c0-5.04 4.1-9.14 9.14-9.14h24.042c-2.982 17.286-16.103 31.063-33.182 34.885zm9.14 348.139c-5.04 0-9.14-4.1-9.14-9.14v-46.56c23.858.119 43.23 19.564 43.23 43.449 0 4.2-.586 8.303-1.746 12.25h-32.344zm174.58-13.902 94.82-94.82v61.326l-47.396 47.396h-47.424zm271.43-23.811v28.613c0 5.018-4.078 9.1-9.09 9.1h-28.623zm-161.61 37.713v-155.68h52.93v155.68zm67.93-155.68h25.354l-25.354 25.354zm93.68 14.204-93.681 93.689v-61.325l46.567-46.567h47.113v14.203zm26.85-40.714c0 6.347-5.163 11.51-11.51 11.51h-109.02v-63.93h109.02c6.347 0 11.51 5.164 11.51 11.51z"/><circle cx="338.725" cy="100.335" r="7.69"/><path d="m369.591 60.144c1.465 1.465 3.384 2.197 5.304 2.197 1.919 0 3.839-.732 5.304-2.197l6.269-6.269 6.269 6.269c1.465 1.464 3.385 2.197 5.304 2.197s3.839-.732 5.304-2.197c2.929-2.929 2.929-7.678 0-10.606l-6.269-6.269 6.269-6.269c2.929-2.929 2.929-7.678 0-10.606s-7.677-2.93-10.607 0l-6.269 6.269-6.269-6.269c-2.93-2.929-7.678-2.929-10.607 0s-2.929 7.678 0 10.606l6.269 6.269-6.269 6.269c-2.931 2.928-2.931 7.677-.002 10.606z"/></g></svg>