<svg id="Capa_1" enable-background="new 0 0 512.052 512.052" height="512" viewBox="0 0 512.052 512.052" width="512" xmlns="http://www.w3.org/2000/svg"><g><path d="m433.402 446.201-6.477-19.158c-2.2-6.526-6.845-11.73-13.077-14.656-5.302-2.489-11.141-3.036-16.734-1.631l-110.869-328.486c-1.696-5.019-4.477-9.352-8.032-12.799 20.414-5.338 41.406-8.044 62.544-8.044 16.936 0 30.713-13.778 30.713-30.713 0-16.936-13.778-30.714-30.714-30.714-35.982 0-68.485 19.916-84.824 51.974l-4.6 9.025c-11.758 1.709-21.439 9.674-25.355 21.273l-17.039 50.479c-1.324 3.924.783 8.18 4.708 9.504 3.919 1.325 8.179-.782 9.505-4.707l17.039-50.478c2.843-8.421 10.085-11.423 15.915-11.424h.004c5.832 0 13.078 3.002 15.925 11.424l9.319 27.61-76.202 76.195 6.75-19.998c1.324-3.924-.783-8.18-4.708-9.504-3.921-1.325-8.18.782-9.505 4.707l-82.91 245.646c-5.548-1.393-11.345-.856-16.627 1.602-6.275 2.92-10.949 8.138-13.16 14.689l-6.361 18.841c-3.863 11.459 1.438 24.043 12.322 29.269 26.573 12.789 85.416 35.926 163.077 35.926 30.592 0 64.111-3.592 99.717-12.821 4.01-1.04 6.418-5.132 5.378-9.142-1.038-4.009-5.126-6.419-9.142-5.378-121.197 31.415-216.973-4.991-252.532-22.104-4.072-1.955-6.053-6.666-4.605-10.957l6.357-18.832c.887-2.627 2.761-4.72 5.278-5.891 2.526-1.177 5.35-1.263 7.947-.243 91.481 33.963 182.756 37.736 287.096-.993 2.608-1.006 5.433-.908 7.951.275 2.496 1.172 4.356 3.256 5.239 5.875l6.476 19.157c1.489 4.425-.586 9.189-4.826 11.082-10.196 4.55-20.606 8.716-30.943 12.381-3.903 1.384-5.946 5.671-4.562 9.576 1.384 3.904 5.671 5.945 9.575 4.562 10.707-3.797 21.487-8.11 32.044-12.821 11.34-5.065 16.898-17.776 12.925-29.578zm-92.645-431.201c8.664 0 15.713 7.049 15.713 15.713s-7.049 15.713-15.714 15.713c-23.659 0-47.15 3.191-69.928 9.493 14.201-25.322 40.703-40.919 69.929-40.919zm-103.602 422.817v-50.977l28.287-28.287v51.318c0-.001-28.18 27.951-28.287 27.946zm-15-.979c-10.869-.926-21.243-2.279-31.058-3.939l31.058-31.058zm116.722-151.721 12.952 38.373-28.1 28.098v-51.322zm-30.148 81.47-28.287 28.285v-51.319l28.287-28.287zm48.453-27.237 25.806 76.459c-44.883 15.858-86.994 21.957-124.643 22.369zm-23.658-70.094-160.196 160.196c-16.969-3.711-31.895-8.197-44.437-12.637l28.498-84.43 147.621-147.612zm-139.177-46.368 16.111-16.11v51.328l-42.262 42.259zm59.398-8.066-28.287 28.285v-51.327l28.287-28.285zm15-66.325 17.959-17.958 12.952 38.375-30.911 30.909z"/><path d="m321.916 403.767c-4.246 0-7.688 3.442-7.688 7.687s3.442 7.687 7.688 7.687 7.687-3.442 7.687-7.687-3.442-7.687-7.687-7.687z"/><path d="m346.775 378.144c-4.246 0-7.687 3.442-7.687 7.687s3.442 7.687 7.687 7.687 7.688-3.442 7.688-7.687-3.442-7.687-7.688-7.687z"/><path d="m263.704 109.827c0-4.246-3.442-7.687-7.687-7.687-4.246 0-7.687 3.442-7.687 7.687s3.442 7.687 7.687 7.687c4.246.001 7.687-3.441 7.687-7.687z"/><path d="m194.323 331.469h-10.316c-10.349 0-18.769 8.419-18.769 18.768v10.316c0 10.349 8.42 18.769 18.769 18.769h10.316c10.349 0 18.769-8.419 18.769-18.769v-10.316c-.001-10.348-8.421-18.768-18.769-18.768zm3.768 29.085c0 2.078-1.69 3.769-3.769 3.769h-10.316c-2.078 0-3.769-1.69-3.769-3.769v-10.316c0-2.078 1.69-3.768 3.769-3.768h10.316c2.078 0 3.769 1.69 3.769 3.768z"/><path d="m243.426 282.366h-10.317c-10.349 0-18.768 8.419-18.768 18.769v10.316c0 10.349 8.419 18.768 18.768 18.768h10.317c10.349 0 18.768-8.419 18.768-18.768v-10.316c0-10.35-8.419-18.769-18.768-18.769zm3.768 29.085c0 2.078-1.69 3.768-3.768 3.768h-10.317c-2.077 0-3.768-1.69-3.768-3.768v-10.316c0-2.078 1.69-3.769 3.768-3.769h10.317c2.077 0 3.768 1.69 3.768 3.769z"/><path d="m263.444 252.031v10.316c0 10.349 8.42 18.768 18.769 18.768h10.316c10.349 0 18.769-8.419 18.769-18.768v-10.316c0-10.349-8.42-18.769-18.769-18.769h-10.316c-10.349.001-18.769 8.42-18.769 18.769zm15 0c0-2.078 1.69-3.769 3.769-3.769h10.316c2.078 0 3.769 1.69 3.769 3.769v10.316c0 2.078-1.69 3.768-3.769 3.768h-10.316c-2.078 0-3.769-1.69-3.769-3.768z"/><path d="m278.326 465.832c-21.992 4.999-47.028.016-47.279-.035-4.056-.831-8.017 1.785-8.848 5.841-.833 4.058 1.782 8.022 5.84 8.854.756.155 12.823 2.576 28.18 2.576 7.966 0 16.818-.652 25.432-2.609 4.039-.918 6.569-4.937 5.651-8.976-.919-4.04-4.939-6.566-8.976-5.651z"/></g></svg>