<svg id="Capa_1" enable-background="new 0 0 512.001 512.001" height="512" viewBox="0 0 512.001 512.001" width="512" xmlns="http://www.w3.org/2000/svg"><g><path d="m468.526 176.238c.523-.378 2.758.421 5.666-3.981l27.566-53.221c5.235-10.106 6.794-21.799 4.389-32.925l-10.782-49.887c-1.194-5.526-5.561-9.748-11.124-10.754-5.566-1.007-11.133 1.417-14.188 6.175l-27.204 42.366-20.866-41.72c-2.504-5.005-7.542-7.949-13.121-7.675-5.59.271-10.309 3.685-12.315 8.909l-14.725 38.328c-4.274 11.124-4.354 23.407-.226 34.585l20.264 54.873h-95.752l2.008-6.234c2.52-7.821 1.19-16.115-3.648-22.757-4.578-6.284-11.53-10.028-19.226-10.412l9.591-37.666c1.622-6.402 1.622-13.165-.002-19.562l-10.95-43.01c-2.8-11.466-14.35-21.792-27.878-21.669-13.164 0-24.627 8.91-27.878 21.669l-10.952 43.015c-1.623 6.393-1.623 13.155.001 19.566l9.589 37.657c-15.196.329-28.359 17.213-22.874 33.169l2.008 6.234h-95.752l20.264-54.873c4.128-11.179 4.048-23.461-.226-34.585l-14.723-38.328c-2.007-5.224-6.726-8.638-12.316-8.909-5.589-.274-10.618 2.67-13.121 7.675l-20.866 41.72-27.204-42.367c-3.055-4.757-8.622-7.18-14.188-6.174-5.563 1.007-9.93 5.228-11.124 10.754l-10.782 49.887c-2.405 11.126-.846 22.819 4.389 32.925l21.895 42.271h-10.182c-9.49 0-17.21 7.72-17.21 17.209v316.275c0 9.489 7.72 17.209 17.21 17.209h12.803c9.489 0 17.209-7.72 17.209-17.209v-28.438c0-4.142-3.358-7.5-7.5-7.5s-7.5 3.358-7.5 7.5v28.438c0 1.218-.991 2.209-2.209 2.209h-12.803c-1.219 0-2.21-.991-2.21-2.209v-249.386h17.223v185.665c0 4.142 3.358 7.5 7.5 7.5s7.5-3.358 7.5-7.5v-138.07c17.276 27.353 47.774 45.561 82.449 45.561h55.7c21.033 1.063 40.433-12.816 55.704-25.302 4.277-3.782 12.738-5.174 18.702-.955 16.188 12.768 34.583 27.008 57.154 26.257h55.9c53.734 0 97.45-43.716 97.45-97.45v-36.958c0-4.142-3.358-7.5-7.5-7.5s-7.5 3.358-7.5 7.5v36.958c0 45.463-36.987 82.45-82.45 82.45h-55.9c-5.326 0-10.559-.83-15.602-2.45l-32.201-74.453c-3.129-7.25-9.979-11.753-17.876-11.753-7.896 0-14.747 4.504-17.875 11.749l-32.173 74.381c-5.105 1.671-10.416 2.527-15.832 2.527h-55.7c-45.456 0-82.439-36.977-82.449-82.431v-64.819h46.346l64.417 18.914c2.067.607 4.042 1.492 5.871 2.629l25.178 15.667c1.233.768 2.603 1.133 3.955 1.133 2.505 0 4.954-1.255 6.375-3.539 2.188-3.517 1.111-8.142-2.405-10.331l-25.178-15.667c-2.981-1.854-6.201-3.296-9.57-4.286l-15.399-4.521h59.167l9.197 28.549c3.412 10.589 13.178 17.703 24.302 17.703h23.546c11.125 0 20.891-7.114 24.302-17.703l9.198-28.549h60.593l-15.401 4.522c-3.369.989-6.588 2.432-9.569 4.286l-25.178 15.667c-3.517 2.188-4.594 6.813-2.405 10.331 1.421 2.284 3.869 3.539 6.375 3.539 1.353 0 2.722-.366 3.955-1.133l25.178-15.666c1.829-1.138 3.804-2.023 5.871-2.63l64.418-18.914h52.421c.336-.002.666-.032.991-.075zm-216.628 76.366c1.052-2.436 3.221-2.699 4.105-2.699s3.054.263 4.107 2.703l24.061 55.631c-18.46-15.375-31.914-20.952-56.211-.292zm-149.559-211.405 13.844 36.033c2.967 7.722 3.022 16.249.156 24.009l-22.181 60.065h-16.69v-70.38zm-81.819 48.081 10.229-47.324 31.72 49.4v69.951h-13.434l-25.468-49.17c-3.634-7.016-4.716-15.133-3.047-22.857zm-.769 89.236c0-1.218.991-2.209 2.21-2.209h15.012v54.098h-17.222zm211.96-110.135 10.95-43.009c1.556-6.106 7.042-10.372 13.342-10.372 5.114.061 11.533 3.502 13.342 10.371l10.949 43.004c1.01 3.98 1.01 8.193.001 12.174l-10.521 41.32h-27.542l-10.519-41.311c-1.01-3.989-1.011-8.202-.002-12.177zm-12.049 72.771c1.982-2.721 5.05-4.282 8.417-4.282h55.848c3.367 0 6.435 1.561 8.417 4.282 1.982 2.722 2.527 6.121 1.495 9.325l-4.265 13.238c-32.439 17.613-59.586 4.569-67.077.201l-4.33-13.439c-1.032-3.204-.488-6.603 1.495-9.325zm48.114 66.411h-23.546c-4.589 0-8.618-2.935-10.025-7.303l-5.534-17.178c7.244 2.513 16.5 4.632 27.152 4.632 8.427 0 17.728-1.34 27.58-4.844l-5.602 17.39c-1.408 4.369-5.436 7.303-10.025 7.303zm213.481-165.607 10.229 47.324c1.669 7.724.587 15.841-3.047 22.857l-25.468 49.17h-13.433v-69.951zm-85.433 35.277 13.844-36.033 24.87 49.727v70.38h-16.689l-22.181-60.065c-2.867-7.761-2.811-16.287.156-24.009z"/><path d="m437.939 233.443c3.547-4.849 4.058-10.909 1.367-16.211-2.919-5.752-8.97-9.326-15.79-9.326h-50.302c-13.46 0-26.375 3.69-37.349 10.673l-25.474 16.21c-6.06 3.856-9.14 10.454-8.039 17.22 1.148 7.05 6.456 12.573 13.851 14.413l37.192 9.254c5.773 1.437 11.614 2.131 17.379 2.131 21.349 0 41.68-9.521 53.846-26.154zm-25.426 9.353c-11.706 16.005-34.526 23.54-55.496 18.322l-37.192-9.254c-1.5-.373-2.497-1.221-2.667-2.267-.131-.803.302-1.528 1.286-2.154l25.474-16.21c8.562-5.448 18.693-8.328 29.296-8.328h50.302c1.459 0 2.204.701 2.414 1.115.092.181.13.256-.098.567z"/><path d="m209.653 252.007c1.102-6.765-1.979-13.364-8.039-17.219l-25.474-16.21c-10.973-6.982-23.887-10.673-37.348-10.673-4.142 0-7.5 3.358-7.5 7.5s3.358 7.5 7.5 7.5c10.603 0 20.733 2.88 29.295 8.328l25.474 16.21c.984.626 1.417 1.351 1.286 2.154-.17 1.046-1.167 1.894-2.667 2.267l-37.192 9.254c-20.973 5.216-43.79-2.318-55.496-18.322l-13.319-18.209c-.228-.312-.19-.386-.098-.567.21-.414.955-1.115 2.414-1.115h14.488c4.142 0 7.5-3.358 7.5-7.5s-3.358-7.5-7.5-7.5h-14.487c-6.82 0-12.87 3.573-15.79 9.326-2.691 5.302-2.18 11.363 1.366 16.212l13.319 18.209c12.165 16.632 32.496 26.154 53.845 26.154 5.766 0 11.606-.694 17.38-2.131l37.192-9.254c7.396-1.84 12.703-7.363 13.851-14.414z"/><path d="m256.003 87.953c4.142 0 7.5-3.358 7.5-7.5v-20.583c0-4.142-3.358-7.5-7.5-7.5s-7.5 3.358-7.5 7.5v20.583c0 4.142 3.358 7.5 7.5 7.5z"/><circle cx="190.303" cy="293.419" r="7.725"/><circle cx="160.194" cy="299.232" r="7.725"/><circle cx="126.741" cy="299.232" r="7.725"/><circle cx="96.252" cy="288.945" r="7.725"/><circle cx="321.702" cy="293.419" r="7.725"/><circle cx="351.812" cy="299.232" r="7.725"/><circle cx="385.265" cy="299.232" r="7.725"/><circle cx="415.754" cy="288.945" r="7.725"/></g></svg>