<svg id="Capa_1" enable-background="new 0 0 512.006 512.006" height="512" viewBox="0 0 512.006 512.006" width="512" xmlns="http://www.w3.org/2000/svg"><g><path d="m367.498 2.437c-5.075-3.065-11.239-3.25-16.488-.491-69.19 39.122-102.327 37.848-162.519 37.395v-6.375c0-9.783-7.959-17.742-17.742-17.742h-31.044c-9.783 0-17.742 7.959-17.742 17.742v6.375h-34.334v-5.083c0-8.967-7.295-16.262-16.263-16.262h-16.184c-18.273 0-33.139 14.866-33.139 33.139v51.051c0 18.273 14.866 33.139 33.139 33.139h16.184c8.967 0 16.263-7.295 16.263-16.262v-5.083h34.335v25.978c-26.485-.453-49.478 21.581-49.335 48.663v296.107c0 15.042 12.238 27.28 27.28 27.28h110.638c15.042 0 27.28-12.238 27.28-27.28v-215.376c0-4.142-3.358-7.5-7.5-7.5s-7.5 3.358-7.5 7.5v133.537h-135.198v-160.773h142.697c4.142 0 7.5-3.358 7.5-7.5v-45.997c.088-26.516-22.247-49.149-49.335-48.663v-25.978c12.572.126 40.715-.426 53.102.635v25.224c0 5.963 1.076 11.818 3.199 17.404l19.779 52.057c9.173 22.661 47.178 13.053 41.023-12.054l-12.521-46.432c-.777-2.878-1.171-5.858-1.171-8.855v-17.67c12.496 3.942 24.651 8.979 36.265 15.083l22.841 12.004c8.984 5.558 24.933-1.71 24.594-14.858v-119.712c.002-5.93-3.029-11.301-8.104-14.367zm-294.869 116.625c0 .696-.566 1.262-1.263 1.262h-16.184c-10.001 0-18.139-8.137-18.139-18.139v-18.025h10.312c4.142 0 7.5-3.358 7.5-7.5s-3.358-7.5-7.5-7.5h-10.311v-18.025c0-10.002 8.137-18.139 18.139-18.139h16.184c.696 0 1.263.566 1.263 1.262v84.804zm15-20.083v-44.638h34.335v44.638zm135.197 318.91v66.837c0 6.771-5.509 12.28-12.28 12.28h-110.638c-6.771 0-12.28-5.509-12.28-12.28v-66.837zm0-229.27v38.497h-135.197v-38.497c0-18.562 15.101-33.663 33.662-33.663h67.873c18.561.001 33.662 15.102 33.662 33.663zm-85.862-48.662v-106.991c0-1.512 1.23-2.742 2.742-2.742h31.044c1.512 0 2.742 1.23 2.742 2.742v106.991zm141.628 14.763 12.52 46.429c2.118 5.079-9.26 8.95-12.517 2.824l-19.781-52.061c-1.474-3.877-2.221-7.94-2.221-12.075v-23.591c6.826.981 13.605 2.275 20.31 3.886v21.825c0 4.317.568 8.612 1.689 12.763zm82.012-18.204c-.349.358.43 1.802-2.616 1.58l-21.775-11.444v-44.082c0-4.142-3.358-7.5-7.5-7.5s-7.5 3.358-7.5 7.5v36.795c-48.46-21.775-89.007-20.838-132.722-20.386v-44.638c44.139 1.382 92.047-1.006 132.722-20.386v13.886c0 4.142 3.358 7.5 7.5 7.5s7.5-3.358 7.5-7.5v-21.173l21.775-11.444c.479.142 1.395-1.218 2.616 1.581z"/><path d="m116.269 321.481c0 21.028 17.107 38.135 38.136 38.135 21.028 0 38.135-17.107 38.135-38.135s-17.107-38.136-38.135-38.136c-21.029 0-38.136 17.107-38.136 38.136zm61.271 0c0 12.757-10.378 23.135-23.135 23.135s-23.136-10.378-23.136-23.135 10.379-23.136 23.136-23.136 23.135 10.379 23.135 23.136z"/><path d="m138.067 474.858h34.827c4.142 0 7.5-3.358 7.5-7.5s-3.358-7.5-7.5-7.5h-34.827c-4.142 0-7.5 3.358-7.5 7.5s3.357 7.5 7.5 7.5z"/><path d="m415.316 44.719c1.919 0 3.839-.732 5.303-2.197l28.469-28.469c2.929-2.929 2.929-7.678 0-10.606-2.929-2.929-7.678-2.929-10.606 0l-28.469 28.469c-2.929 2.929-2.929 7.678 0 10.606 1.464 1.464 3.383 2.197 5.303 2.197z"/><path d="m420.619 110.798c-2.929-2.929-7.678-2.929-10.606 0-2.929 2.929-2.929 7.678 0 10.606l28.469 28.469c1.464 1.464 3.384 2.197 5.303 2.197s3.839-.732 5.303-2.197c2.929-2.929 2.929-7.678 0-10.606z"/><path d="m482.463 69.889h-67.147c-4.142 0-7.5 3.358-7.5 7.5s3.358 7.5 7.5 7.5h67.147c4.142 0 7.5-3.358 7.5-7.5s-3.358-7.5-7.5-7.5z"/></g></svg>