<svg id="Capa_1" enable-background="new 0 0 512 512" height="512" viewBox="0 0 512 512" width="512" xmlns="http://www.w3.org/2000/svg"><g><path d="m496.095 108.536h-52.165v-21.907h25.771c12.031 0 22.773-8.07 26.122-19.625l11.168-38.519c1.786-6.165.6-12.643-3.256-17.773-3.854-5.131-9.746-8.073-16.164-8.073h-463.143c-6.418 0-12.31 2.943-16.165 8.074-3.854 5.131-5.04 11.609-3.253 17.773l11.166 38.518c3.35 11.555 14.092 19.625 26.123 19.625h23.691v21.907h-50.085c-8.77 0-15.905 7.135-15.905 15.905v19.089c0 8.77 7.135 15.905 15.905 15.905h160.09l-17.551 66.575c-37.461 28.95-61.634 74.302-61.634 125.201 0 16.59 2.553 32.867 7.577 48.463l-44.484 44.484c-5.585 5.585-5.585 14.672 0 20.257l10.499 10.499c2.792 2.793 6.46 4.188 10.128 4.188s7.337-1.396 10.129-4.188l34.026-34.026c13.363 19.369 30.972 35.653 51.391 47.425 23.885 13.771 51.162 21.049 78.883 21.049 79.792 0 147.277-59.631 156.977-138.708.504-4.111-2.42-7.853-6.531-8.357-4.116-.5-7.853 2.42-8.357 6.531-8.778 71.566-69.862 125.534-142.088 125.534-25.095 0-49.782-6.585-71.392-19.043-19.289-11.121-35.802-26.691-48.074-45.238l64.989-64.989c2.307 1.15 4.859 1.773 7.512 1.773.058 0 .114-.008.172-.008 6.645 19.694 25.466 33.707 46.793 33.707 27.218 0 49.36-22.138 49.36-49.35.095-28.219-24.492-51.428-53.041-49.205-1.58-3.769-3.894-7.299-6.958-10.363 0 0 0-.001-.001-.001-11.985-13.333-34.042-14.222-47.031-1.146l-24.391 24.391c-3.188 3.188-4.944 7.426-4.944 11.935 0 2.653.623 5.205 1.773 7.512l-27.42 27.42c-.324-3.496-.497-7.015-.497-10.543 0-62.397 50.759-113.16 113.15-113.16 62.396 0 113.16 50.763 113.16 113.16 0 62.391-50.764 113.15-113.16 113.15-30.697 0-59.442-12.135-80.94-34.169-2.894-2.966-7.642-3.024-10.606-.131s-3.023 7.641-.13 10.606c24.345 24.952 56.903 38.694 91.676 38.694 70.668 0 128.16-57.488 128.16-128.15 0-70.668-57.492-128.16-128.16-128.16-70.662 0-128.15 57.492-128.15 128.16 0 8.021.753 16.011 2.226 23.814l-12.565 12.565c-3.096-11.804-4.661-23.994-4.661-36.379 0-78.939 64.217-143.16 143.15-143.16 35.508 0 69.564 13.091 95.896 36.861 26.143 23.599 42.627 55.785 46.417 90.629.448 4.118 4.134 7.09 8.268 6.645 4.117-.448 7.093-4.149 6.645-8.267-4.188-38.509-22.399-74.073-51.277-100.142-3.057-2.76-6.214-5.381-9.451-7.877l-20.014-75.882c-.814-2.91-3.494-5.61-7.252-5.583h-308.287c-.499 0-.905-.406-.905-.905v-19.089c0-.5.406-.906.905-.906h480.189c.499 0 .905.406.905.906v19.089c0 .499-.406.905-.905.905h-135.99c-4.143 0-7.5 3.358-7.5 7.5s3.357 7.5 7.5 7.5h135.99c8.771 0 15.905-7.135 15.905-15.905v-19.089c.001-8.773-7.134-15.908-15.904-15.908zm-415.564 355.294-9.543-9.543 71.641-71.641c.004-.004.008-.008.012-.012l37.067-37.067 9.543 9.543zm208.789-112.619c0 18.941-15.414 34.35-34.36 34.35-15.569 0-29.217-10.725-33.184-25.488l22.545-22.545c5.741-5.741 8.868-13.117 9.398-20.643 18.864-.872 35.665 15.034 35.601 34.326zm-105.816-25.717 24.391-24.391c6.358-6.296 18.454-7.272 25.819 1.146 6.802 6.802 6.802 17.87 0 24.672l-24.391 24.391c-.455.455-.974.55-1.329.55s-.874-.096-1.329-.55l-23.162-23.162c-.731-.732-.731-1.923.001-2.656zm71.456-132.443c-28.225 0-54.741 7.44-77.705 20.451l14.253-54.066h126.905l14.243 54.002c-23.525-13.28-50.215-20.387-77.696-20.387zm173.97-84.515h-15.89v-21.907h15.89zm-30.89-21.907v21.907h-286.16v-21.907zm-367.457-23.802-11.166-38.518c-.461-1.591-.155-3.263.839-4.587.995-1.324 2.516-2.083 4.172-2.083h463.143c1.656 0 3.177.759 4.172 2.083s1.302 2.997.841 4.587l-11.167 38.518c-1.502 5.183-6.32 8.802-11.716 8.802h-427.402c-5.396 0-10.214-3.62-11.716-8.802zm50.407 23.802h15.89v21.907h-15.89z"/><path d="m277.7 37.593h-43.4c-4.142 0-7.5 3.358-7.5 7.5s3.358 7.5 7.5 7.5h43.4c4.143 0 7.5-3.358 7.5-7.5s-3.357-7.5-7.5-7.5z"/><circle cx="420.985" cy="44.634" r="7.69"/><circle cx="88.938" cy="44.634" r="7.69"/></g></svg>