<svg id="Capa_1" enable-background="new 0 0 511.788 511.788" height="512" viewBox="0 0 511.788 511.788" width="512" xmlns="http://www.w3.org/2000/svg"><g><path d="m233.413 311.473c-2.929 2.929-2.929 7.678 0 10.606 2.93 2.929 7.678 2.929 10.607 0l212.438-212.438c12.134-12.134 18.816-28.267 18.816-45.427s-6.683-33.293-18.816-45.427c-23.597-24.708-67.436-25.387-91.734 0l-43.749 43.749c-17.835 17.835-17.834 46.856.001 64.691 7.304 7.239 18.143 12.962 30.132 13.346l-163.818 163.818-12.365-12.365c-5.689-5.758-17.235-7.34-24.556 0l-27.097 27.097c-6.77 6.77-6.77 17.785 0 24.555l.079.079-104.054 104.054c-2.929 2.929-2.929 7.678 0 10.606 2.93 2.929 7.678 2.929 10.607 0l39.752-39.753 20.113 61.023-19.298 19.298c-2.929 2.929-2.929 7.678 0 10.606 1.465 1.464 3.385 2.197 5.304 2.197s3.839-.732 5.304-2.197l104.054-104.054.08.08c3.386 3.385 7.832 5.078 12.278 5.078 4.445 0 8.892-1.693 12.277-5.078l27.097-27.097c6.77-6.77 6.77-17.785 0-24.555l-38.969-38.969 224.294-224.292c10.38-10.38 10.38-27.269 0-37.649-9.22-9.585-27.226-10.75-37.648 0l-37.072 37.071c-2.929 2.929-2.929 7.678 0 10.606 2.93 2.929 7.678 2.929 10.607 0l20.764-20.764c3.104 4.715 4.771 10.234 4.771 16.01 0 7.797-3.037 15.128-8.551 20.642-5.806 5.807-13.526 9.004-21.738 9.004-6.728.054-15.71-2.867-21.745-9.011-11.981-11.987-11.979-31.487.006-43.472l43.749-43.749c17.986-18.83 51.731-19.608 70.521 0 9.301 9.301 14.423 21.667 14.423 34.82s-5.122 25.52-14.424 34.82zm-151.746 95.181 25.797-25.797 20.118 61.017-25.934 25.934-20.113-61.022zm57.793 23.342-20.119-61.017 14.616-14.617 40.568 40.568zm86.798-62.082-27.097 27.097c-.92.922-2.421.92-3.341 0l-61.94-61.94c-.922-.921-.922-2.42 0-3.342l27.097-27.097c.638.143-.118-1.488 3.341 0l61.94 61.94c.921.922.921 2.421 0 3.342zm163.329-298.692 5.561-5.56c3.671-3.611 11.241-5.086 16.436 0 4.532 4.531 4.532 11.905 0 16.436l-13.07 13.07c-.548-8.761-3.641-17.028-8.927-23.946z"/><path d="m260.151 56.97s.001 0 0 0c3.547 3.546 8.261 5.498 13.274 5.498s9.728-1.953 13.273-5.498l11.965-11.966c3.546-3.545 5.499-8.259 5.499-13.274 0-5.014-1.953-9.729-5.498-13.273l-11.965-11.966c-3.546-3.545-8.26-5.498-13.273-5.498s-9.728 1.952-13.274 5.498l-11.966 11.966c-7.318 7.319-7.318 19.229 0 26.547zm-1.358-27.907 11.965-11.965c.962-.961 2.084-1.105 2.668-1.105.583 0 1.705.144 2.666 1.104l11.967 11.966c.961.961 1.104 2.083 1.104 2.667 0 .583-.144 1.706-1.105 2.667l-11.966 11.966c-.961.961-2.083 1.104-2.666 1.104-.584 0-1.706-.144-2.668-1.105l-11.965-11.966c-1.471-1.469-1.471-3.862 0-5.333z"/><path d="m364.556 258.356-14.96 14.959c-2.93 2.929-2.93 7.677-.001 10.606 1.465 1.465 3.384 2.197 5.304 2.197 1.919 0 3.839-.732 5.303-2.197l14.96-14.959c2.93-2.929 2.93-7.677.001-10.606-2.93-2.929-7.679-2.93-10.607 0z"/><path d="m455.927 166.985-67.158 67.159c-2.929 2.929-2.929 7.678 0 10.606 1.465 1.464 3.384 2.197 5.304 2.197 1.919 0 3.839-.732 5.304-2.197l67.158-67.159c2.929-2.929 2.929-7.678 0-10.606-2.931-2.929-7.679-2.929-10.608 0z"/><circle cx="283.165" cy="167.21" r="7.69"/><circle cx="486.998" cy="120.154" r="7.69"/><path d="m473.141 269.929-6.269-6.269 6.269-6.269c2.929-2.929 2.929-7.678 0-10.606-2.93-2.929-7.678-2.929-10.607 0l-6.269 6.269-6.269-6.269c-2.929-2.929-7.677-2.93-10.607 0-2.929 2.929-2.929 7.678 0 10.606l6.269 6.269-6.269 6.269c-2.929 2.929-2.929 7.678 0 10.606 1.465 1.464 3.385 2.197 5.304 2.197s3.839-.732 5.304-2.197l6.269-6.269 6.269 6.269c1.465 1.465 3.384 2.197 5.304 2.197 1.919 0 3.839-.732 5.304-2.197 2.927-2.929 2.927-7.678-.002-10.606z"/><path d="m147.3 199.104c1.465 1.464 3.385 2.197 5.304 2.197s3.839-.732 5.304-2.197l6.269-6.269 6.269 6.269c1.465 1.465 3.384 2.197 5.304 2.197 1.919 0 3.839-.732 5.304-2.197 2.929-2.929 2.929-7.678 0-10.606l-6.269-6.269 6.269-6.269c2.929-2.929 2.929-7.678 0-10.606-2.93-2.929-7.678-2.929-10.607 0l-6.269 6.269-6.269-6.269c-2.929-2.929-7.677-2.929-10.607 0-2.929 2.929-2.929 7.678 0 10.606l6.269 6.269-6.269 6.269c-2.931 2.928-2.931 7.677-.002 10.606z"/><path d="m213.222 178.156c4.143 0 7.5-3.358 7.5-7.5v-30.532c0-4.142-3.357-7.5-7.5-7.5s-7.5 3.358-7.5 7.5v30.532c0 4.142 3.358 7.5 7.5 7.5z"/><path d="m213.222 113.548c4.143 0 7.5-3.358 7.5-7.5v-64.99c0-4.142-3.357-7.5-7.5-7.5s-7.5 3.358-7.5 7.5v64.99c0 4.142 3.358 7.5 7.5 7.5z"/><path d="m422.487 321.993h-84.439c-4.143 0-7.5 3.358-7.5 7.5s3.357 7.5 7.5 7.5h84.439c4.143 0 7.5-3.358 7.5-7.5s-3.357-7.5-7.5-7.5z"/><circle cx="479.309" cy="329.493" r="7.69"/></g></svg>