<svg id="Capa_1" enable-background="new 0 0 512.031 512.031" height="512" viewBox="0 0 512.031 512.031" width="512" xmlns="http://www.w3.org/2000/svg"><g><path d="m505.957 34.931-28.853-28.852c-7.551-7.568-19.47-8.138-27.723-1.324l-242.914 200.655c-10.616 8.246-20.79 17.217-30.241 26.668l-.064.064c-17.119 1.017-34.101 6.505-49.076 16.681-3.426 2.328-4.315 6.993-1.987 10.418 2.328 3.426 6.992 4.316 10.419 1.988 31.926-21.893 77.046-18.374 105.254 10.028 32.358 32.358 32.358 85.009 0 117.367-30.374 31.797-86.391 32.38-117.365 0-27.758-27.757-32.233-71.639-10.641-104.342 2.282-3.457 1.33-8.109-2.126-10.391s-8.108-1.33-10.392 2.126c-9.686 14.669-14.92 31.242-15.905 47.952l-75.275 75.277c-4.554 4.546-7.061 10.593-7.061 17.028 0 6.432 2.506 12.48 7.056 17.03l7.186 7.185-9.484 9.485c-4.363 4.362-6.765 10.159-6.765 16.322 0 6.166 2.404 11.96 6.764 16.313l22.653 22.653c4.357 4.365 10.152 6.768 16.317 6.768 6.163 0 11.96-2.402 16.321-6.764l9.485-9.485 7.186 7.186c4.55 4.55 10.598 7.056 17.03 7.056 6.434 0 12.48-2.507 17.023-7.056l75.215-75.216c23.952-1.415 46.274-11.411 63.383-28.519 17.583-17.583 27.052-40.242 28.451-63.304l.122-.122c9.45-9.451 18.422-19.625 26.668-30.241l151.804-183.775c2.638-3.193 2.188-7.921-1.006-10.559-3.193-2.639-7.921-2.188-10.559 1.006l-151.874 183.861c-.049.059-.096.118-.143.178-5.045 6.5-10.378 12.823-15.93 18.904-3.019-19.971-12.187-39.183-27.532-54.529-15.214-15.213-34.426-24.483-54.507-27.552 6.075-5.545 12.39-10.871 18.882-15.91.06-.046.119-.094.178-.143l243.003-200.725c2.25-1.858 5.497-1.707 7.559.359l28.863 28.862c2.061 2.056 2.213 5.304.355 7.553l-26.556 32.148c-2.638 3.193-2.188 7.921 1.006 10.559 3.194 2.639 7.922 2.188 10.559-1.006l26.557-32.149c6.812-8.251 6.243-20.168-1.32-27.716zm-454.509 459.729c-1.528 1.528-3.558 2.37-5.714 2.37-2.154 0-4.179-.84-5.706-2.37l-22.662-22.663c-1.526-1.523-2.366-3.547-2.366-5.701 0-2.156.842-4.186 2.371-5.714l9.485-9.485 34.078 34.078zm50.722-2.296c-1.713 1.714-3.99 2.659-6.413 2.659-2.426 0-4.707-.946-6.424-2.663l-29.528-29.528 34.038-34.037c2.929-2.929 2.929-7.678 0-10.606-2.929-2.929-7.677-2.929-10.607 0l-34.037 34.037-29.529-29.529c-1.717-1.717-2.662-3.998-2.662-6.423 0-2.424.944-4.701 2.663-6.417l65.566-65.566c3.002 20.273 12.295 39.674 27.562 54.94 15.06 15.06 34.158 24.613 54.852 27.65z"/><path d="m182.089 394.397c17.241 0 33.434-6.698 45.596-18.86 25.141-25.141 25.141-66.049 0-91.191-25.143-25.142-66.05-25.142-91.192 0-25.141 25.142-25.141 66.05 0 91.191 12.161 12.162 28.355 18.86 45.596 18.86zm-29.285-24.565 29.284-29.284 29.284 29.284c-8.429 6.207-18.592 9.564-29.284 9.564s-20.854-3.356-29.284-9.564zm69.175-10.607-29.284-29.284 29.284-29.284c12.756 17.355 12.756 41.214 0 58.568zm-10.607-69.174-29.284 29.284-29.284-29.284c17.356-12.756 41.215-12.756 58.568 0zm-69.175 10.607 29.284 29.284-29.284 29.284c-12.756-17.355-12.756-41.214 0-58.568z"/><path d="m310.129 173.853c-6.712 0-13.022 2.614-17.769 7.36l-23.483 23.484c-4.747 4.747-7.36 11.057-7.36 17.769s2.613 13.022 7.359 17.768l2.918 2.919s0 .001.001.001c4.898 4.898 11.333 7.348 17.769 7.348 6.435 0 12.87-2.449 17.77-7.348l23.484-23.485c9.796-9.797 9.796-25.739-.001-35.538l-2.918-2.918c-4.748-4.746-11.058-7.36-17.77-7.36zm10.081 35.21-23.483 23.484c-3.951 3.949-10.375 3.949-14.326 0l-2.918-2.919c-1.913-1.913-2.966-4.456-2.966-7.162s1.053-5.249 2.967-7.162l23.484-23.485c1.913-1.913 4.456-2.966 7.161-2.966 2.706 0 5.249 1.054 7.163 2.967l2.918 2.917c3.949 3.951 3.949 10.377 0 14.326z"/></g></svg>