<svg id="Capa_1" enable-background="new 0 0 512 512" height="512" viewBox="0 0 512 512" width="512" xmlns="http://www.w3.org/2000/svg"><g><path d="m120.523 74.069c4.295 0 7.79 3.494 7.79 7.79v38.968c0 4.142 3.358 7.5 7.5 7.5s7.5-3.358 7.5-7.5v-38.968c0-12.566-10.223-22.79-22.79-22.79-4.295 0-7.79-3.494-7.79-7.79v-43.779c0-4.142-3.358-7.5-7.5-7.5s-7.5 3.358-7.5 7.5v43.78c0 12.566 10.224 22.789 22.79 22.789z"/><path d="m64.17 107.233c5.981 0 10.847 4.866 10.847 10.847v24.865c0 4.142 3.358 7.5 7.5 7.5s7.5-3.358 7.5-7.5v-24.865c0-14.252-11.595-25.847-25.847-25.847-5.981 0-10.848-4.866-10.848-10.847v-14.413c0-4.142-3.358-7.5-7.5-7.5s-7.5 3.358-7.5 7.5v14.413c.001 14.252 11.596 25.847 25.848 25.847z"/><path d="m45.823 39.457c4.142 0 7.5-3.358 7.5-7.5v-24.457c0-4.142-3.358-7.5-7.5-7.5s-7.5 3.358-7.5 7.5v24.457c0 4.142 3.358 7.5 7.5 7.5z"/><path d="m27.476 175.832c4.142 0 7.5-3.358 7.5-7.5v-32.971c0-4.142-3.358-7.5-7.5-7.5s-7.5 3.358-7.5 7.5v32.971c0 4.142 3.358 7.5 7.5 7.5z"/><path d="m486.977 136.563-52.377-27.947c-.228-.133-.464-.258-.711-.368l-65.968-29.619c-14.078-6.326-30.259-6.391-44.394-.178-14.133 6.213-25.023 18.179-29.878 32.828l-4.904 14.787c-14.779-1.588-29.652 11.211-29.374 26.865 0 9.696 5.145 18.211 12.845 22.967l-6.515 19.641c-14.734-1.072-28.693 11.564-28.567 26.926 0 9.407 4.843 17.7 12.163 22.53l-6.834 20.622c-14.636-.708-27.999 11.812-27.956 26.952 0 9.187 4.62 17.312 11.655 22.186l-30.294 91.345c-.48 1.443-1.817 2.412-3.328 2.412-1.176.043-3.326-1.237-3.493-3.881l9.356-87.104c3.542-32.975 1.364-66.035-6.473-98.26l-8.173-33.604c-1.334-7.618-2.421-17.407-1.835-28.501l.893-17.579c.211-4.152-1.721-8.02-5.167-10.345-3.445-2.326-7.754-2.671-11.527-.921l-145.037 67.26c-6.746 2.686-9.929 14.629-1.839 20.275 31.635 20.265 61.357 53.753 59.453 94.813l-5.857 91.904c-1.828 28.671 7.989 55.998 27.644 76.946s46.3 32.485 75.029 32.485h28.891c49.37 0 91.88-35.201 101.079-83.699l8.802-46.385c15.654 3.339 35.501-8.811 37.979-26.581l24.191-133.375c3.112-17.157-7.701-33.77-24.63-37.886l6.881-36.267c.777-4.102 3.349-7.55 7.056-9.461 3.709-1.914 8.014-2.009 11.811-.262l37.17 17.1c.137.058.302.125.854.332l55.877 17.793c7.69 3.01 20.824-1.507 24.437-11.091 4.135-9.506.211-20.775-8.935-25.655zm-200.628 4.391c6.604 0 11.977 5.373 11.977 11.977s-5.373 11.977-11.977 11.977-11.977-5.373-11.977-11.977 5.373-11.977 11.977-11.977zm-22.236 69.534c6.604 0 11.977 5.373 11.977 11.977s-5.373 11.977-11.977 11.977-11.977-5.373-11.977-11.977 5.373-11.977 11.977-11.977zm-22.627 70.104c6.604 0 11.977 5.373 11.977 11.977s-5.373 11.977-11.977 11.977-11.977-5.373-11.977-11.977 5.373-11.977 11.977-11.977zm117.401-155.578c-7.837 4.042-13.274 11.331-14.917 19.998l-36.382 191.74c-.772 4.069 1.901 7.994 5.971 8.767 3.167.611 7.418-1.257 8.767-5.971l26.694-140.684c8.789 2.537 14.326 11.328 12.678 20.418l-24.191 133.375c-1.53 8.945-10.731 16.29-21.288 14.369l-32.309-6.682c-4.061-.842-8.025 1.77-8.864 5.826-.839 4.057 1.77 8.025 5.826 8.864l18.718 3.871-8.842 46.6c-7.859 41.427-44.171 71.495-86.343 71.495h-28.891c-24.541 0-47.302-9.854-64.091-27.749-16.789-17.894-25.175-41.237-23.613-65.729l5.858-91.919c2.074-23.056-8.128-49.11-22.503-68.405l17.817-8.081c3.772-1.711 5.443-6.157 3.731-9.929-1.711-3.772-6.156-5.441-9.929-3.731l-21.435 9.722c-6.492-7.45-18.269-17.287-28.878-24.349l135.091-62.647c-.664 13.745-1.588 22.649.536 38.536-16.804 7.635-35.506 16.13-53.75 24.413-3.771 1.712-5.441 6.158-3.729 9.93 1.712 3.771 6.157 5.44 9.93 3.729 17.153-7.788 34.707-15.76 50.712-23.032l6.094 25.054c7.427 30.538 9.491 61.866 6.134 93.114l-9.361 87.152c-1.235 9.736 7.377 20.64 18.412 20.434 7.982 0 15.039-5.095 17.563-12.685l14.606-44.037 6.371 8.193c1.479 1.902 3.69 2.897 5.926 2.897 1.608 0 3.23-.516 4.598-1.58 3.27-2.542 3.86-7.255 1.317-10.525l-12.531-16.116 9.997-30.142c3.406.133 7.549-.433 12.478-2.498l6.667 7.728c1.483 1.72 3.577 2.601 5.683 2.601 1.735 0 3.479-.599 4.896-1.821 3.136-2.706 3.486-7.441.78-10.578l-6.727-7.798c2.716-4.208 4.3-9.213 4.3-14.583 0-9.23-4.662-17.39-11.753-22.255l6.921-20.883c3.067.058 7.212-.548 11.861-2.514l6.666 7.728c1.483 1.719 3.577 2.601 5.683 2.601 1.735 0 3.479-.599 4.896-1.821 3.136-2.706 3.486-7.441.78-10.578l-6.727-7.798c2.716-4.208 4.299-9.213 4.299-14.583 0-9.01-4.444-16.997-11.251-21.899l6.855-20.667c3.937-.05 7.673-.946 11.034-2.517l6.666 7.728c1.483 1.719 3.577 2.601 5.683 2.601 1.735 0 3.479-.599 4.896-1.821 3.136-2.706 3.486-7.441.78-10.578l-6.727-7.798c2.716-4.208 4.3-9.213 4.3-14.583 0-8.714-4.156-16.471-10.587-21.406l5.148-15.526c3.522-10.628 11.424-19.309 21.678-23.817 10.255-4.508 21.995-4.461 32.211.129l59.466 26.7-7.472 19.213-29.928-13.768c-8.018-3.689-17.114-3.487-24.955.557zm123.27 31.219c-1.033 2.371-3.667 3.566-6.131 2.783l-48.265-15.369 6.981-17.953 45.174 24.104c2.294 1.223 3.278 4.051 2.241 6.435z"/></g></svg>