<svg id="Capa_1" enable-background="new 0 0 512 512" height="512" viewBox="0 0 512 512" width="512" xmlns="http://www.w3.org/2000/svg"><g><circle cx="97.858" cy="156.688" r="7.69"/><path d="m414.142 164.378c4.247 0 7.69-3.443 7.69-7.69s-3.443-7.69-7.69-7.69-7.69 3.443-7.69 7.69 3.443 7.69 7.69 7.69z"/><circle cx="163.784" cy="436.771" r="7.69"/><path d="m323.783 429.271h-16.688c-4.143 0-7.5 3.358-7.5 7.5s3.357 7.5 7.5 7.5h16.688c4.143 0 7.5-3.358 7.5-7.5s-3.357-7.5-7.5-7.5z"/><path d="m271.857 429.271h-60.433c-4.142 0-7.5 3.358-7.5 7.5s3.358 7.5 7.5 7.5h60.433c4.143 0 7.5-3.358 7.5-7.5s-3.357-7.5-7.5-7.5z"/><path d="m512 52.559c0-12.008-9.769-21.777-21.776-21.777h-25.521c-20.902 0-38.31 15.204-41.774 35.132h-84.87c-12.009 0-21.779 9.771-21.779 21.78v276.826c0 4.142 3.357 7.5 7.5 7.5s7.5-3.358 7.5-7.5v-276.826c0-3.738 3.041-6.78 6.779-6.78h158.941v355.66c0 3.733-3.042 6.77-6.78 6.77h-60.434v-6.598c0-24.494-19.927-44.42-44.42-44.42h-189.646v-304.632c0-12.009-9.771-21.78-21.78-21.78h-84.869c-3.464-19.927-20.871-35.132-41.774-35.132h-25.521c-12.007 0-21.776 9.77-21.776 21.777v384.015c0 12.004 9.771 21.77 21.78 21.77h60.434c-.692 11.616 9.412 22.961 21.777 22.873h304.02c11.798.055 22.326-10.398 21.776-22.873h60.434c12.01 0 21.78-9.766 21.78-21.77v-384.015zm-497 0c0-3.737 3.04-6.777 6.776-6.777h25.521c12.595 0 23.233 8.539 26.431 20.131h-58.728zm6.78 390.785c-3.738 0-6.78-3.037-6.78-6.77v-355.66h158.94c3.739 0 6.78 3.042 6.78 6.78v304.631h-54.087c-24.493 0-44.42 19.927-44.42 44.42v6.598h-60.433zm393.006 16.097c0 3.736-3.04 6.776-6.776 6.776h-304.02c-3.737 0-6.777-3.04-6.777-6.776v-22.695c0-16.223 13.198-29.42 29.42-29.42h258.733c16.223 0 29.42 13.198 29.42 29.42zm49.917-413.659h25.521c3.736 0 6.776 3.04 6.776 6.777v13.354h-58.728c3.198-11.591 13.836-20.131 26.431-20.131z"/><path d="m414.142 204.133c26.161 0 47.444-21.284 47.444-47.445s-21.283-47.444-47.444-47.444-47.444 21.283-47.444 47.444 21.282 47.445 47.444 47.445zm0-79.889c17.89 0 32.444 14.555 32.444 32.444 0 17.89-14.555 32.445-32.444 32.445s-32.444-14.555-32.444-32.445c-.001-17.889 14.554-32.444 32.444-32.444z"/><path d="m414.142 369.02c32.057 0 58.136-26.08 58.136-58.136s-26.079-58.136-58.136-58.136-58.136 26.08-58.136 58.136 26.079 58.136 58.136 58.136zm0-101.272c23.785 0 43.136 19.351 43.136 43.136s-19.351 43.136-43.136 43.136-43.136-19.351-43.136-43.136 19.35-43.136 43.136-43.136z"/><path d="m414.142 338.832c15.41 0 27.947-12.537 27.947-27.948s-12.537-27.948-27.947-27.948c-15.411 0-27.948 12.537-27.948 27.948s12.536 27.948 27.948 27.948zm0-40.896c7.139 0 12.947 5.808 12.947 12.948s-5.809 12.948-12.947 12.948c-7.14 0-12.948-5.808-12.948-12.948s5.808-12.948 12.948-12.948z"/><path d="m97.858 204.133c17.955 0 34.167-9.948 42.312-25.961 1.878-3.692.407-8.207-3.285-10.085s-8.207-.408-10.085 3.285c-5.572 10.955-16.662 17.761-28.941 17.761-17.89 0-32.445-14.555-32.445-32.445s14.555-32.444 32.445-32.444c12.534 0 23.725 7.009 29.206 18.292 1.81 3.726 6.298 5.281 10.023 3.469 3.726-1.81 5.279-6.297 3.469-10.023-7.889-16.243-24.649-26.738-42.698-26.738-26.161 0-47.445 21.283-47.445 47.444s21.283 47.445 47.444 47.445z"/><path d="m155.994 310.884c0-32.056-26.08-58.136-58.136-58.136s-58.136 26.08-58.136 58.136 26.08 58.136 58.136 58.136 58.136-26.08 58.136-58.136zm-101.271 0c0-23.785 19.351-43.136 43.136-43.136s43.136 19.351 43.136 43.136-19.351 43.136-43.136 43.136-43.136-19.351-43.136-43.136z"/><path d="m125.806 310.884c0-15.411-12.537-27.948-27.948-27.948s-27.948 12.537-27.948 27.948 12.537 27.948 27.948 27.948 27.948-12.537 27.948-27.948zm-40.895 0c0-7.14 5.808-12.948 12.948-12.948s12.948 5.808 12.948 12.948-5.808 12.948-12.948 12.948-12.948-5.808-12.948-12.948z"/></g></svg>