<svg id="Capa_1" enable-background="new 0 0 512 512" height="512" viewBox="0 0 512 512" width="512" xmlns="http://www.w3.org/2000/svg"><g><path d="m391.513 66.369c1.465 1.465 3.384 2.197 5.304 2.197 1.919 0 3.839-.732 5.304-2.197l6.269-6.269 6.269 6.269c1.465 1.464 3.385 2.197 5.304 2.197s3.839-.732 5.304-2.197c2.929-2.929 2.929-7.678 0-10.606l-6.269-6.269 6.269-6.269c2.929-2.929 2.929-7.678 0-10.606-2.93-2.929-7.678-2.929-10.607 0l-6.269 6.269-6.269-6.269c-2.93-2.929-7.678-2.929-10.607 0s-2.929 7.678 0 10.606l6.269 6.269-6.269 6.269c-2.931 2.928-2.931 7.677-.002 10.606z"/><circle cx="477.867" cy="98.333" r="7.69"/><path d="m419.648 276.392c-4.247 0-7.69 3.443-7.69 7.69s3.443 7.69 7.69 7.69 7.689-3.443 7.689-7.69-3.442-7.69-7.689-7.69z"/><path d="m419.648 243.951c-4.247 0-7.69 3.443-7.69 7.69s3.443 7.69 7.69 7.69 7.689-3.443 7.689-7.69-3.442-7.69-7.689-7.69z"/><path d="m256.28 320.887c-18.802 0-34.098 15.296-34.098 34.098s15.296 34.097 34.098 34.097c18.801 0 34.097-15.296 34.097-34.097s-15.296-34.098-34.097-34.098zm0 53.195c-10.53 0-19.098-8.567-19.098-19.097s8.567-19.098 19.098-19.098 19.097 8.567 19.097 19.098-8.566 19.097-19.097 19.097z"/><path d="m489.18 177.827h-97.77c-8.508 0-15.867-5.769-17.896-14.03l-9.091-37.001c-2.92-11.875-13.497-20.169-25.723-20.169h-164.75c-12.226 0-22.804 8.294-25.724 20.17l-9.09 37.001c-2.029 8.26-9.389 14.029-17.896 14.029h-77.09v-21.48c0-3.568 2.902-6.47 6.47-6.47h66.672c4.143 0 7.5-3.358 7.5-7.5s-3.357-7.5-7.5-7.5h-66.672c-11.839 0-21.47 9.631-21.47 21.47v21.48h-6.33c-12.583 0-22.82 10.237-22.82 22.82v229.37c0 12.583 10.237 22.82 22.82 22.82h153.23c21.856 17.952 49.806 28.743 80.23 28.743 69.805 0 126.595-56.791 126.595-126.595 0-7.505-.66-14.858-1.919-22.008h116.044v97.04c0 4.312-3.508 7.82-7.82 7.82h-116.212c-4.143 0-7.5 3.358-7.5 7.5s3.357 7.5 7.5 7.5h116.212c12.583 0 22.82-10.237 22.82-22.82v-229.37c0-12.583-10.237-22.82-22.82-22.82zm-474.18 252.19v-97.04h116.604c-1.259 7.15-1.919 14.503-1.919 22.008 0 31.654 11.679 60.632 30.953 82.852h-44.273v-23.955c0-14.921-12.14-27.061-27.061-27.061h-11.897c-14.921 0-27.061 12.14-27.061 27.061v23.955h-27.526c-4.312-.001-7.82-3.508-7.82-7.82zm297.158-141.235c-15.228-12.84-34.837-20.404-55.877-20.404-47.755 0-86.606 38.852-86.606 86.606 0 21.255 7.701 40.742 20.453 55.828l-17.71 17.71c-17.254-19.652-27.732-45.393-27.732-73.538 0-61.534 50.062-111.595 111.596-111.595 28.145 0 53.886 10.478 73.538 27.732zm-246.811 149.054v-23.955c0-6.65 5.41-12.061 12.061-12.061h11.897c6.65 0 12.061 5.411 12.061 12.061v23.955zm190.933 28.744c-28.002 0-53.626-10.369-73.24-27.467l17.717-17.717c15.044 12.598 34.412 20.195 55.523 20.195 40.939 0 76.618-29.066 84.837-69.112.833-4.058-1.781-8.022-5.839-8.854-4.055-.83-8.021 1.781-8.854 5.839-6.794 33.102-36.293 57.128-70.144 57.128-39.484 0-71.606-32.123-71.606-71.606s32.122-71.606 71.606-71.606c32.47-.097 61.103 22.142 69.353 53.707 1.032 4.012 5.115 6.426 9.133 5.395 4.011-1.032 6.427-5.121 5.395-9.132-3.292-12.793-9.351-24.286-17.423-33.93l17.672-17.672c17.097 19.614 27.467 45.238 27.467 73.239-.002 61.531-50.064 111.593-111.597 111.593zm121.072-148.603c-15.931-51.941-64.586-89.671-121.072-89.587-56.934 0-105.205 37.781-121.072 89.587h-69.861v-26.206c0-4.142-3.357-7.5-7.5-7.5s-7.5 3.358-7.5 7.5v26.206h-35.347v-117.33c0-4.312 3.508-7.82 7.82-7.82h98.42c15.433 0 28.782-10.466 32.463-25.452l9.09-36.998c1.042-3.865 5.323-8.874 11.157-8.75h164.75c4.014-.041 9.715 2.994 11.156 8.75l9.091 37c3.681 14.985 17.03 25.451 32.463 25.451h97.77c4.312 0 7.82 3.508 7.82 7.82v117.33h-119.648z"/><path d="m297.886 142.834h-83.212c-13.785 0-25 11.215-25 25s11.215 25 25 25h83.212c13.785 0 25.001-11.215 25.001-25s-11.216-25-25.001-25zm0 35h-83.212c-5.514 0-10-4.486-10-10s4.486-10 10-10h83.212c5.515 0 10.001 4.486 10.001 10s-4.487 10-10.001 10z"/></g></svg>