<svg id="Capa_1" enable-background="new 0 0 512 512" height="512" viewBox="0 0 512 512" width="512" xmlns="http://www.w3.org/2000/svg"><g><circle cx="84.28" cy="343.601" r="7.72"/><path d="m16.269 45.077c1.465 1.465 3.384 2.197 5.304 2.197 1.919 0 3.839-.732 5.304-2.197l6.315-6.315 6.315 6.315c1.465 1.464 3.385 2.197 5.304 2.197s3.839-.732 5.304-2.197c2.929-2.929 2.929-7.678 0-10.606l-6.316-6.316 6.316-6.316c2.929-2.929 2.929-7.678 0-10.606-2.93-2.929-7.678-2.929-10.607 0l-6.315 6.315-6.315-6.315c-2.93-2.929-7.678-2.929-10.607 0s-2.929 7.678 0 10.606l6.316 6.316-6.316 6.316c-2.93 2.928-2.93 7.677-.002 10.606z"/><path d="m67.961 138.607c4.264 0 7.72-3.457 7.72-7.72 0-4.264-3.457-7.72-7.72-7.72-4.264 0-7.72 3.457-7.72 7.72-.001 4.263 3.456 7.72 7.72 7.72z"/><path d="m498.549 117.003 6.315-6.316c2.929-2.929 2.929-7.678 0-10.606-2.93-2.929-7.678-2.929-10.607 0l-6.315 6.315-6.315-6.315c-2.929-2.929-7.677-2.929-10.607 0-2.929 2.929-2.929 7.678 0 10.606l6.315 6.316-6.315 6.316c-2.929 2.929-2.929 7.678 0 10.606 1.465 1.464 3.385 2.197 5.304 2.197s3.839-.732 5.304-2.197l6.315-6.315 6.315 6.315c1.465 1.465 3.384 2.197 5.304 2.197 1.919 0 3.839-.732 5.304-2.197 2.929-2.929 2.929-7.678 0-10.606z"/><circle cx="346.346" cy="28.155" r="7.72"/><circle cx="418.187" cy="265.028" r="7.72"/><path d="m253.181 244.759c18.455 0 33.47-15.015 33.47-33.47s-15.015-33.47-33.47-33.47c-18.456 0-33.471 15.015-33.471 33.47s15.014 33.47 33.471 33.47zm0-51.94c10.185 0 18.47 8.286 18.47 18.47s-8.285 18.47-18.47 18.47-18.471-8.286-18.471-18.47 8.286-18.47 18.471-18.47z"/><path d="m276.722 281.918c-.903-4.042-4.911-6.584-8.955-5.684-3.487.779-7.076 1.28-10.666 1.488-4.136.239-7.294 3.786-7.054 7.921.231 3.987 3.537 7.066 7.48 7.066.146 0 .293-.004.44-.013 4.397-.255 8.795-.869 13.07-1.824 4.044-.902 6.588-4.912 5.685-8.954z"/><path d="m189.201 229.664c-1.142-3.983-5.297-6.286-9.276-5.143-3.982 1.141-6.284 5.294-5.144 9.276 1.211 4.225 2.779 8.382 4.661 12.355 1.282 2.707 3.975 4.292 6.783 4.292 1.075 0 2.169-.233 3.205-.724 3.743-1.772 5.341-6.245 3.568-9.988-1.532-3.238-2.811-6.626-3.797-10.068z"/><path d="m177.909 179.868c-1.696 4.058-3.07 8.287-4.083 12.568-.954 4.031 1.539 8.072 5.57 9.026.581.138 1.162.203 1.734.203 3.396 0 6.475-2.324 7.291-5.774.826-3.488 1.945-6.933 3.327-10.238 1.598-3.822-.206-8.215-4.027-9.812-3.824-1.598-8.215.205-9.812 4.027z"/><path d="m212.258 158.808c2.829-2.209 5.855-4.202 8.995-5.922 3.632-1.991 4.963-6.549 2.973-10.182-1.99-3.632-6.548-4.963-10.182-2.973-3.847 2.108-7.554 4.549-11.019 7.254-3.265 2.549-3.845 7.263-1.295 10.527 1.479 1.894 3.687 2.884 5.916 2.884 1.615.001 3.241-.518 4.612-1.588z"/><path d="m254.017 144.748c3.601.044 7.211.379 10.729.995.438.077.873.114 1.303.114 3.574 0 6.741-2.565 7.379-6.208.715-4.08-2.014-7.967-6.094-8.682-4.31-.755-8.729-1.165-13.133-1.219-4.096-.064-7.541 3.266-7.591 7.408-.051 4.142 3.266 7.541 7.407 7.592z"/><path d="m295.409 159.855c2.771 2.279 5.378 4.8 7.747 7.492 1.482 1.685 3.553 2.546 5.634 2.546 1.76 0 3.526-.616 4.951-1.869 3.11-2.736 3.413-7.475.677-10.585-2.899-3.295-6.09-6.381-9.481-9.17-3.2-2.631-7.927-2.17-10.557 1.029-2.631 3.2-2.17 7.926 1.029 10.557z"/><path d="m315.683 251.708c-3.231-2.59-7.952-2.07-10.542 1.163-2.242 2.798-4.73 5.436-7.395 7.841-3.075 2.775-3.318 7.518-.543 10.593 1.48 1.641 3.521 2.475 5.569 2.475 1.791 0 3.589-.638 5.022-1.932 3.262-2.943 6.307-6.172 9.051-9.597 2.592-3.233 2.071-7.954-1.162-10.543z"/><path d="m326.278 230.734c3.614 0 6.798-2.619 7.395-6.302 1.328-8.711 1.572-19.093-.69-30-.853-4.054-4.83-6.649-8.883-5.796-4.054.852-6.648 4.829-5.797 8.882 1.445 7.063 2.044 15.521.563 24.516-.662 4.089 2.115 7.94 6.204 8.603.406.065.81.097 1.208.097z"/><path d="m254.38 408.308c-14.578 0-26.438-11.86-26.438-26.439v-102.123c.892-3.386-.693-7.042-3.959-8.639-3.218-1.574-6.334-3.425-9.262-5.502-3.379-2.397-8.06-1.602-10.457 1.777-2.396 3.378-1.601 8.06 1.777 10.457 2.217 1.573 4.531 3.026 6.9 4.374v99.657c0 22.85 18.589 41.439 41.438 41.439 14.579 0 26.439 11.86 26.439 26.439v54.752c0 4.142 3.357 7.5 7.5 7.5s7.5-3.358 7.5-7.5v-54.753c.001-22.85-18.589-41.439-41.438-41.439z"/><path d="m84.28 373.685c-4.143 0-7.5 3.358-7.5 7.5v122.967c0 4.142 3.357 7.5 7.5 7.5s7.5-3.358 7.5-7.5v-122.967c0-4.142-3.357-7.5-7.5-7.5z"/><path d="m417.144 445.091c-4.143 0-7.5 3.358-7.5 7.5v51.562c0 4.142 3.357 7.5 7.5 7.5s7.5-3.358 7.5-7.5v-51.562c0-4.142-3.357-7.5-7.5-7.5z"/><path d="m52.941 343.601c0-4.142-3.357-7.5-7.5-7.5h-33.002c-4.143 0-7.5 3.358-7.5 7.5s3.357 7.5 7.5 7.5h33.002c4.143 0 7.5-3.358 7.5-7.5z"/><path d="m154.034 336.101h-30.913c-4.143 0-7.5 3.358-7.5 7.5s3.357 7.5 7.5 7.5h30.913c4.143 0 7.5-3.358 7.5-7.5s-3.357-7.5-7.5-7.5z"/><path d="m76.776 271.804v32.961c0 4.142 3.357 7.5 7.5 7.5s7.5-3.358 7.5-7.5v-32.961c0-4.142-3.357-7.5-7.5-7.5s-7.5 3.358-7.5 7.5z"/><path d="m38.497 287.205c-2.929-2.93-7.678-2.931-10.606-.002-2.93 2.928-2.931 7.677-.003 10.606l23.624 23.634c1.465 1.465 3.385 2.198 5.305 2.198 1.919 0 3.838-.732 5.302-2.195 2.93-2.929 2.931-7.677.003-10.607z"/><path d="m117.05 365.767c-2.93-2.929-7.678-2.929-10.607 0s-2.929 7.678 0 10.606l21.576 21.576c1.465 1.464 3.385 2.197 5.304 2.197s3.839-.732 5.304-2.197c2.929-2.929 2.929-7.678 0-10.606z"/><path d="m51.513 365.767-22.61 22.61c-2.929 2.929-2.929 7.678 0 10.606 1.465 1.464 3.385 2.197 5.304 2.197s3.839-.732 5.304-2.197l22.61-22.61c2.929-2.929 2.929-7.678 0-10.606-2.931-2.929-7.679-2.929-10.608 0z"/><path d="m129.011 288.259-22.569 22.58c-2.928 2.93-2.927 7.679.003 10.607 1.464 1.464 3.383 2.195 5.302 2.195 1.92 0 3.84-.733 5.305-2.198l22.569-22.58c2.928-2.93 2.927-7.679-.003-10.607-2.931-2.929-7.68-2.926-10.607.003z"/><circle cx="418.187" cy="404.227" r="7.72"/><path d="m386.849 404.227c0-4.142-3.357-7.5-7.5-7.5h-33.002c-4.143 0-7.5 3.358-7.5 7.5s3.357 7.5 7.5 7.5h33.002c4.142 0 7.5-3.358 7.5-7.5z"/><path d="m487.941 396.727h-30.913c-4.143 0-7.5 3.358-7.5 7.5s3.357 7.5 7.5 7.5h30.913c4.143 0 7.5-3.358 7.5-7.5s-3.357-7.5-7.5-7.5z"/><path d="m418.183 372.892c4.143 0 7.5-3.358 7.5-7.5v-32.962c0-4.142-3.357-7.5-7.5-7.5s-7.5 3.358-7.5 7.5v32.962c0 4.142 3.358 7.5 7.5 7.5z"/><path d="m361.798 347.828c-2.93 2.928-2.931 7.677-.003 10.607l23.624 23.635c1.465 1.465 3.385 2.198 5.305 2.198 1.919 0 3.838-.732 5.302-2.195 2.93-2.928 2.931-7.677.003-10.607l-23.624-23.635c-2.93-2.931-7.679-2.931-10.607-.003z"/><path d="m450.957 426.393c-2.93-2.929-7.678-2.929-10.607 0s-2.929 7.678 0 10.606l21.576 21.576c1.465 1.464 3.385 2.197 5.304 2.197s3.839-.732 5.304-2.197c2.929-2.929 2.929-7.678 0-10.606z"/><path d="m385.42 426.393-22.61 22.61c-2.929 2.929-2.929 7.678 0 10.606 1.465 1.464 3.385 2.197 5.304 2.197s3.839-.732 5.304-2.197l22.61-22.61c2.929-2.929 2.929-7.678 0-10.606-2.93-2.929-7.679-2.929-10.608 0z"/><path d="m440.351 382.072c1.464 1.464 3.383 2.195 5.302 2.195 1.92 0 3.84-.733 5.305-2.198l22.569-22.581c2.928-2.929 2.927-7.678-.003-10.606-2.93-2.929-7.679-2.928-10.606.003l-22.569 22.581c-2.928 2.929-2.927 7.678.002 10.606z"/><path d="m62.837 217.065h88.728c4.143 0 7.5-3.358 7.5-7.5s-3.357-7.5-7.5-7.5h-88.728c-4.143 0-7.5 3.358-7.5 7.5s3.357 7.5 7.5 7.5z"/><path d="m352.911 209.565c0 4.142 3.357 7.5 7.5 7.5h83.112c4.143 0 7.5-3.358 7.5-7.5s-3.357-7.5-7.5-7.5h-83.112c-4.143 0-7.5 3.358-7.5 7.5z"/><path d="m255.974 112.655c4.143 0 7.5-3.358 7.5-7.5v-97.655c0-4.142-3.357-7.5-7.5-7.5s-7.5 3.358-7.5 7.5v97.655c0 4.142 3.358 7.5 7.5 7.5z"/><path d="m176.843 141.041c1.465 1.465 3.385 2.198 5.305 2.198 1.919 0 3.838-.732 5.302-2.195 2.93-2.929 2.931-7.677.003-10.607l-63.515-63.542c-2.929-2.93-7.678-2.93-10.606-.002-2.93 2.929-2.931 7.677-.003 10.607z"/><path d="m346.506 307.597c1.919 0 3.839-.732 5.303-2.197 2.93-2.929 2.93-7.677.001-10.606l-16.678-16.678c-2.929-2.929-7.678-2.929-10.606 0-2.93 2.929-2.93 7.677-.001 10.606l16.678 16.678c1.464 1.465 3.383 2.197 5.303 2.197z"/><path d="m176.844 278.115-16.058 16.058c-2.929 2.929-2.929 7.678 0 10.606 1.465 1.465 3.385 2.197 5.304 2.197s3.839-.732 5.304-2.197l16.058-16.058c2.929-2.929 2.929-7.678-.001-10.606-2.929-2.929-7.678-2.928-10.607 0z"/><path d="m329.828 143.238c1.92 0 3.84-.733 5.305-2.198l60.681-60.708c2.928-2.93 2.927-7.679-.003-10.607-2.929-2.928-7.678-2.927-10.606.002l-60.681 60.708c-2.928 2.93-2.927 7.679.003 10.607 1.463 1.464 3.382 2.196 5.301 2.196z"/><path d="m246.685 321.076v29.626c0 4.142 3.357 7.5 7.5 7.5s7.5-3.358 7.5-7.5v-29.626c0-4.142-3.357-7.5-7.5-7.5s-7.5 3.358-7.5 7.5z"/></g></svg>