<svg id="Capa_1" enable-background="new 0 0 512 512" height="512" viewBox="0 0 512 512" width="512" xmlns="http://www.w3.org/2000/svg"><g><path d="m238.43 76.176c1.464 1.464 3.384 2.197 5.303 2.197s3.839-.732 5.303-2.197l6.269-6.269 6.269 6.269c1.464 1.464 3.384 2.197 5.303 2.197s3.839-.732 5.303-2.197c2.929-2.929 2.929-7.678 0-10.606l-6.269-6.269 6.269-6.269c2.929-2.929 2.929-7.678 0-10.606-2.929-2.929-7.678-2.929-10.606 0l-6.269 6.269-6.269-6.269c-2.929-2.929-7.678-2.929-10.606 0-2.929 2.929-2.929 7.678 0 10.606l6.269 6.269-6.269 6.269c-2.93 2.929-2.93 7.678 0 10.606z"/><circle cx="345.632" cy="82.593" r="7.69"/><circle cx="164.026" cy="293.98" r="7.69"/><path d="m496.641 41.478v-24.915c0-4.142-3.358-7.5-7.5-7.5s-7.5 3.358-7.5 7.5v24.914c-8.928 3.087-15.36 11.57-15.36 21.531v32.462l-161.786 24.814c-35.615 5.442-72.204 5.506-108.288 0l-150.487-23.083v-34.193c0-9.961-6.432-18.444-15.36-21.531v-24.914c0-4.142-3.358-7.5-7.5-7.5s-7.5 3.358-7.5 7.5v24.914c-8.929 3.088-15.36 11.571-15.36 21.531v419.859c0 11.066 9.003 20.069 20.069 20.069h38.532c11.066 0 20.069-9.003 20.069-20.069v-9.588c0-11.066-9.003-20.069-20.069-20.069h-12.881v-206.552l119.651 18.352c46.137 8.304 94.408 12.172 141.396 4.381l159.513-24.464v208.283h-12.882c-11.066 0-20.069 9.003-20.069 20.069v9.588c0 11.066 9.003 20.069 20.069 20.069h38.532c11.066 0 20.069-9.003 20.069-20.069v-419.859c.001-9.96-6.43-18.443-15.358-21.53zm-15.361 66.868 15.72-2.411v119.105l-15.72 2.411zm-15 104.381-15.26-21.429c-7.495-10.525-7.996-24.456-1.277-35.492l16.537-27.16zm22.79-157.499h.14c4.295 0 7.79 3.49 7.79 7.78v27.752l-15.72 2.411v-30.163c0-4.29 3.494-7.78 7.79-7.78zm-474.07 52.438 15.72 2.411v119.104l-15.72-2.411zm30.72 23.999 14.664 25.436c6.041 10.48 5.742 23.319-.78 33.507l-13.884 21.686zm-22.93-76.437h.14c4.295 0 7.79 3.49 7.79 7.78v31.894l-15.72-2.411v-29.483c0-4.29 3.495-7.78 7.79-7.78zm40.881 418.051v9.588c0 2.795-2.274 5.069-5.069 5.069h-38.533c-2.795 0-5.069-2.274-5.069-5.069v-14.657h43.602c2.795 0 5.069 2.274 5.069 5.069zm-32.951-20.071h-15.72v-211.262l15.72 2.411zm267.031-197.674c-62.906 9.521-121.807-4.712-179.03-12.854l-67.969-10.426 21.484-33.558c9.555-14.924 9.992-33.733 1.142-49.086l-20.863-36.19 141.419 21.691c36.518 5.619 75.342 5.781 112.833 0l152.231-23.347-22.067 36.242c-9.844 16.167-9.11 36.575 1.87 51.994l21.806 30.621-156.115 23.945c-2.245.343-4.492.666-6.741.968zm199.249-15.318v212.992h-15.72v-210.581zm0 242.651c0 2.795-2.274 5.069-5.069 5.069h-38.532c-2.795 0-5.069-2.274-5.069-5.069v-9.588c0-2.795 2.274-5.069 5.069-5.069h43.601z"/><path d="m186.967 163.122c-.026-.068-.053-.136-.081-.204-1.359-3.307-4.547-5.442-8.122-5.442-.003 0-.006 0-.008 0-3.579.003-6.766 2.146-8.121 5.458-.023.056-.045.113-.067.169l-21.241 55.771c-1.474 3.871.468 8.204 4.339 9.678 2.837.996 7.457.335 9.678-4.339l15.393-40.415 15.244 40.393c1.462 3.875 5.788 5.831 9.665 4.369 3.875-1.462 5.832-5.79 4.369-9.665z"/><path d="m415.994 152.833c-3.471-2.26-8.117-1.277-10.377 2.194l-11.645 17.889-11.78-18.041c-2.264-3.469-6.912-4.443-10.38-2.179-3.468 2.265-4.444 6.912-2.179 10.38l16.844 25.796-.065 26.654c-.01 4.142 3.339 7.508 7.481 7.519h.019c4.133 0 7.489-3.346 7.5-7.481l.065-26.679 16.712-25.673c2.258-3.474 1.276-8.12-2.195-10.379z"/><path d="m337.943 157.475h-31.24c-4.142 0-7.5 3.358-7.5 7.5s3.358 7.5 7.5 7.5h8.057v49.068c0 4.142 3.358 7.5 7.5 7.5s7.5-3.358 7.5-7.5v-49.068h8.184c4.142 0 7.5-3.358 7.5-7.5s-3.359-7.5-7.501-7.5z"/><path d="m278.088 185.677c0-12.242-10.333-22.202-23.033-22.202h-15.033c-.003 0-.006 0-.009 0s-.006 0-.009 0c-4.142 0-7.5 3.358-7.5 7.5v56.568c0 4.142 3.358 7.5 7.5 7.5s7.5-3.358 7.5-7.5v-14.877l17.454 19.832c1.482 1.685 3.552 2.545 5.633 2.545 1.76 0 3.527-.616 4.952-1.87 3.109-2.736 3.412-7.476.675-10.585l-13.937-15.836c9.171-2.928 15.807-11.266 15.807-21.075zm-23.033 7.201c-1.756 0-4.674.011-7.47.025-.013-2.72-.032-11.575-.04-14.428h7.51c4.354 0 8.033 3.298 8.033 7.202 0 3.903-3.678 7.201-8.033 7.201z"/><path d="m115.85 151.475h-15.751c-3.697-.078-7.653 3.276-7.5 7.5v56.568c0 4.142 3.358 7.5 7.5 7.5s7.5-3.358 7.5-7.5v-17.112c3.051-.015 6.323-.029 8.251-.029 13.11 0 23.776-10.526 23.776-23.464s-10.667-23.463-23.776-23.463zm0 31.927c-1.915 0-5.147.013-8.183.028-.015-3.145-.038-13.66-.046-16.956h8.229c4.757 0 8.776 3.876 8.776 8.463-.001 4.589-4.02 8.465-8.776 8.465z"/></g></svg>