<svg id="Capa_1" enable-background="new 0 0 512 512" height="512" viewBox="0 0 512 512" width="512" xmlns="http://www.w3.org/2000/svg"><g><path d="m489.04 61.725h-37.164v-11.152c0-12.792-10.406-23.198-23.198-23.198h-55.057c-12.792 0-23.198 10.407-23.198 23.198v11.152h-327.463c-12.66 0-22.96 10.3-22.96 22.96v338.202c0 34.042 27.696 61.738 61.738 61.738h134.652 119.22c4.143 0 7.5-3.358 7.5-7.5v-16.754c0-13.789-11.218-25.006-25.007-25.006h-84.208c-13.788 0-25.006 11.218-25.006 25.006v9.254h-127.151c-25.771 0-46.738-20.967-46.738-46.738v-338.202c0-4.389 3.571-7.96 7.96-7.96h351.334v59.67c0 11.603 9.191 21.096 20.675 21.589v163.299c0 7.27-2.831 14.104-7.972 19.244l-19.688 19.688c-2.929 2.929-2.929 7.678.001 10.606 1.464 1.464 3.384 2.197 5.303 2.197s3.839-.732 5.304-2.197l19.687-19.688c7.974-7.973 12.365-18.574 12.365-29.851v-163.576c10.221-1.71 18.036-10.613 18.036-21.311v-29.67h38.995v256.76c0 20.623-16.777 37.4-37.4 37.4h-347.2c-20.623 0-37.4-16.777-37.4-37.4v-256.76h301.354c4.143 0 7.5-3.358 7.5-7.5s-3.357-7.5-7.5-7.5h-308.854c-4.142 0-7.5 3.358-7.5 7.5v264.26c0 28.894 23.506 52.4 52.4 52.4h347.2c28.894 0 52.4-23.506 52.4-52.4v-264.26c0-4.142-3.357-7.5-7.5-7.5h-46.495v-15h61.035c4.389 0 7.96 3.571 7.96 7.96v338.202c0 25.771-20.967 46.738-46.738 46.738h-99.173c-4.143 0-7.5 3.358-7.5 7.5s3.357 7.5 7.5 7.5h99.173c34.043 0 61.738-27.696 61.738-61.738v-338.202c0-12.66-10.3-22.96-22.96-22.96zm-285.15 398.646c0-5.518 4.489-10.006 10.006-10.006h84.208c5.518 0 10.007 4.489 10.007 10.006v9.254h-104.221zm161.533-409.798c0-4.521 3.678-8.198 8.198-8.198h55.057c4.521 0 8.198 3.678 8.198 8.198v11.151h-71.453zm47.582 85.822c0 3.646-2.967 6.613-6.613 6.613h-10.485c-3.646 0-6.612-2.966-6.612-6.613v-59.67h23.711v59.67z"/><path d="m235.85 381.341c71.372 0 129.438-58.065 129.438-129.438 0-71.372-58.065-129.438-129.438-129.438-30.595 0-60.284 10.873-83.599 30.615-3.161 2.677-3.554 7.409-.877 10.57s7.409 3.555 10.57.877c20.609-17.451 46.856-27.062 73.906-27.062 63.101 0 114.438 51.336 114.438 114.438s-51.338 114.438-114.438 114.438c-63.101 0-114.438-51.337-114.438-114.438 0-22.466 6.504-44.21 18.81-62.883 2.279-3.459 1.323-8.11-2.136-10.39-3.46-2.279-8.11-1.323-10.39 2.136-13.924 21.13-21.284 45.729-21.284 71.137 0 71.373 58.065 129.438 129.438 129.438z"/><path d="m193.398 251.903c0 23.408 19.043 42.451 42.451 42.451 23.407 0 42.451-19.043 42.451-42.451 0-23.407-19.044-42.451-42.451-42.451-23.407.001-42.451 19.044-42.451 42.451zm42.452-27.45c15.137 0 27.451 12.314 27.451 27.451s-12.314 27.451-27.451 27.451-27.451-12.314-27.451-27.451c-.001-15.137 12.314-27.451 27.451-27.451z"/><path d="m60.951 351.92v19.437c0 8.549 6.955 15.504 15.504 15.504h19.437c8.549 0 15.504-6.955 15.504-15.504v-19.437c0-8.549-6.955-15.504-15.504-15.504h-19.436c-8.55 0-15.505 6.955-15.505 15.504zm15 0c0-.278.226-.504.504-.504h19.437c.278 0 .504.226.504.504v19.437c0 .278-.226.504-.504.504h-19.436c-.278 0-.504-.226-.504-.504v-19.437z"/><circle cx="235.85" cy="251.903" r="7.69"/><ellipse cx="76.141" cy="304.625" rx="7.69" ry="7.69" transform="matrix(.987 -.16 .16 .987 -47.812 16.13)"/><ellipse cx="76.141" cy="261.925" rx="7.69" ry="7.69" transform="matrix(.987 -.16 .16 .987 -40.973 15.579)"/></g></svg>