<svg id="Capa_1" enable-background="new 0 0 512 512" height="512" viewBox="0 0 512 512" width="512" xmlns="http://www.w3.org/2000/svg"><g><path d="m465.115 46.712-75.399-13.294-6.77-17.249c-3.851-9.822-13.156-16.169-23.705-16.169-9.203-.042-19.702 5.87-23.676 16.084l-6.374 16.092c-25.548 2.613-45.546 24.256-45.546 50.482 0 4.142 3.357 7.5 7.5 7.5s7.5-3.358 7.5-7.5c0-19.711 16.036-35.747 35.747-35.747 3.076 0 5.84-1.878 6.973-4.738l8.14-20.548c1.306-3.048 4.483-6.427 9.736-6.625 4.335 0 8.157 2.608 9.741 6.646l8.307 21.167c.954 2.433 3.105 4.193 5.679 4.646l56.574 9.974 21.693 65.947c-6.731 2.816-13.584 11.724-13.37 20.892 0 4.427-3.602 8.029-8.029 8.029h-18.979c-.016 0-.032-.002-.048-.002-4.143 0-7.5 3.358-7.5 7.5v25.67c.261 13.189-11.188 25.082-24.909 25.09-12.442.238-25.135-10.903-24.92-24.92 0-4.142-3.357-7.5-7.5-7.5s-7.5 3.358-7.5 7.5c0 13.741-11.175 24.92-24.91 24.92-6.657 0-12.918-2.594-17.627-7.303-4.703-4.703-7.293-10.959-7.293-17.617l-.004-67.478c0-4.142-3.357-7.5-7.5-7.5s-7.5 3.358-7.5 7.5l.004 59.229c-.021 12.651-10.319 22.937-22.975 22.937h-102.943c-29.678-.211-61.722 12.028-83.439 33.397-7.016-42.508-31.155-72.14-32.309-73.534-2.64-3.189-7.358-3.631-10.549-.998-3.191 2.635-3.643 7.36-1.013 10.555.258.312 23.095 28.461 29.259 67.584l-38.816-22.47c-3.586-2.075-8.173-.852-10.249 2.733-2.075 3.584-.851 8.173 2.733 10.248l37.37 21.633-36.095 12.661c-3.909 1.371-5.966 5.651-4.595 9.56 1.401 2.621 4.435 6.231 9.56 4.595l30.885-10.834c-8.477 16.359-13.692 35.907-13.6 55.729l-.005 162.984c0 15.346 12.484 27.83 27.83 27.83h59.91c14.604 0 26.609-11.31 27.735-25.63h12.865c16.023 0 29.06-13.036 29.06-29.06v-21.688c13.394 2.915 30.511-3.905 38.321-15.315 8.068 11.102 23.232 18.152 38.329 15.314v21.689c0 16.024 13.031 29.06 29.05 29.06h12.866c1.127 14.32 13.136 25.63 27.745 25.63h59.9c15.345 0 27.829-12.484 27.829-27.83v-35.229c0-4.142-3.357-7.5-7.5-7.5s-7.5 3.358-7.5 7.5v35.229c0 7.075-5.755 12.83-12.829 12.83h-59.9c-7.08 0-12.84-5.755-12.84-12.83v-47.954c12.438-.33 23.443-6.514 30.329-15.911 7.08 9.659 18.509 15.942 31.378 15.942 21.433 0 38.87-17.437 38.87-38.869l-.008-230.077h11.527c12.698 0 23.029-10.331 23.029-23.029.079-3.308 2.586-7.746 8.029-8.029 16.064.346 31.813-14.07 31.496-31.496v-13.612c0-21.93-15.676-40.612-37.275-44.423zm-413.187 271.339c.185-9.088 2.315-21.784 5.712-31.296h355.676v32.784c0 6.609-2.732 13.079-7.496 17.75-4.609 4.52-10.635 6.926-16.851 6.82-12.904-.251-23.402-10.957-23.402-23.865 0-4.142-3.357-7.5-7.5-7.5s-7.5 3.358-7.5 7.5c0 13.162-10.708 23.869-23.869 23.869s-23.869-10.708-23.869-23.869c0-4.142-3.357-7.5-7.5-7.5s-7.5 3.358-7.5 7.5c0 13.162-10.708 23.869-23.87 23.869-13.161 0-23.869-10.708-23.869-23.869 0-4.142-3.357-7.5-7.5-7.5s-7.5 3.358-7.5 7.5c0 13.162-10.708 23.869-23.869 23.869s-23.869-10.708-23.869-23.869c0-4.142-3.357-7.5-7.5-7.5s-7.5 3.358-7.5 7.5c0 13.162-10.708 23.869-23.87 23.869-13.161 0-23.869-10.708-23.869-23.869 0-4.142-3.357-7.5-7.5-7.5s-7.5 3.358-7.5 7.5c0 13.162-10.708 23.869-23.869 23.869-13.36-.136-24.992-11.789-23.816-26.062zm236.039-114.331c1.883 3.7 4.349 7.124 7.368 10.144 7.543 7.543 17.57 11.697 28.234 11.697 13.324 0 25.145-6.565 32.397-16.631 6.486 9.505 19.932 16.864 32.433 16.631 9.42 0 18.082-3.287 24.917-8.765v26.86h-224.213c-4.143 0-7.5 3.358-7.5 7.5s3.357 7.5 7.5 7.5h224.213v13.099h-349.142c2.429-4.575 5.184-8.951 8.234-13.099h80.832c4.143 0 7.5-3.358 7.5-7.5s-3.357-7.5-7.5-7.5h-67.455c18.51-17.198 44.79-28.567 71.948-28.327h102.942c10.704 0 20.382-4.459 27.292-11.609zm-150.528 280.45c0 7.075-5.756 12.83-12.83 12.83h-59.91c-7.074 0-12.83-5.755-12.83-12.83v-56.151c6.594 5.149 14.879 8.229 23.874 8.229 12.865 0 24.291-6.282 31.369-15.941 6.886 9.396 17.89 15.579 30.327 15.91zm41.829-26.86c0 7.753-6.307 14.06-14.06 14.06h-12.77v-37.72c7.005-2.705 13.039-7.377 17.412-13.343 2.599 3.547 5.789 6.633 9.417 9.126v27.877zm106.651 0v-27.883c3.625-2.492 6.812-5.576 9.41-9.12 4.372 5.966 10.406 10.638 17.41 13.343v37.721h-12.771c-7.747-.001-14.049-6.308-14.049-14.061zm103.527-36.062c-13.167 0-23.879-10.708-23.879-23.869 0-4.142-3.357-7.5-7.5-7.5s-7.5 3.358-7.5 7.5c0 13.162-10.708 23.869-23.869 23.869s-23.869-10.708-23.869-23.869c0-4.142-3.357-7.5-7.5-7.5s-7.5 3.358-7.5 7.5c0 13.162-10.708 23.869-23.87 23.869-13.161 0-23.869-10.708-23.869-23.869 0-4.142-3.357-7.5-7.5-7.5s-7.5 3.358-7.5 7.5c0 13.162-10.708 23.869-23.869 23.869s-23.869-10.708-23.869-23.869c0-4.142-3.357-7.5-7.5-7.5s-7.5 3.358-7.5 7.5c0 13.162-10.708 23.869-23.87 23.869-13.161 0-23.869-10.708-23.869-23.869 0-4.142-3.357-7.5-7.5-7.5s-7.5 3.358-7.5 7.5c0 13.162-10.708 23.869-23.869 23.869s-23.869-10.708-23.869-23.869v-46.544c6.609 5.176 14.903 8.279 23.869 8.279 12.865 0 24.291-6.282 31.369-15.941 7.078 9.659 18.504 15.941 31.369 15.941 12.866 0 24.291-6.282 31.37-15.941 7.078 9.659 18.504 15.941 31.369 15.941s24.291-6.282 31.369-15.941c7.078 9.659 18.504 15.941 31.369 15.941 12.866 0 24.291-6.282 31.37-15.941 7.078 9.659 18.504 15.941 31.369 15.941 12.887 0 24.329-6.304 31.405-15.99 6.953 9.467 18.069 15.739 30.573 15.982 9.007.168 17.608-2.802 24.64-8.442v46.714c0 13.163-10.708 23.87-23.87 23.87zm97.944-316.5c.155 5.652-4.282 13.727-11.341 15.664l-19.745-60.022 6.205 1.094c14.417 2.544 24.881 15.014 24.881 29.651z"/><path d="m370.527 131.999c20.085 0 36.426-16.34 36.426-36.426s-16.341-36.426-36.426-36.426-36.426 16.34-36.426 36.426 16.341 36.426 36.426 36.426zm0-57.851c9.173 0 16.995 5.805 20.045 13.926h-20.045c-4.143 0-7.5 3.358-7.5 7.5s3.357 7.5 7.5 7.5h20.045c-3.049 8.121-10.871 13.926-20.045 13.926-11.814 0-21.426-9.611-21.426-21.426s9.612-21.426 21.426-21.426z"/><path d="m138.94 315.913c4.247 0 7.689-3.443 7.689-7.69s-3.443-7.69-7.689-7.69-7.69 3.443-7.69 7.69 3.443 7.69 7.69 7.69z"/><path d="m265.091 315.913c4.247 0 7.689-3.443 7.689-7.69s-3.443-7.69-7.689-7.69-7.69 3.443-7.69 7.69 3.443 7.69 7.69 7.69z"/><path d="m391.242 315.913c4.247 0 7.689-3.443 7.689-7.69s-3.443-7.69-7.689-7.69-7.69 3.443-7.69 7.69 3.444 7.69 7.69 7.69z"/><path d="m76.28 375.185c-4.247 0-7.689 3.443-7.689 7.69s3.443 7.69 7.689 7.69 7.69-3.443 7.69-7.69-3.443-7.69-7.69-7.69z"/><path d="m202.431 375.185c-4.247 0-7.689 3.443-7.689 7.69s3.443 7.69 7.689 7.69 7.69-3.443 7.69-7.69-3.443-7.69-7.69-7.69z"/><path d="m328.583 375.185c-4.247 0-7.689 3.443-7.689 7.69s3.443 7.69 7.689 7.69 7.69-3.443 7.69-7.69-3.444-7.69-7.69-7.69z"/></g></svg>