<svg id="Capa_1" enable-background="new 0 0 512 512" height="512" viewBox="0 0 512 512" width="512" xmlns="http://www.w3.org/2000/svg"><g><path d="m491.861 62.966-42.811-42.81c-12.998-12.998-30.279-20.156-48.661-20.156-18.381 0-35.663 7.158-48.661 20.156l-63.087 63.088c-5.64 5.639-8.745 13.136-8.745 21.11 0 4.236.885 8.334 2.552 12.094l-31.785 31.794c-.027.027-.049.056-.075.083-.051.052-.106.099-.155.153l-239.078 260.967c-13.084 14.273-12.609 36.188 1.083 49.895l14.818 14.814-25.044 25.043c-2.929 2.929-2.929 7.678 0 10.606 1.465 1.465 3.385 2.197 5.304 2.197s3.839-.732 5.304-2.197l25.044-25.044 15.596 15.592c7.059 7.059 16.283 10.609 25.523 10.609 8.748 0 17.511-3.184 24.459-9.588l233.531-215.303c3.045-2.808 3.238-7.552.431-10.598-2.808-3.047-7.552-3.238-10.599-.431l-160.917 148.358-76.703-76.703 167.015-182.305 96.965 96.965c2.929 2.928 7.677 2.929 10.607 0 0 0 0-.001.001-.001 0 0 .001-.001.001-.001l31.787-31.787c3.762 1.669 7.862 2.555 12.101 2.555 7.975 0 15.472-3.105 21.11-8.744l63.089-63.089c26.831-26.832 26.831-70.491 0-97.322zm-200.218 65.501 91.901 91.901-25.074 25.074-91.898-91.898zm-136.794 305.105-61.573 56.771c-8.347 7.694-21.179 7.432-29.209-.6l-41.021-41.008c-8-8.008-8.279-20.814-.633-29.156l56.629-61.813zm326.404-283.891-63.089 63.089c-5.791 5.791-15.215 5.791-21.006 0l-97.912-97.911c-2.806-2.806-4.351-6.536-4.351-10.503 0-3.968 1.545-7.698 4.352-10.504l63.088-63.088c10.165-10.166 23.679-15.764 38.054-15.764s27.89 5.598 38.054 15.763l42.811 42.81c20.983 20.983 20.983 55.124-.001 76.108z"/><path d="m247.264 224.631-52.12 52.121c-9.686 9.687-9.686 25.447 0 35.133l4.986 4.987h.001c4.692 4.692 10.931 7.276 17.566 7.276 6.637 0 12.875-2.584 17.567-7.276l52.119-52.12c4.693-4.692 7.277-10.931 7.277-17.567s-2.584-12.875-7.276-17.566l-4.987-4.987c-9.684-9.687-25.444-9.687-35.133-.001zm29.514 29.514-52.12 52.121c-1.858 1.859-4.33 2.883-6.96 2.883-2.629 0-5.102-1.024-6.961-2.883l-4.985-4.987c-3.838-3.838-3.838-10.083 0-13.92l52.119-52.12c3.84-3.839 10.085-3.837 13.921 0l4.987 4.987c1.859 1.859 2.883 4.331 2.883 6.959s-1.024 5.1-2.884 6.96z"/><circle cx="173.285" cy="341.542" r="7.61"/><path d="m79.501 473.539c1.465 1.465 3.384 2.197 5.304 2.197 1.919 0 3.839-.732 5.304-2.197 2.929-2.929 2.929-7.678 0-10.606l-39.303-39.303c-2.93-2.929-7.678-2.929-10.607 0s-2.929 7.678 0 10.606z"/><path d="m430.497 64.641c4.203 0 7.61-3.407 7.61-7.61s-3.407-7.61-7.61-7.61-7.61 3.407-7.61 7.61 3.407 7.61 7.61 7.61z"/><path d="m462.763 81.688c0-4.203-3.407-7.61-7.61-7.61s-7.61 3.407-7.61 7.61 3.407 7.61 7.61 7.61 7.61-3.408 7.61-7.61z"/><path d="m386.56 59.266c4.203 0 7.61-3.407 7.61-7.61s-3.407-7.61-7.61-7.61-7.61 3.407-7.61 7.61 3.407 7.61 7.61 7.61z"/><path d="m411.216 83.922c4.203 0 7.61-3.407 7.61-7.61s-3.407-7.61-7.61-7.61-7.61 3.407-7.61 7.61 3.407 7.61 7.61 7.61z"/><path d="m443.482 100.968c0-4.203-3.407-7.61-7.61-7.61s-7.61 3.407-7.61 7.61 3.407 7.61 7.61 7.61 7.61-3.407 7.61-7.61z"/><path d="m460.528 118.015c-4.203 0-7.61 3.407-7.61 7.61s3.407 7.61 7.61 7.61 7.61-3.407 7.61-7.61-3.407-7.61-7.61-7.61z"/><path d="m374.889 70.937c0-4.203-3.407-7.61-7.61-7.61s-7.61 3.407-7.61 7.61 3.407 7.61 7.61 7.61 7.61-3.407 7.61-7.61z"/><path d="m399.545 95.593c0-4.203-3.407-7.61-7.61-7.61s-7.61 3.407-7.61 7.61 3.407 7.61 7.61 7.61 7.61-3.407 7.61-7.61z"/><path d="m424.201 120.249c0-4.203-3.407-7.61-7.61-7.61s-7.61 3.407-7.61 7.61 3.407 7.61 7.61 7.61 7.61-3.407 7.61-7.61z"/><path d="m441.248 137.296c-4.203 0-7.61 3.407-7.61 7.61s3.407 7.61 7.61 7.61 7.61-3.407 7.61-7.61c-.001-4.203-3.408-7.61-7.61-7.61z"/><ellipse cx="347.998" cy="90.218" rx="7.61" ry="7.61" transform="matrix(.099 -.995 .995 .099 223.929 427.633)"/><path d="m380.264 114.874c0-4.203-3.407-7.61-7.61-7.61s-7.61 3.407-7.61 7.61 3.407 7.61 7.61 7.61c4.203-.001 7.61-3.408 7.61-7.61z"/><path d="m404.92 139.53c0-4.203-3.407-7.61-7.61-7.61s-7.61 3.407-7.61 7.61 3.407 7.61 7.61 7.61 7.61-3.407 7.61-7.61z"/><path d="m421.967 156.576c-4.203 0-7.61 3.407-7.61 7.61s3.407 7.61 7.61 7.61 7.61-3.407 7.61-7.61-3.407-7.61-7.61-7.61z"/><circle cx="328.718" cy="109.498" r="7.61"/><path d="m353.374 126.545c-4.203 0-7.61 3.407-7.61 7.61s3.407 7.61 7.61 7.61 7.61-3.407 7.61-7.61c-.001-4.203-3.408-7.61-7.61-7.61z"/><path d="m378.03 151.201c-4.203 0-7.61 3.407-7.61 7.61s3.407 7.61 7.61 7.61 7.61-3.407 7.61-7.61-3.407-7.61-7.61-7.61z"/><path d="m402.686 175.857c-4.203 0-7.61 3.407-7.61 7.61s3.407 7.61 7.61 7.61 7.61-3.407 7.61-7.61-3.407-7.61-7.61-7.61z"/></g></svg>