<svg id="Capa_1" enable-background="new 0 0 512.003 512.003" height="512" viewBox="0 0 512.003 512.003" width="512" xmlns="http://www.w3.org/2000/svg"><g><path d="m506.335 13.709c-4.738-6.754-17.131-12.095-26.641-9.577l-189.526 41.462c-4.046.886-6.609 4.884-5.724 8.93.885 4.047 4.883 6.612 8.93 5.725l189.452-41.446c5.712-1.317 14.199 2.973 14.175 11.333v394.437c0 9.321-6.608 17.532-15.713 19.523l-217.787 47.648v-15.354l212.603-46.511c3.111-.669 6.018-3.719 5.897-7.346v-87.177c0-4.143-3.358-7.5-7.5-7.5s-7.5 3.357-7.5 7.5v71.328l-18.385-15.103c-3.201-2.63-7.927-2.166-10.556 1.034s-2.166 7.927 1.035 10.556l18.696 15.359-194.29 42.504v-117.141l21.938 68.428c1.38 4.307 4.826 7.522 9.217 8.602 3.249.719 8.104.401 12.156-3.346l8.955-8.831 12.424 1.979c4.467.707 8.89-.914 11.834-4.346s3.879-8.051 2.499-12.356l-32.017-99.879 54.715 6.931c11.488 1.857 25.941-8.475 25.43-22.411v-49.881c.279-12.568-11.724-24.089-25.429-22.411l-69.575 8.813c-1.89-6.447-7.847-11.173-14.897-11.173h-17.249v-106.518l203.5-44.52v247.396c0 4.143 3.358 7.5 7.5 7.5s7.5-3.357 7.5-7.5v-256.715c0-2.271-1.029-4.419-2.797-5.843-1.769-1.423-4.086-1.969-6.306-1.484l-209.397 45.81v-21.285c-.064-3.261-2.029-6.683-6.055-7.469l-225.138-49.252c-15.334-3.825-32.493 9.062-32.308 26.004v394.438c0 16.317 11.57 30.691 27.51 34.18l226.887 49.636c.558.108 1.77.295 3.206 0l226.887-49.636c15.94-3.488 27.51-17.862 27.51-34.18v-.002-394.436c.073-4.757-1.95-11.737-5.666-16.427zm-290.613 233.827h-39.685c-4.142 0-7.5 3.357-7.5 7.5s3.358 7.5 7.5 7.5h39.685v14.686l-70.826 8.972c-3.352.365-8.223-1.928-8.544-7.53v-49.881c.659-3.416 1.476-7.412 8.544-7.53l70.826 8.972zm15.53 55.899h14.468l-32.407 101.084-9.246-9.117c-1.699-1.674-4.09-2.447-6.446-2.065l-12.825 2.042 32.369-100.977c2.466 5.323 7.846 9.033 14.087 9.033zm83.129 89.901c-2.354-.381-4.748.392-6.446 2.065l-9.246 9.117-32.407-101.084h14.468c6.242 0 11.622-3.71 14.087-9.034l32.369 100.977zm52.727-172.084c3.356-.361 8.221 1.926 8.544 7.53v49.881c-.063 3.372-2.944 7.915-8.544 7.53l-70.826-8.972v-14.686h39.685c4.142 0 7.5-3.357 7.5-7.5s-3.358-7.5-7.5-7.5h-39.685v-17.312zm-85.827-1.71v68.361c0 .293-.238.531-.531.531h-49.498c-.292 0-.531-.238-.531-.531v-68.361c0-.293.238-.531.531-.531h49.498c.293 0 .531.238.531.531zm-50.029-15.531c-7.05 0-13.007 4.726-14.897 11.173l-69.575-8.813c-11.892-1.814-25.741 8.552-25.43 22.411v49.881c.047 12.236 11.176 24.338 25.43 22.411l54.716-6.931-32.017 99.878c-1.38 4.307-.446 8.926 2.499 12.357s7.37 5.056 11.835 4.345l12.423-1.979 8.955 8.831c3.221 3.175 7.766 4.428 12.156 3.346 4.391-1.079 7.836-4.295 9.217-8.601l21.938-68.428v117.141l-195.312-42.726 16.747-15.411c3.048-2.805 3.245-7.549.44-10.598-2.805-3.047-7.549-3.244-10.598-.439l-14.778 13.599v-352.484l203.5 44.52v106.517zm-216.251 220.563v-394.438c.018-5.877 5.835-13.012 14.101-11.35l219.399 47.997v15.355l-209.396-45.81c-2.219-.485-4.536.062-6.306 1.484-1.769 1.424-2.797 3.572-2.797 5.843v378.896c.019 3.248 2.273 6.587 5.897 7.327l212.603 46.511v15.354l-217.785-47.643c-9.106-1.992-15.716-10.204-15.716-19.526z"/><path d="m138.027 116.548-13.112-1.905-5.863-11.881c-2.39-4.842-7.229-7.85-12.628-7.85-5.4 0-10.239 3.008-12.628 7.85l-5.863 11.881-13.113 1.905c-5.343.777-9.699 4.45-11.367 9.586-1.668 5.135-.302 10.666 3.563 14.435l9.488 9.248-2.24 13.059c-.913 5.321 1.234 10.599 5.602 13.772 2.469 1.794 5.356 2.705 8.264 2.705 2.238 0 4.488-.54 6.566-1.633l11.728-6.165 11.727 6.165c4.78 2.513 10.462 2.103 14.831-1.071s6.516-8.452 5.603-13.773l-2.24-13.059 9.487-9.248c3.866-3.769 5.232-9.3 3.564-14.435-1.669-5.136-6.025-8.809-11.369-9.586zm-12.5 22.864c-3.319 3.237-4.833 7.896-4.049 12.464l2.007 11.701-10.509-5.525c-4.104-2.154-9.002-2.155-13.104.001l-10.509 5.524 2.007-11.701c.784-4.567-.73-9.227-4.05-12.464l-8.502-8.288 11.749-1.707c4.589-.667 8.553-3.547 10.603-7.703l5.254-10.646 5.254 10.646c2.051 4.157 6.015 7.037 10.603 7.703l11.749 1.707z"/><path d="m216.108 142.621-41.035-6.319c-4.096-.632-7.924 2.178-8.554 6.271s2.177 7.924 6.271 8.555l41.035 6.319c.387.06.771.088 1.151.088 3.638 0 6.833-2.652 7.403-6.359.631-4.094-2.177-7.924-6.271-8.555z"/><path d="m437.908 117.72c-.919-4.038-4.937-6.566-8.977-5.649l-133.913 30.469c-4.039.919-6.568 4.938-5.649 8.978.792 3.479 3.883 5.838 7.306 5.838.551 0 1.111-.062 1.671-.188l133.913-30.469c4.038-.921 6.568-4.94 5.649-8.979z"/><path d="m428.931 145.157-133.913 30.469c-4.039.919-6.568 4.938-5.649 8.978.792 3.479 3.883 5.838 7.306 5.838.551 0 1.111-.062 1.671-.188l133.913-30.469c4.039-.919 6.568-4.938 5.649-8.978-.919-4.038-4.937-6.568-8.977-5.65z"/></g></svg>