<svg id="Capa_1" enable-background="new 0 0 512 512" height="512" viewBox="0 0 512 512" width="512" xmlns="http://www.w3.org/2000/svg"><g><circle cx="62.565" cy="81.401" r="7.69"/><circle cx="450.856" cy="81.401" r="7.69"/><path d="m512 110.343v-57.88c0-13.642-11.099-24.74-24.74-24.74h-123.076c-4.142 0-7.5 3.357-7.5 7.5s3.358 7.5 7.5 7.5h123.076c5.371 0 9.74 4.369 9.74 9.74v57.88c0 5.371-4.37 9.74-9.74 9.74h-462.52c-5.371 0-9.74-4.369-9.74-9.74v-57.88c0-5.371 4.37-9.74 9.74-9.74h151.087v7.639c0 9.185 7.472 16.656 16.656 16.656h127.033c9.184 0 16.656-7.472 16.656-16.656v-31.259c0-9.185-7.472-16.656-16.656-16.656h-127.033c-9.184 0-16.656 7.472-16.656 16.656v8.62h-151.087c-13.641 0-24.74 11.098-24.74 24.74v57.88c0 12.649 9.544 23.105 21.808 24.56v265.317c-12.264 1.454-21.808 11.909-21.808 24.556v28.066c0 13.639 11.096 24.735 24.735 24.735h102.046v15.433c0 9.122 7.421 16.543 16.543 16.543h225.351c9.122 0 16.543-7.421 16.543-16.543v-15.433h102.046c13.639 0 24.735-11.097 24.735-24.735v-28.066c0-12.648-9.544-23.103-21.808-24.556v-265.317c12.265-1.455 21.809-11.911 21.809-24.56zm-319.517-92.897h127.033c.913 0 1.656.743 1.656 1.656v31.259c0 .913-.743 1.656-1.656 1.656h-127.033c-.913 0-1.656-.743-1.656-1.656v-31.258c.001-.914.743-1.657 1.656-1.657zm-92.004 382.595v-32.42h148.021v9.394c0 4.143 3.358 7.5 7.5 7.5s7.5-3.357 7.5-7.5v-102.793l24.725-24.725c2.857-2.857 6.658-4.432 10.7-4.432h9.865c4.142 0 7.5-3.357 7.5-7.5s-3.358-7.5-7.5-7.5h-9.865c-8.049 0-15.617 3.135-21.307 8.825l-65.162 65.162c-2.929 2.93-2.929 7.678 0 10.607 1.464 1.464 3.384 2.196 5.303 2.196s3.839-.732 5.303-2.196l25.438-25.438v63.399h-148.021v-217.537h34.216v27.439c-2.293 1.102-4.419 2.572-6.271 4.423-4.309 4.309-6.681 10.037-6.681 16.131 0 6.093 2.373 11.821 6.681 16.13l12.048 12.047-3.58 3.58c-2.929 2.93-2.929 7.678 0 10.607 1.464 1.464 3.384 2.196 5.303 2.196s3.839-.732 5.303-2.196l40.729-40.729c2.929-2.93 2.929-7.678 0-10.607-2.929-2.928-7.678-2.928-10.606 0l-4.888 4.888-12.048-12.047c-3.068-3.067-6.862-5.131-10.989-6.079v-25.784h212.609v25.784c-4.127.947-7.921 3.011-10.989 6.079l-12.048 12.047-4.888-4.888c-2.929-2.928-7.678-2.928-10.606 0-2.929 2.93-2.929 7.678 0 10.607l40.729 40.729c1.464 1.464 3.384 2.196 5.303 2.196s3.839-.732 5.303-2.196c2.929-2.93 2.929-7.678 0-10.607l-3.58-3.58 12.048-12.047c4.309-4.309 6.681-10.037 6.681-16.13 0-6.094-2.373-11.822-6.681-16.131-1.852-1.852-3.978-3.322-6.271-4.423v-27.439h34.216v217.538h-120.5c-4.142 0-7.5 3.357-7.5 7.5s3.358 7.5 7.5 7.5h120.5v32.42zm219.155 30.562h-127.268v-15.562h127.269v15.562zm-273.261-30.562 39.106-42.603v42.603zm419.403-264.958-39.255 43.338v-43.338zm-39.255 82.167 46.028 50.55-46.028 50.555zm-341.042 101.459-46.041-50.885 46.041-50.532zm0-140.247-39.264-43.379h39.264zm-2.631 19.446-46.04 50.531v-101.396zm-.016 140.233-46.024 50.139v-101.005zm68.247-137.495-12.048-12.048c-1.475-1.475-2.288-3.437-2.288-5.522 0-2.087.812-4.049 2.288-5.523 1.476-1.476 3.437-2.288 5.523-2.288s4.048.812 5.523 2.288l12.048 12.047zm198.796-11.046 12.048-12.047c1.476-1.476 3.437-2.288 5.523-2.288s4.048.812 5.523 2.288c1.475 1.475 2.288 3.437 2.288 5.523s-.812 4.048-2.288 5.522l-12.048 12.048zm76.646 168.186 39.033 42.255h-39.033zm2.272-19.646 46.398-50.962v101.191zm.359-140.28 46.04-50.828v101.391zm-414.152 254.983v-28.066c0-5.368 4.367-9.735 9.735-9.735h152.63v15.562h-16.977c-9.122 0-16.543 7.422-16.543 16.544v15.432h-119.11c-5.368-.002-9.735-4.369-9.735-9.737zm355.218 40.168c0 .851-.692 1.543-1.543 1.543h-225.35c-.851 0-1.543-.692-1.543-1.543v-15.433h48.084c4.142 0 7.5-3.357 7.5-7.5s-3.358-7.5-7.5-7.5h-31.02v-15.432c0-.852.692-1.544 1.543-1.544h191.222c.851 0 1.543.692 1.543 1.544v15.432h-127.297c-4.142 0-7.5 3.357-7.5 7.5s3.358 7.5 7.5 7.5h144.361zm126.782-68.235v28.066c0 5.368-4.367 9.735-9.735 9.735h-119.11v-15.432c0-9.122-7.421-16.544-16.543-16.544h-16.977v-15.562h152.63c5.368.002 9.735 4.369 9.735 9.737z"/></g></svg>