<svg id="Capa_1" enable-background="new 0 0 512.002 512.002" height="512" viewBox="0 0 512.002 512.002" width="512" xmlns="http://www.w3.org/2000/svg"><g><circle cx="256.001" cy="303.137" r="7.69"/><path d="m115.361 391.423c-23.159 0-42 18.841-42 42 0 23.165 18.841 42.011 42 42.011 23.165 0 42.01-18.846 42.01-42.011 0-23.159-18.846-42-42.01-42zm0 69.011c-14.888 0-27-12.117-27-27.011 0-14.888 12.112-27 27-27 14.894 0 27.01 12.112 27.01 27 0 14.894-12.117 27.011-27.01 27.011z"/><path d="m396.641 391.423c-23.164 0-42.01 18.841-42.01 42 0 23.165 18.846 42.011 42.01 42.011 23.159 0 42-18.846 42-42.011 0-23.159-18.841-42-42-42zm0 69.011c-14.894 0-27.01-12.117-27.01-27.011 0-14.888 12.116-27 27.01-27 14.888 0 27 12.112 27 27 0 14.894-12.113 27.011-27 27.011z"/><path d="m503.522 202.539c-48.738 5.436-196.651 28.972-243.132 27.869l-34.481-61.935c32.914 1.863 69.195.564 102.841-3.924l176.73-23.27c4.106-.54 6.997-4.308 6.456-8.415-.541-4.106-4.299-7.003-8.415-6.456l-141.603 18.644c.078-6.827-.566-13.649-1.963-20.374l-6.543-31.512c-1.089-5.203-5.186-9.091-10.438-9.904-5.25-.814-10.325 1.651-12.955 6.312l-35.266 63.341c-25.784 1.842-51.732 1.842-77.51-.009l-35.279-63.369c-2.61-4.625-7.688-7.092-12.937-6.275-5.253.814-9.35 4.703-10.439 9.916-2.555 13.753-9.017 37.57-8.527 51.871l-141.581-18.64c-4.107-.539-7.874 2.351-8.415 6.456-.541 4.107 2.35 7.875 6.457 8.415l144.955 19.086c1.4 7.945 3.813 15.742 7.259 23.24l53.784 117.019-42.74 76.778c-.946 1.113-1.845 2.301-4.588.837-14.419-13.037-33.09-19.825-52.56-19.122-19.015.684-36.887 8.616-50.323 22.338-13.432 13.717-20.996 31.75-21.297 50.781-.312 20.097 7.277 39.046 21.367 53.356 14.089 14.309 32.905 22.189 52.982 22.189 40.369 0 73.328-32.337 74.336-72.468 1.636-2.969 36.722-64.361 37.507-65.728 8.59-14.268 53.308-10.858 57.594-.001.834 1.453 35.402 61.906 37.507 65.726 1.005 40.135 33.965 72.471 74.336 72.471 33.684 0 63.238-22.716 71.873-55.239 1.062-4.004-1.321-8.111-5.324-9.174-4.009-1.06-8.111 1.321-9.174 5.324-6.892 25.959-30.484 44.089-57.375 44.089-32.73 0-59.359-26.629-59.359-59.36 0-2.214 0-2.214-8.839-17.764-3.822-6.723-8.58-15.051-13.203-23.127l11.714-11.714 2.166 3.886c2.692 4.834 7.371 8.124 12.836 9.027 5.422.897 10.854-.694 14.916-4.364 11.507-10.405 26.435-15.812 41.96-15.259 25.352.911 47.938 18.679 54.926 43.206 1.135 3.983 5.287 6.292 9.268 5.158 3.984-1.135 6.293-5.284 5.158-9.268-4.215-14.794-13.215-28.268-25.343-37.939-12.53-9.992-27.562-15.576-43.468-16.147-19.473-.698-38.142 6.085-52.56 19.121-.89.805-1.894.778-2.411.693-.546-.09-1.555-.409-2.179-1.53l-42.739-76.774 27.451-59.726c2.623-.301 176.108-23.188 178.545-23.494 4.106-.54 6.997-4.308 6.456-8.415-.54-4.104-4.298-6.994-8.414-6.453zm-163.502-100.09 5.249 25.281c1.324 6.37 1.856 12.84 1.607 19.304 0 0-29.402 3.809-34.074 4.301zm-155.954 312.32c-9.346 16.435-9.346 16.435-9.346 18.654 0 32.731-26.629 59.36-59.36 59.36-16.026 0-31.046-6.291-42.294-17.714-11.248-11.424-17.306-26.553-17.057-42.597.24-15.171 6.283-29.562 17.016-40.522 10.733-10.961 24.99-17.297 40.147-17.842 14.196-.666 30.816 4.898 41.959 15.26 4.059 3.669 9.496 5.26 14.913 4.363 5.465-.902 10.144-4.193 12.839-9.03l3.317-5.958 11.732 11.737c-4.778 8.35-9.804 17.146-13.866 24.289zm30.395-53.098c-.06.095-.118.19-.174.287 0 0-3.613 6.29-8.627 15.036l-11.873-11.878 26.496-47.597 11.055 24.054c.954 2.071 2.127 4.009 3.469 5.808-8.319 1.891-15.732 7.031-20.346 14.29zm83.08 0c-5.455-8.582-14.394-14.036-24.528-14.966-9.627-.809-23.126-.322-28.047-11.403l-72.6-157.959c-12.685-25.681-5.466-51.639-.382-74.894l147.381 264.745-11.852 11.852c-5.611-9.793-9.797-17.084-9.797-17.084-.057-.099-.114-.196-.175-.291zm-7.099-77.284-21.771-39.105c13.638-.311 27.295-1.114 40.857-2.42z"/><path d="m153.19 236.657c3.707 0 6.93-2.748 7.427-6.521.541-4.107-2.35-7.875-6.457-8.415l-145.68-19.182c-4.107-.543-7.874 2.351-8.415 6.456-.541 4.107 2.35 7.875 6.457 8.415l145.68 19.182c.332.043.662.065.988.065z"/><path d="m193.867 40.167c1.464 1.464 3.384 2.196 5.303 2.196s3.839-.732 5.303-2.196l6.269-6.269 6.269 6.269c1.464 1.464 3.384 2.196 5.303 2.196s3.839-.732 5.303-2.196c2.929-2.93 2.929-7.678 0-10.607l-6.269-6.269 6.269-6.269c2.929-2.93 2.929-7.678 0-10.607-2.929-2.928-7.678-2.928-10.606 0l-6.269 6.269-6.269-6.269c-2.929-2.928-7.678-2.928-10.606 0-2.929 2.93-2.929 7.678 0 10.607l6.269 6.269-6.269 6.269c-2.929 2.929-2.929 7.677 0 10.607z"/><circle cx="280.221" cy="72.13" r="7.69"/></g></svg>