<svg id="Capa_1" enable-background="new 0 0 512 512" height="512" viewBox="0 0 512 512" width="512" xmlns="http://www.w3.org/2000/svg"><g><path d="m452.796 321.989-10.661-159.321c-2.181-32.584-29.47-58.108-62.127-58.108h-16.98v-35.776c10.487-3.179 18.144-12.931 18.144-24.442v-30.309c-.001-7.738-6.296-14.033-14.034-14.033h-23.221c-7.738 0-14.033 6.295-14.033 14.033v30.309c0 11.511 7.657 21.263 18.144 24.442v35.775h-22.615l-16.184-40.996c-2.762-6.996-9.406-11.517-16.928-11.517h-74.458c-1.638-.062-5.43 1.174-6.676 4.081l-24.806 48.432h-22.39v-35.775c10.487-3.179 18.144-12.931 18.144-24.442v-30.309c-.001-7.738-6.296-14.033-14.034-14.033h-23.221c-7.738 0-14.033 6.295-14.033 14.033v30.309c0 11.511 7.657 21.263 18.144 24.442v35.775h-16.218c-32.502 0-59.782 25.395-62.106 57.813l-11.442 159.582c-.466 21.321 17.41 39.583 39.032 39.588 12.946 0 24.442-6.333 31.551-16.064 7.109 9.731 18.604 16.064 31.552 16.064 12.946 0 24.442-6.333 31.551-16.064 8.004 11.069 23.153 18.209 38.198 15.487v100.006h-33.098c-19.234-.097-35.259 16.579-34.363 36.167 0 8.195 6.667 14.862 14.862 14.862h155.018c8.195 0 14.862-6.667 14.862-14.862 1.042-19.054-14.802-36.243-34.363-36.167h-40.578c-.006 0-.013-.001-.019-.001h-27.32v-105.998c3.831-2.562 7.19-5.778 9.905-9.494 2.717 3.72 6.08 6.938 9.915 9.501v77.845c0 4.143 3.357 7.5 7.5 7.5s7.5-3.357 7.5-7.5v-71.857c13.445 2.796 30.383-4.101 38.188-15.489 7.109 9.731 18.604 16.064 31.552 16.064 12.946 0 24.443-6.334 31.552-16.065 7.111 9.731 18.61 16.065 31.561 16.065 21.042.098 39.479-17.824 39.033-39.553zm-107.912-277.647v-29.342h21.287v29.342c0 5.811-4.728 10.538-10.539 10.538h-.209c-5.812 0-10.539-4.728-10.539-10.538zm-199.057 0v-29.342h21.287v29.342c0 5.811-4.728 10.538-10.539 10.538h-.209c-5.811 0-10.539-4.728-10.539-10.538zm187.543 450.992v1.666h-154.742c-.914-10.512 8.064-21.095 19.363-21.029h116.016c10.677 0 19.363 8.686 19.363 19.363zm-38.094-426.263 14.01 35.488h-65.611l-14.808-37.513h63.434c1.322.001 2.49.796 2.975 2.025zm-78.319 8.658 10.591 26.83h-24.334zm196.804 268.813c-13.268 0-24.062-10.789-24.062-24.052v-35.947c0-4.143-3.357-7.5-7.5-7.5s-7.5 3.357-7.5 7.5v35.947c0 13.263-10.789 24.052-24.051 24.052-13.263 0-24.052-10.789-24.052-24.052v-84.41c0-4.143-3.357-7.5-7.5-7.5s-7.5 3.357-7.5 7.5v84.41c0 13.263-10.79 24.052-24.052 24.052s-24.051-10.789-24.051-24.052v-84.41c0-4.143-3.357-7.5-7.5-7.5s-7.5 3.357-7.5 7.5v84.41c0 13.263-10.79 24.052-24.052 24.052s-24.052-10.789-24.052-24.052v-84.41c0-4.143-3.357-7.5-7.5-7.5s-7.5 3.357-7.5 7.5v84.41c0 13.263-10.789 24.052-24.051 24.052s-24.052-10.789-24.052-24.052v-87.706c0-4.143-3.357-7.5-7.5-7.5s-7.5 3.357-7.5 7.5v87.706c0 13.263-10.789 24.052-24.051 24.052-13.179 0-23.916-10.653-24.051-23.801l11.421-159.296c1.765-24.608 22.474-43.886 47.146-43.886h247.255c24.79 0 45.505 19.375 47.16 44.11l10.644 159.055c-.124 13.156-10.865 23.818-24.049 23.818z"/><path d="m382.199 230.58c-4.143 0-7.5 3.357-7.5 7.5v13.185c0 4.143 3.357 7.5 7.5 7.5s7.5-3.357 7.5-7.5v-13.185c0-4.142-3.357-7.5-7.5-7.5z"/></g></svg>