<svg id="Capa_1" enable-background="new 0 0 512 512" height="512" viewBox="0 0 512 512" width="512" xmlns="http://www.w3.org/2000/svg"><g><path d="m405.515 471.735-54.257-293.284v-51.805c10.742-18.552 10.651-41.115-.201-59.542l-5.172-53.473c-.751-7.772-7.205-13.631-15.012-13.631h-29.388c-6.865 0-12.868 4.64-14.596 11.281-3.137 13.968-8.15 30.417-15.985 43.104-2.067 3.59-.834 8.176 2.756 10.243 3.587 2.066 8.175.834 10.242-2.755 8.028-12.577 14.266-32.358 17.583-46.873h29.388c.043 0 .078.032.083.074l5.337 55.184c.112 1.166.496 2.288 1.121 3.278 8.384 13.297 9.064 29.728 1.979 43.563h-32.964c-42.513-26.858-72.418-58.741-81.318-105.818-1.73-6.642-7.733-11.281-14.596-11.281h-29.389c-7.807 0-14.261 5.859-15.012 13.631l-5.173 53.473c-10.853 18.428-10.943 40.99-.2 59.542v51.805l-54.257 293.286c-1.06 5.737.473 11.599 4.204 16.082 3.729 4.481 9.211 7.051 15.041 7.051h32.235c4.143 0 7.5-3.357 7.5-7.5s-3.357-7.5-7.5-7.5h-32.234c-1.863 0-3-1.031-3.512-1.646-.513-.616-1.322-1.925-.983-3.761l53.245-287.813h30.28l-2.559 18.216c-.576 4.102 2.281 7.894 6.384 8.47.354.05.705.074 1.053.074 3.679 0 6.891-2.71 7.417-6.458l2.852-20.302h72.187l2.853 20.303c.526 3.748 3.737 6.457 7.417 6.457.348 0 .7-.024 1.054-.074 4.102-.576 6.96-4.368 6.383-8.471l-2.56-18.215h30.279l53.245 287.812c.339 1.838-.471 3.146-.983 3.763-.512.614-1.648 1.646-3.512 1.646h-61.645l-15.865-146.517c-.445-4.118-4.141-7.102-8.264-6.648-4.118.445-7.095 4.146-6.648 8.264l16.996 156.965c.19 1.765-.635 2.979-1.144 3.547s-1.627 1.518-3.403 1.518h-100.594c-1.774 0-2.894-.951-3.402-1.519-.51-.566-1.335-1.782-1.145-3.547l16.996-156.965c.446-4.118-2.53-7.818-6.648-8.264-4.132-.455-7.817 2.53-8.264 6.648l-16.996 156.967c-.598 5.518 1.187 11.052 4.895 15.182 3.707 4.13 9.016 6.498 14.564 6.498h100.595c5.55 0 10.859-2.369 14.566-6.499 2.681-2.988 4.338-6.712 4.834-10.631h60.573c5.83 0 11.312-2.569 15.041-7.051 3.73-4.483 5.263-10.344 4.203-16.084zm-69.257-300.088h-160.516v-39.547h160.517v39.547zm-61.62-58.67 5.826 4.123h-48.93c8.008-5.497 16.737-12.08 24.454-19.533 5.786 5.554 12.009 10.709 18.65 15.41zm-100.053-39.441c.625-.99 1.009-2.112 1.121-3.278l5.338-55.184c.005-.042.04-.074.082-.074h29.389c5.22 25.337 17.477 51.669 35.162 71.67-8.889 9.143-29.582 22.85-40.107 30.429h-32.964c-7.085-13.836-6.404-30.266 1.979-43.563z"/></g></svg>