<svg id="Capa_1" enable-background="new 0 0 512.311 512.311" height="512" viewBox="0 0 512.311 512.311" width="512" xmlns="http://www.w3.org/2000/svg"><g><path d="m316.41 202.283c1.464 1.464 3.384 2.196 5.303 2.196s3.839-.732 5.303-2.196l6.269-6.269 6.269 6.269c1.464 1.464 3.384 2.196 5.303 2.196s3.839-.732 5.303-2.196c2.929-2.93 2.929-7.678 0-10.607l-6.269-6.269 6.269-6.269c2.929-2.93 2.929-7.678 0-10.607-2.929-2.928-7.678-2.928-10.606 0l-6.269 6.269-6.269-6.269c-2.929-2.928-7.678-2.928-10.606 0-2.929 2.93-2.929 7.678 0 10.607l6.269 6.269-6.269 6.269c-2.929 2.93-2.929 7.678 0 10.607z"/><path d="m263.808 144.257c4.247 0 7.69-3.443 7.69-7.69s-3.443-7.689-7.69-7.689-7.69 3.443-7.69 7.689 3.443 7.69 7.69 7.69z"/><path d="m422.111 112.731c4.247 0 7.69-3.443 7.69-7.689 0-4.247-3.443-7.69-7.69-7.69s-7.69 3.443-7.69 7.69c0 4.246 3.443 7.689 7.69 7.689z"/><path d="m512.026 423.597c.688-9.542-7.852-33.771-16.825-42.353-20.044-23.341-53.623-55.03-99.759-73.449-7.286-2.91-15.54-.805-20.541 5.234-6.237 7.534-19.533 20.395-38.497 21.876-16.617 1.312-34.47-6.362-53.051-22.77-44.299-39.114-138.676-195.475-139.625-197.049-.097-.161-.2-.319-.309-.473-9.677-13.636-21.917-24.804-36.381-33.191l-27.203-15.778c-9.562-5.548-21.926-2.732-28.146 6.406l-24.215 35.582c-16.826 24.722-26.189 53.348-27.25 83.118.196 3.617-.895 17.88.492 22.101l33.528 81.111c1.469 3.564 2.214 7.317 2.214 11.152v124.63c0 10.896 8.864 19.761 19.76 19.761h27.05c10.896 0 19.76-8.864 19.76-19.761v-10.348c0-4.143-3.358-7.5-7.5-7.5s-7.5 3.357-7.5 7.5v10.348c0 2.625-2.135 4.761-4.76 4.761h-27.05c-2.625 0-4.76-2.136-4.76-4.761v-124.63c0-5.806-1.125-11.481-3.349-16.875l-25.315-61.243 59.79 33.431c9.065 5.069 17.591 11.152 25.395 18.053l-12.049 17.352c-5.17 7.435-7.902 16.153-7.902 25.213v62.893c0 4.143 3.358 7.5 7.5 7.5s7.5-3.357 7.5-7.5v-62.893c0-5.983 1.804-11.74 5.221-16.653l10.593-15.256c4.215 4.585 8.145 9.427 11.727 14.504l85.042 120.545c11.186 15.856 29.45 25.322 48.855 25.322h230.115c14.519-.674 18.975-13.302 17.445-25.91zm-14.908 8.374c0 1.398-1.138 2.536-2.537 2.536h-230.115c-14.537 0-28.219-7.091-36.598-18.969l-85.042-120.545c-13.104-18.653-32.019-36.05-52.922-47.658l-74.787-41.816c.093-9.189-.256-7.754.337-18.695l81.823 45.607c18.906 10.572 35.499 25.515 47.985 43.214l85.042 120.544c11.187 15.856 29.45 25.323 48.855 25.323h122.924c4.142 0 7.5-3.357 7.5-7.5s-3.358-7.5-7.5-7.5h-122.923c-14.537 0-28.218-7.092-36.598-18.97l-85.042-120.544c-13.771-19.52-32.07-36-52.931-47.664l-87.147-48.576c3.547-19.495 11.12-38.068 22.431-54.687l24.216-35.581c1.816-2.669 5.428-3.49 8.22-1.871l27.204 15.779c12.512 7.257 23.114 16.903 31.514 28.672 5.676 9.416 96.852 160.094 142.398 200.31 21.743 19.197 43.331 28.116 64.148 26.479 24.476-1.912 41.132-17.902 48.882-27.264.833-1.006 2.21-1.357 3.425-.87 43.311 17.291 74.991 47.225 93.941 69.291 3.98 4.635 7.117 9.882 9.351 15.496h-55.753c-4.142 0-7.5 3.357-7.5 7.5s3.358 7.5 7.5 7.5h59.411c.204.449.338 7.719.288 10.459z"/></g></svg>