<svg id="Capa_1" enable-background="new 0 0 512.005 512.005" height="512" viewBox="0 0 512.005 512.005" width="512" xmlns="http://www.w3.org/2000/svg"><g><path d="m295.916 383.638 54.263 21.279c.899.353 1.825.52 2.736.52 2.995 0 5.825-1.807 6.984-4.764 1.512-3.856-.388-8.208-4.244-9.721l-54.263-21.279c-3.858-1.513-8.208.388-9.721 4.244s.389 8.208 4.245 9.721z"/><path d="m220.326 373.917c-1.513-3.856-5.865-5.758-9.721-4.244l-54.263 21.279c-3.856 1.513-5.756 5.864-4.244 9.721 1.16 2.957 3.989 4.764 6.984 4.764.911 0 1.837-.167 2.736-.52l54.263-21.279c3.857-1.513 5.757-5.864 4.245-9.721z"/><path d="m511.736 428.13-31.873-200.627c-.65-4.091-4.496-6.883-8.584-6.23-4.091.65-6.88 4.493-6.23 8.584l31.883 200.688c.443 2.645-1.337 5.197-3.968 5.691l-26.268 4.934-4.015-22.079c-.741-4.076-4.644-6.781-8.721-6.037-4.075.741-6.778 4.646-6.037 8.721l4.031 22.165-9.937 1.867c-1.437.039-4.385.218-5.758-3.912l-40.954-257.208 6.209-103.004 14.106 7.799c18.896 10.443 31.679 28.669 35.071 50.002l8.87 55.832c.587 3.692 3.774 6.324 7.398 6.324.391 0 .788-.03 1.186-.094 4.091-.65 6.88-4.493 6.23-8.584l-8.87-55.833c-7.804-44.227-36.767-58.529-68.766-74.99l-81.283-22.448-4.233-24.701c-.606-3-3.159-6.274-7.419-6.232h-95.613c-2.939-.003-6.816 2.136-7.42 6.232l-5.145 30.663v51.571c0 17.22 4.064 34.45 11.752 49.826l41.119 82.305v40.613l-64.694-73.972c-.516-.589-.8-1.345-.8-2.129v-32.43c0-4.143-3.358-7.5-7.5-7.5h-14.185c-1.792 0-3.25-1.457-3.25-3.249v-84.81l11.047-3.05c3.992-1.103 6.335-5.233 5.232-9.227-1.103-3.993-5.237-6.335-9.226-5.232l-49.865 13.77c-40.183 19.292-62.389 37.768-68.765 74.991l-46.219 290.938c-1.782 10.643 5.393 20.921 15.992 22.91l50.933 9.568c9.333 2.123 21.679-4.894 23.338-16.19l30.327-190.471.842 13.963c1.416 23.499 1.102 47.304-.933 70.755l-10.238 117.957c-.72 8.299 3.86 16.256 11.397 19.802l50.46 23.738c4.46 2.099 9.25 3.147 14.04 3.147 4.762 0 9.525-1.037 13.964-3.111l58.778-27.468c2.327-1.117 4.357-3.634 4.325-6.795v-173.12l75.976-86.871c2.914-3.326 4.519-7.593 4.519-12.016v-24.93h6.685c10.063 0 18.25-8.187 18.25-18.249v-80.667l17.964 4.961-11.571 191.965c-1.46 24.229-1.137 48.774.962 72.954l10.245 118.042c.177 2.047-.947 4.021-2.797 4.912l-48.989 23.601c-4.831 2.328-10.398 2.383-15.275.157l-27.834-12.711c-3.768-1.718-8.217-.061-9.938 3.707s-.061 8.217 3.707 9.938l27.834 12.711c4.368 1.994 9.036 2.99 13.703 2.99 4.891 0 9.78-1.095 14.313-3.278l48.99-23.601c7.43-3.58 11.943-11.506 11.23-19.723l-10.245-118.042c-2.035-23.451-2.349-47.256-.933-70.755l.842-13.963 30.327 190.471c1.768 9.944 11.75 18.394 23.332 16.191l50.939-9.569c10.6-1.989 17.775-12.267 16.003-22.848zm-232.74-263.358-14.435-35.221s20.688-27.38 20.846-27.657l15.961-27.968v23.298c0 14.903-3.517 29.814-10.17 43.122zm-22.996 46.033-13.687-27.397 13.808-34.897 13.97 34.087zm-43.061-177.986 33.237 37.083-11.965 14.971-23.235-40.607zm88.083 11.453-23.175 40.609-12.018-14.986 33.23-37.076zm-45.023 14.116-31.039-34.631h62.078zm.01 23.238 13.379 16.684-13.379 17.684-13.334-17.684zm-45.381 15.598v-23.362l16.043 28.039c.156.273 20.803 27.691 20.803 27.691l-14.164 35.798-12.513-25.047c-6.652-13.305-10.169-28.216-10.169-43.119zm-134.89 344.671c-.51 1.36-1.4 4.155-5.765 3.911l-9.931-1.866 4.03-22.165c.741-4.075-1.962-7.979-6.037-8.721-4.076-.746-7.98 1.962-8.721 6.037l-4.014 22.08-26.268-4.934c-2.63-.494-4.41-3.047-3.957-5.753l46.229-290.999c4.948-30.955 25.685-46.192 49.177-57.802l6.209 103.004zm118.307 44.652c-4.854 2.27-10.42 2.263-15.269-.019l-50.46-23.738c-1.877-.884-3.018-2.865-2.839-4.933l10.238-117.957c2.098-24.18 2.422-48.726.961-72.954l-11.57-191.965 17.964-4.96v80.668c0 10.062 8.187 18.249 18.25 18.249h6.685v24.93c0 4.423 1.605 8.689 4.514 12.01l75.98 86.877v168.345zm159.882-335.858c0 1.792-1.458 3.249-3.25 3.249h-14.185c-4.142 0-7.5 3.357-7.5 7.5v32.43c0 .784-.284 1.54-.805 2.135l-64.689 73.966v-40.613l41.118-82.304c7.689-15.378 11.753-32.608 11.753-49.828v-41.719l37.558 10.374z"/></g></svg>