<svg id="Capa_1" enable-background="new 0 0 512.002 512.002" height="512" viewBox="0 0 512.002 512.002" width="512" xmlns="http://www.w3.org/2000/svg"><g><path d="m414.2.41c-3.912-1.344-8.184.738-9.529 4.656l-15.103 43.966c-.642-.059-32.697-.099-32.697-.099l13.396-38.994c1.346-3.917-.738-8.184-4.656-9.529-3.917-1.348-8.184.739-9.529 4.656l-15.07 43.867c-11.494-.91-22.803 8.883-22.739 21.116 0 7.329 3.756 13.792 9.441 17.58l-27.694 80.593h-88.03l-56.067-163.157c-1.346-3.918-5.613-6.002-9.53-4.655-3.917 1.346-6.001 5.613-4.655 9.53l68.713 199.96c.025.073.072.21-.057.391s-.274.181-.352.181h-28.752c-2.017 0-3.813-1.282-4.469-3.189l-69.489-202.218c-1.347-3.918-5.614-6.002-9.53-4.655-3.917 1.346-6.001 5.613-4.655 9.53l54.392 158.282h-7.074c-10.102 0-18.32 8.219-18.32 18.32v307.14c0 10.102 8.218 18.32 18.32 18.32h231.08c10.102 0 18.32-8.219 18.32-18.32v-231.711c0-4.143-3.357-7.5-7.5-7.5s-7.5 3.357-7.5 7.5v231.711c0 1.831-1.489 3.32-3.32 3.32h-231.08c-1.831 0-3.32-1.489-3.32-3.32v-307.14c0-1.831 1.489-3.32 3.32-3.32h12.228l9.943 28.935c2.737 7.964 10.233 13.314 18.654 13.314h28.753c4.975 0 9.671-2.417 12.561-6.467 2.89-4.049 3.65-9.274 2.033-13.979l-7.492-21.803h77.719l-7.492 21.804c-1.616 4.704-.856 9.931 2.034 13.979 2.891 4.05 7.585 6.467 12.559 6.467h28.75c8.417 0 15.916-5.347 18.663-13.313l9.942-28.937h12.225c1.831 0 3.32 1.489 3.32 3.32v39.4c0 4.143 3.357 7.5 7.5 7.5s7.5-3.357 7.5-7.5v-39.4c0-10.102-8.219-18.32-18.32-18.32h-7.072l26.578-77.361c10.014-1.647 17.686-10.339 17.686-20.812 0-5.516-2.143-10.529-5.619-14.294l15.739-45.816c1.345-3.917-.739-8.184-4.657-9.529zm-79.006 206.867c-.659 1.911-2.46 3.195-4.48 3.195h-28.75c-.077 0-.221 0-.35-.182-.13-.181-.083-.317-.058-.391l40.801-118.734h32.729zm52.426-131.112c-.084 0-.722 0-1.891 0h-46.343c-3.372 0-6.115-2.744-6.115-6.116s2.743-6.116 6.115-6.116h48.233c2.472.021 5.549 1.74 6.116 6.116.001 3.372-2.743 6.116-6.115 6.116z"/><path d="m359.359 287.254v-34.983c0-7.271-5.916-13.188-13.188-13.188h-180.335c-7.271 0-13.187 5.916-13.187 13.188v34.983c0 7.271 5.916 13.188 13.187 13.188h180.336c7.271 0 13.187-5.916 13.187-13.188zm-15-1.812h-176.71v-31.358h176.711v31.358z"/><path d="m210.38 451.44h91.248c7.021 0 12.734-5.713 12.734-12.734v-110.913c0-7.005-5.699-12.703-12.704-12.703h-91.308c-7.005 0-12.704 5.698-12.704 12.703v110.912c0 7.022 5.712 12.735 12.734 12.735zm2.332-15c1.176-20.245 18.02-36.354 38.555-36.354h9.475c20.535 0 37.379 16.109 38.556 36.354zm43.292-51.355c-8.571 0-15.545-6.974-15.545-15.545s6.974-15.545 15.545-15.545 15.545 6.974 15.545 15.545-6.974 15.545-15.545 15.545zm-43.358-54.995h86.716v71.476c-5.431-5.646-12.08-10.106-19.525-12.954 4.194-5.231 6.711-11.861 6.711-19.072 0-16.843-13.702-30.545-30.545-30.545-16.842 0-30.545 13.702-30.545 30.545 0 7.211 2.517 13.841 6.711 19.072-7.445 2.848-14.093 7.308-19.524 12.954v-71.476z"/><path d="m226.08 480.846h126.818c4.143 0 7.5-3.357 7.5-7.5s-3.357-7.5-7.5-7.5h-126.818c-4.142 0-7.5 3.357-7.5 7.5s3.358 7.5 7.5 7.5z"/><path d="m160.149 465.846c-4.142 0-7.5 3.357-7.5 7.5s3.358 7.5 7.5 7.5h29.544c4.142 0 7.5-3.357 7.5-7.5s-3.358-7.5-7.5-7.5z"/></g></svg>