<svg id="Capa_1" enable-background="new 0 0 512.002 512.002" height="512" viewBox="0 0 512.002 512.002" width="512" xmlns="http://www.w3.org/2000/svg"><g><path d="m394.597 200.89-324.681-104.916c-10.723-3.462-22.265 2.439-25.73 13.164l-8.215 25.421c-3.214 9.232 2.014 22.406 13.164 25.731l30.862 9.973-77.318 239.273c-3.464 10.723 2.441 22.266 13.164 25.731l224.061 72.401c8.556 3.282 22.721-2 25.731-13.163l18.402-56.949c1.273-3.941-.889-8.169-4.831-9.442-3.935-1.273-8.167.889-9.442 4.831l-18.402 56.949c-.716 1.227-1.759 4.34-6.846 3.501l-224.061-72.401c-2.854-.922-4.425-3.993-3.503-6.847l60.361-186.799 234.41 75.746-31.054 96.099c-1.273 3.941.889 8.169 4.831 9.442 3.938 1.277 8.169-.888 9.442-4.831l48.009-148.572 30.863 9.973c2.081.672 4.19.991 6.269.991 8.628 0 16.669-5.513 19.462-14.155l8.215-25.422c3.465-10.721-2.44-22.263-13.163-25.729zm-78.261 87.932-234.41-75.746 12.343-38.2 234.41 75.746zm77.152-66.814-8.215 25.422c-.922 2.854-3.991 4.425-6.846 3.503l-324.68-104.916c-1.227-.715-4.341-1.759-3.503-6.845l8.215-25.422c.922-2.854 3.994-4.423 6.846-3.503l324.68 104.916c2.853.922 4.424 3.994 3.503 6.845z"/><path d="m502.815 222.5c4.143 0 7.5-3.357 7.5-7.5v-46.636c0-9.157-7.45-16.607-16.607-16.607h-19.289c-9.157 0-16.607 7.45-16.607 16.607v327.03c0 9.157 7.45 16.607 16.607 16.607h19.289c9.157 0 16.607-7.45 16.607-16.607v-244.251c0-4.143-3.357-7.5-7.5-7.5s-7.5 3.357-7.5 7.5v244.252c0 .887-.721 1.607-1.607 1.607h-19.289c-.887 0-1.607-.721-1.607-1.607v-272.895zm-30.004-54.135c0-.887.721-1.607 1.607-1.607h19.289c.887 0 1.607.721 1.607 1.607v39.135h-22.504v-39.135z"/><path d="m247.601 111.045c.789.265 1.591.39 2.38.39 3.137 0 6.062-1.983 7.111-5.123l14.66-43.825c1.314-3.928-.805-8.178-4.733-9.491-3.926-1.316-8.177.805-9.491 4.733l-14.66 43.825c-1.315 3.928.804 8.178 4.733 9.491z"/><path d="m273.449 33.773c.79.265 1.592.39 2.381.39 3.137 0 6.062-1.983 7.111-5.122l6.409-19.158c1.314-3.929-.805-8.179-4.732-9.492-3.929-1.315-8.178.805-9.492 4.732l-6.409 19.158c-1.315 3.928.804 8.178 4.732 9.492z"/><path d="m192.413 92.176h.045c4.143-.024 7.48-3.402 7.456-7.544l-.35-59.521c-.024-4.127-3.377-7.456-7.499-7.456-.015 0-.03 0-.045 0-4.143.024-7.48 3.402-7.456 7.544l.35 59.521c.025 4.127 3.377 7.456 7.499 7.456z"/><path d="m124.368 66.3c.906 3.34 3.931 5.536 7.232 5.536.651 0 1.312-.086 1.971-.265 3.997-1.085 6.357-5.206 5.271-9.203l-6.264-23.061c-1.085-3.998-5.207-6.355-9.203-5.271-3.997 1.085-6.357 5.206-5.271 9.203z"/><path d="m302.997 129.154c1.358 1.036 2.956 1.536 4.542 1.536 2.26 0 4.494-1.017 5.97-2.952l36.093-47.33c2.512-3.294 1.878-8-1.416-10.512-3.295-2.513-8-1.878-10.512 1.416l-36.093 47.33c-2.511 3.294-1.878 8 1.416 10.512z"/><path d="m368.359 151.032c1.607 0 3.226-.514 4.594-1.575l18.878-14.651c3.272-2.539 3.866-7.251 1.326-10.523-2.54-3.271-7.25-3.864-10.523-1.326l-18.878 14.651c-3.272 2.539-3.866 7.251-1.326 10.523 1.478 1.904 3.691 2.901 5.929 2.901z"/><path d="m415.681 36.506c-2.929-2.93-7.678-2.929-10.606-.001l-6.27 6.27-6.27-6.27c-2.928-2.928-7.677-2.929-10.606.001-2.929 2.929-2.929 7.678.001 10.606l6.269 6.269-6.269 6.269c-2.93 2.929-2.93 7.678-.001 10.606 1.465 1.465 3.384 2.197 5.304 2.197 1.919 0 3.839-.732 5.303-2.196l6.27-6.27 6.27 6.27c1.464 1.464 3.384 2.196 5.303 2.196s3.839-.732 5.304-2.197c2.929-2.929 2.929-7.678-.001-10.606l-6.269-6.269 6.269-6.269c2.928-2.928 2.928-7.677-.001-10.606z"/><circle cx="468.283" cy="102.221" r="7.69"/></g></svg>