<svg id="Capa_1" enable-background="new 0 0 512 512" height="512" viewBox="0 0 512 512" width="512" xmlns="http://www.w3.org/2000/svg"><g><path d="m490.03 440.826v-43.804c0-4.143-3.358-7.5-7.5-7.5s-7.5 3.357-7.5 7.5v43.668h-26.68v-253.175c2.945 1.155 8.345 2.497 13.628 2.453 4.602 0 9.001-.875 13.051-2.453v174.116c0 4.143 3.358 7.5 7.5 7.5s7.5-3.357 7.5-7.5v-185.083c5.018-6.199 8.032-14.084 8.032-22.662v-7.166c0-19.896-16.187-36.084-36.083-36.084h-.575c-19.896 0-36.083 16.188-36.083 36.084v7.166c0 6.432 1.699 12.471 4.661 17.706l-34.72 22.065c-3.729-3.041-8.281-4.843-12.994-5.245l-19.705-77.196c-2.905-11.008-12.886-18.696-24.271-18.696h-164.581c-11.385 0-21.366 7.688-24.279 18.725l-12.835 49.408c-1.042 4.009 1.364 8.104 5.374 9.145 4.007 1.046 8.104-1.363 9.145-5.373l12.828-49.38c1.169-4.431 5.187-7.524 9.769-7.524h164.58c4.582 0 8.599 3.094 9.753 7.465l19.643 76.953c-68.986 41.422-154.72 41.576-223.857.36-7.788-4.57-18.917-4.66-27.151 2.073l-36.171-22.803c2.953-5.229 4.647-11.26 4.647-17.682v-7.166c0-19.896-16.187-36.084-36.083-36.084h-.575c-19.896 0-36.083 16.188-36.083 36.084v7.166c0 8.576 3.013 16.459 8.028 22.657v264.496c-11.587 1.946-20.443 12.041-20.443 24.17v16.953c0 4.143 3.358 7.5 7.5 7.5h497c4.142 0 7.5-3.357 7.5-7.5v-16.953c0-12.659-9.644-23.107-21.97-24.384zm-77.122 24.384v9.453h-313.816v-9.453c0-11.936-8.577-21.903-19.89-24.072l52.356-201.477c38.181 20.173 80.733 30.779 123.902 30.779 43.361 0 86.05-10.689 124.347-31.019l51.581 202.026c-10.609 2.697-18.48 12.327-18.48 23.763zm-377.468-277.696c7.254 2.835 17.772 3.547 26.68.002v253.174h-26.68zm73.334 30.911c1.399 5.53 4.68 10.254 9.295 13.505l-40.949 157.579v-202.345l31.581 19.91c-.894 3.69-.885 7.565.073 11.351zm294.497-12.085 30.08-19.116v201.273l-40.029-156.781c8.497-5.605 12.268-15.888 9.949-25.376zm37.049-59.621c0-11.626 9.458-21.084 21.083-21.084h.575c11.625 0 21.083 9.458 21.083 21.084v7.166c0 11.625-9.458 21.083-21.083 21.083-5.124.063-12.073-2.151-16.451-7.254-3.233-3.706-5.208-8.536-5.208-13.829v-7.166zm-310.732 57.504c1.836-.258 3.306-.635 6.559.958 36.839 21.961 78.073 32.934 119.313 32.932 41.635-.003 83.276-11.192 120.352-33.556 4.047-2.44 9.309-1.169 11.808 2.818 2.934 5.967.123 11.232-6.897 14.395-38.129 22.04-81.334 33.669-125.264 33.669-43.692 0-86.719-11.519-124.705-33.347-4.282-1.886-10.256-6.931-6.482-13.907 1.186-1.987 3.073-3.394 5.316-3.962zm-102.176-57.504c0-11.626 9.458-21.084 21.083-21.084h.575c11.625 0 21.083 9.458 21.083 21.084v7.166c-.05 10.722-8.967 21.244-21.659 21.083-11.625 0-21.083-9.458-21.083-21.083v-7.166zm-12.412 327.944v-9.453c0-5.247 4.268-9.516 9.515-9.516h50.062c5.247 0 9.515 4.269 9.515 9.516v9.453zm482 0h-69.092v-9.453c0-5.247 4.268-9.516 9.515-9.516h50.062c5.247 0 9.515 4.269 9.515 9.516z"/><path d="m331.38 58.518c1.464 1.464 3.384 2.196 5.303 2.196s3.839-.732 5.303-2.196l6.386-6.386 6.386 6.386c1.464 1.464 3.384 2.196 5.303 2.196s3.839-.732 5.303-2.196c2.929-2.93 2.929-7.678 0-10.607l-6.385-6.385 6.385-6.385c2.929-2.93 2.929-7.678 0-10.607-2.929-2.928-7.678-2.928-10.606 0l-6.386 6.386-6.386-6.386c-2.929-2.928-7.678-2.928-10.606 0-2.929 2.93-2.929 7.678 0 10.607l6.385 6.385-6.385 6.385c-2.929 2.93-2.929 7.678 0 10.607z"/><path d="m418.55 98.624c4.29 0 7.767-3.477 7.767-7.767s-3.477-7.767-7.767-7.767-7.767 3.477-7.767 7.767c0 4.289 3.477 7.767 7.767 7.767z"/><path d="m294.198 141.264c0-4.29-3.477-7.767-7.767-7.767s-7.767 3.477-7.767 7.767 3.477 7.767 7.767 7.767 7.767-3.478 7.767-7.767z"/></g></svg>