<svg id="Capa_1" enable-background="new 0 0 512 512" height="512" viewBox="0 0 512 512" width="512" xmlns="http://www.w3.org/2000/svg"><g><path d="m127.132 330.18h-23.318c-18.016 0-35.261 6.693-48.559 18.848-13.297 12.153-21.512 28.727-23.131 46.669l-9.75 108.13c-.372 4.126 2.671 7.771 6.796 8.144.229.021.457.03.682.03 3.838 0 7.109-2.931 7.461-6.826l9.75-108.129c1.282-14.204 7.785-27.325 18.312-36.945 10.527-9.621 24.178-14.92 38.439-14.92h23.318c4.142 0 7.5-3.357 7.5-7.5s-3.358-7.501-7.5-7.501z"/><path d="m487.038 470.325c-2.716-3.886-7.167-6.206-11.908-6.206h-16.479c10.277-12.838 11.716-30.842 3.191-45.242-2.209-3.731-5.948-6.184-10.259-6.728-3.181-.401-6.315.287-8.978 1.898l-1.652-18.353c-1.804-19.94-11.727-38.052-27.411-50.283v-40.846c0-7.581-6.172-13.748-13.758-13.748h-49.214c-7.581 0-13.748 6.167-13.748 13.748v25.614h-55.578v-22.703c15.024-2.084 29.212-8.463 40.781-18.484 14.173-12.276 23.531-29.193 26.35-47.636.626-4.095-2.186-7.922-6.281-8.548-4.093-.62-7.921 2.187-8.547 6.28-2.281 14.924-9.861 28.62-21.343 38.565-11.595 10.044-26.44 15.575-41.8 15.575h-67.73c-35.224 0-63.88-28.657-63.88-63.881v-95.457h76.82c33.954.371 55.928-16.374 78.577-33.392l40.09 32.069v71.992c0 4.143 3.358 7.5 7.5 7.5h23.053c18.487 0 33.528-15.041 33.528-33.528v-23.54c0-18.487-15.041-33.528-33.528-33.528h-12.065l9.332-23.853c3.264-8.341 4.918-17.111 4.918-26.068.001-39.447-32.093-71.542-71.543-71.542h-175.535c-22.486 0-40.78 18.294-40.78 40.779v1.938c0 7.382 2.006 14.632 5.802 20.964l34.632 57.783h-11.355c-18.488 0-33.528 15.041-33.528 33.528v23.54c0 18.487 15.041 33.528 33.528 33.528h15.554v17.288c0 39.813 29.653 72.811 68.03 78.116v22.717h-19.999c-9.41 0-17.065 7.655-17.065 17.065v33.596c.187 10.192 9.761 19.676 21.792 16.398l35.371-10.195c2.494 5.304 7.874 8.994 14.112 8.994h3.003v108.461c0 4.143 3.358 7.5 7.5 7.5s7.5-3.357 7.5-7.5v-108.459h3.004c6.238 0 11.618-3.69 14.112-8.994l35.372 10.195c8.838 3.152 22.235-4.658 21.791-16.398-.113-6.46.229-30.31-.138-35.664h18.646v27.575c0 17.895 13.509 32.684 30.86 34.722v56.642h-23.36c-4.142 0-7.5 3.357-7.5 7.5s3.358 7.5 7.5 7.5h130.132l-5.725 15.642c-.49 1.339-1.778 2.239-3.205 2.239h-176.68c-1.426 0-2.714-.9-3.205-2.24l-5.725-15.641h29.305c4.142 0 7.5-3.357 7.5-7.5s-3.358-7.5-7.5-7.5h-29.982c-4.741 0-9.192 2.32-11.908 6.206-2.715 3.886-3.364 8.862-1.734 13.314l5.958 16.275c2.645 7.229 9.594 12.085 17.291 12.085h176.68c7.697 0 14.646-4.856 17.291-12.084l5.958-16.276c1.626-4.451.978-9.428-1.738-13.314zm-103.676-315.332v23.54c0 10.217-8.312 18.528-18.528 18.528h-15.553l.002-60.597h15.551c10.217.001 18.528 8.312 18.528 18.529zm-289.201-112.275v-1.938c0-14.215 11.565-25.779 25.78-25.779h175.535c31.179 0 56.544 25.365 56.544 56.544 0 7.079-1.308 14.011-3.887 20.604l-9.624 24.596-36.593-29.271v-47.305c0-4.143-3.358-7.5-7.5-7.5s-7.5 3.357-7.5 7.5v47.081c-20.156 15.627-44.188 32.861-71.302 31.643h-80.073l-37.712-62.922c-2.399-4.004-3.668-8.586-3.668-13.253zm29.631 154.344h-15.552c-10.217 0-18.528-8.312-18.528-18.528v-23.54c0-10.217 8.312-18.528 18.528-18.528h15.552zm321.303 259.757c-7.377 7.052-18.55 9.724-29.129 4.493l33.622-33.622c5.006 9.592 3.243 21.393-4.493 29.129zm-46.553-151.002v24.365h-46.72v-24.365zm-191.718 2.413h59.42v21.949h-5.807c-2.724-4.569-7.701-7.646-13.396-7.646h-21.007c-5.697 0-10.675 3.078-13.398 7.649h-5.811v-21.952zm-34.427 74.598c-.6-.293-1.3 1.128-2.638-1.984v-33.596c0-1.139.927-2.065 2.065-2.065h38.608v26.683zm75.244-2.389c0 .332-.27.602-.601.602h-21.007c-.332 0-.601-.27-.601-.602v-42.306c0-.331.27-.601.601-.601h21.007c.331 0 .601.27.601.601zm55.674.405c-.447.495.722 1.562-2.637 1.984l-38.036-10.963v-26.683h38.608c1.139 0 2.065.927 2.065 2.065zm48.507-8.089v-27.572h46.72v27.572c0 11.012-8.958 19.971-19.97 19.971h-6.79c-11.006 0-19.96-8.959-19.96-19.971zm30.86 34.721c19.75-1.98 33.109-21.327 30.86-41.17 7.041 8.686 11.44 19.331 12.472 30.737l2.726 30.281-24.325 24.325c-2.275 2.258-4.806 7.409-3.843 12.47h-17.891v-56.643z"/><path d="m116.948 413.591c-4.142 0-7.5 3.357-7.5 7.5v83.409c0 4.143 3.358 7.5 7.5 7.5s7.5-3.357 7.5-7.5v-83.409c0-4.143-3.358-7.5-7.5-7.5z"/><path d="m236.49 227.188h.094c12.946 0 23.479-10.532 23.479-23.479v-21.524c0-12.946-10.532-23.479-23.572-23.479-12.946 0-23.479 10.532-23.479 23.479v21.524c0 12.947 10.532 23.479 23.478 23.479zm-8.478-45.002c0-4.675 3.803-8.479 8.572-8.479 4.675 0 8.479 3.804 8.479 8.479v21.524c0 4.675-3.803 8.479-8.479 8.479h-.094c-4.675 0-8.479-3.804-8.479-8.479v-21.524z"/><path d="m291.022 156.221v21.085c0 4.143 3.358 7.5 7.5 7.5s7.5-3.357 7.5-7.5v-21.085c0-4.143-3.358-7.5-7.5-7.5s-7.5 3.357-7.5 7.5z"/><path d="m167.052 156.221v21.085c0 4.143 3.358 7.5 7.5 7.5s7.5-3.357 7.5-7.5v-21.085c0-4.143-3.358-7.5-7.5-7.5s-7.5 3.357-7.5 7.5z"/><path d="m210.809 252.533c5.725 8.682 15.343 13.865 25.728 13.865s20.003-5.184 25.728-13.865c2.28-3.458 1.325-8.11-2.133-10.391-3.458-2.279-8.11-1.326-10.39 2.133-2.941 4.46-7.877 7.123-13.206 7.123s-10.265-2.663-13.206-7.123c-2.28-3.458-6.932-4.412-10.39-2.133-3.456 2.281-4.411 6.933-2.131 10.391z"/></g></svg>