<svg id="Capa_1" enable-background="new 0 0 512.004 512.004" height="512" viewBox="0 0 512.004 512.004" width="512" xmlns="http://www.w3.org/2000/svg"><g><path d="m478.791 279.296c4.143 0 7.5-3.357 7.5-7.5v-200.256c-.082-12.245-9.901-22.968-23.2-23.201l-137.336.001v-10.475c0-6.056-4.294-11.171-10.21-12.162-7.063-1.186-12.631-7.238-13.238-14.39-.548-6.45-5.836-11.313-12.302-11.313h-155.695c-6.465 0-11.754 4.863-12.302 11.312-.607 7.153-6.175 13.206-13.238 14.392-5.917.992-10.211 6.107-10.211 12.162v38.388c0 6.031 4.305 11.146 10.235 12.163 6.65 1.142 11.886 6.376 13.026 13.027 1.018 5.931 6.134 10.235 12.164 10.235h97.045v385.321h-182.838c-4.125 0-7.48-3.351-7.48-7.47v-418.72c0-4.119 3.355-7.47 7.48-7.47h22.389c4.142 0 7.5-3.357 7.5-7.5s-3.358-7.5-7.5-7.5h-22.389c-12.396 0-22.48 10.08-22.48 22.47v418.72c0 12.39 10.084 22.47 22.48 22.47h414.9c11.72.231 23.397-10.462 23.2-23.2v-181.368c0-4.143-3.357-7.5-7.5-7.5h-.001s-.001 0-.001 0h-43.34l-35.002-83.984c-6.957-16.669-12.068-34.156-15.192-51.977l-17.665-100.631h42.773l5.03 83.758c.724 12.183 3.401 24.126 7.957 35.5l10.35 25.819c1.175 2.931 3.989 4.712 6.964 4.712.929 0 1.874-.174 2.788-.54 3.846-1.542 5.713-5.907 4.172-9.753l-10.35-25.817c-3.955-9.874-6.279-20.239-6.907-30.814l-4.977-82.864h37.701c3.702.171 7.635 2.485 8.2 8.254v200.202c0 4.141 3.357 7.499 7.5 7.499zm-365.232-205.196v-34.086c11.819-2.964 21.068-12.988 23.09-25.014h151.017c2.021 12.027 11.269 22.05 23.089 25.014v34.086c-11.101 2.759-19.821 11.479-22.578 22.579h-152.039c-2.758-11.101-11.479-19.821-22.579-22.579zm176.77 37.579c6.029 0 11.145-4.304 12.164-10.235 1.142-6.651 6.376-11.886 13.026-13.026 5.931-1.018 10.235-6.133 10.235-12.164v-12.914h23.975l-17.665 100.632c-3.137 17.848-8.249 35.337-15.196 51.983l-34.997 83.977h-35.84v-188.253zm-44.299 203.253h33.336v16.696h-33.336zm0 182.068v-150.372h34.865l34.5 150.372zm155.892 0 34.501-150.372h34.867v142.117c.013 3.395-3.058 7.991-8.2 8.255zm36.027-182.068h33.34v16.696h-33.34zm-51.347-93.211 36.346 87.208v29.354l-36.415 158.717h-20.375v-141.935h15.21c11.581 0 21.003-9.422 21.003-21.004v-13.244c0-11.581-9.422-21.003-21.003-21.003h-45.419c-11.582 0-21.004 9.422-21.004 21.003v13.244c0 11.582 9.422 21.004 21.004 21.004h15.209v141.935h-20.373l-36.414-158.72v-29.35l36.342-87.201c7.371-17.664 12.797-36.223 16.125-55.162l11.822-67.343 11.821 67.339c3.315 18.91 8.739 37.469 16.121 55.158zm-50.653 118.344c-3.311 0-6.004-2.693-6.004-6.004v-13.244c0-3.31 2.693-6.003 6.004-6.003h45.419c3.31 0 6.003 2.693 6.003 6.003v13.244c0 3.311-2.693 6.004-6.003 6.004z"/><path d="m207.025 270.117v-47.992c0-11.568-9.411-20.979-20.979-20.979h-17.236l-2.146-11.159c-1.593-8.283-8.872-14.295-17.307-14.295h-25.78c-8.435 0-15.713 6.012-17.307 14.296l-2.146 11.158h-17.237c-11.568 0-20.979 9.411-20.979 20.979v47.992c0 11.568 9.411 20.979 20.979 20.979h99.158c11.568.001 20.98-9.41 20.98-20.979zm-126.117 0v-47.992c0-3.297 2.683-5.979 5.979-5.979h23.431c3.596 0 6.686-2.553 7.365-6.084l3.315-17.241c.237-1.233 1.321-2.129 2.577-2.129h25.78c1.256 0 2.34.896 2.577 2.128l3.316 17.242c.679 3.531 3.769 6.084 7.365 6.084h23.432c3.297 0 5.979 2.683 5.979 5.979v47.992c0 3.297-2.682 5.979-5.979 5.979h-99.158c-3.297.001-5.979-2.682-5.979-5.979z"/><path d="m115.118 315.657c-4.142 0-7.5 3.357-7.5 7.5s3.358 7.5 7.5 7.5h44.792c4.142 0 7.5-3.357 7.5-7.5s-3.358-7.5-7.5-7.5z"/><path d="m274.951 212.592c.915.366 1.858.54 2.788.54 2.974 0 5.789-1.781 6.964-4.712l10.351-25.822c4.549-11.362 7.226-23.306 7.953-35.5.003-.049.006-.097.008-.146l.441-10.951c.167-4.139-3.054-7.629-7.192-7.796-4.141-.15-7.629 3.054-7.796 7.192l-.438 10.877c-.638 10.56-2.96 20.904-6.9 30.745l-10.35 25.82c-1.542 3.846.326 8.212 4.171 9.753z"/><ellipse cx="136.466" cy="242.123" rx="7.767" ry="7.767" transform="matrix(.987 -.16 .16 .987 -37.022 24.986)"/><path d="m183.062 38.815c-2.929-2.928-7.678-2.928-10.606 0l-6.386 6.386-6.386-6.386c-2.929-2.928-7.678-2.928-10.606 0-2.929 2.93-2.929 7.678 0 10.607l6.385 6.385-6.385 6.385c-2.929 2.93-2.929 7.678 0 10.607 1.464 1.464 3.384 2.196 5.303 2.196s3.839-.732 5.303-2.196l6.386-6.386 6.386 6.386c1.464 1.464 3.384 2.196 5.303 2.196s3.839-.732 5.303-2.196c2.929-2.93 2.929-7.678 0-10.607l-6.385-6.385 6.385-6.385c2.929-2.929 2.929-7.677 0-10.607z"/><path d="m282.517 38.815c-2.93-2.928-7.678-2.928-10.607 0l-6.385 6.385-6.385-6.385c-2.93-2.927-7.677-2.929-10.606 0-2.929 2.93-2.929 7.678 0 10.607l6.385 6.385-6.385 6.385c-2.929 2.93-2.929 7.678 0 10.607 1.464 1.464 3.384 2.196 5.303 2.196s3.839-.732 5.303-2.196l6.385-6.385 6.385 6.385c1.465 1.464 3.384 2.196 5.304 2.196 1.919 0 3.839-.732 5.304-2.196 2.929-2.93 2.929-7.678 0-10.607l-6.385-6.385 6.385-6.385c2.928-2.929 2.928-7.677-.001-10.607z"/></g></svg>