<svg id="Capa_1" enable-background="new 0 0 512 512" height="512" viewBox="0 0 512 512" width="512" xmlns="http://www.w3.org/2000/svg"><g><path d="m263.5 127.679v-24.549h7.022c5.663 0 10.613-3.056 13.327-7.596l47.006 5.955c8.953 1.413 20.354-6.448 20.13-17.741v-34.32c.143-9.346-8.908-19.236-20.131-17.741l-18.828 2.385c-4.109.521-7.019 4.273-6.498 8.383s4.286 7.024 8.383 6.498l18.829-2.385c1.383.103 2.583.044 3.245 2.86v34.32c-.277 1.362-.368 2.554-3.246 2.86l-46.686-5.914v-34.823-.296c0-8.563-6.968-15.531-15.531-15.531h-7.022v-22.544c0-4.143-3.357-7.5-7.5-7.5s-7.5 3.357-7.5 7.5v22.544h-7.022c-5.663 0-10.613 3.056-13.327 7.597l-47.004-5.954c-9.249-1.312-20.208 6.415-20.132 17.741v34.32c.043 9.276 8.627 19.32 20.131 17.741l47.005-5.955c2.714 4.54 7.664 7.596 13.327 7.596h7.022v24.545c-45.724 1.766-89.101 19.634-122.852 50.786-35.385 32.659-57.115 76.971-61.188 124.771-.352 4.127 2.709 7.758 6.836 8.109 4.12.361 7.758-2.708 8.109-6.836 3.754-44.06 23.789-84.908 56.416-115.021 32.815-30.286 75.494-46.964 120.179-46.964 97.73 0 177.24 79.51 177.24 177.24s-79.51 177.24-177.24 177.24c-44.101 0-86.365-16.299-119.009-45.895-32.417-29.391-52.756-69.435-57.269-112.754-.43-4.119-4.106-7.105-8.237-6.683-4.12.43-7.111 4.117-6.683 8.237 4.897 46.998 26.956 90.437 62.113 122.312 35.409 32.103 81.252 49.783 129.085 49.783 106.002 0 192.24-86.238 192.24-192.24 0-103.489-82.202-188.125-184.74-192.081zm-84.239-41.071c-1.379-.101-2.585-.045-3.246-2.86v-34.32c.604-1.455-.266-2.323 3.246-2.86l46.686 5.914v28.213zm61.685.992v-.296-41.433-.296c0-.293.238-.531.531-.531h29.045c.293 0 .531.238.531.531v.296 41.433.296c0 .293-.238.531-.531.531h-29.045c-.292 0-.531-.238-.531-.531z"/><path d="m398.221 348.728c-.755 3.712-1.667 7.436-2.712 11.068-1.145 3.98 1.154 8.136 5.135 9.281.693.199 1.391.294 2.077.294 3.258 0 6.258-2.141 7.204-5.429 1.154-4.014 2.162-8.127 2.995-12.227.825-4.06-1.797-8.019-5.855-8.844-4.059-.827-8.019 1.798-8.844 5.857z"/><path d="m148.811 438.62c3.103 2.801 6.353 5.512 9.661 8.06 1.363 1.051 2.974 1.559 4.57 1.559 2.248 0 4.471-1.006 5.947-2.924 2.528-3.281 1.917-7.99-1.365-10.518-3-2.312-5.948-4.771-8.763-7.312-3.074-2.774-7.816-2.534-10.593.542-2.775 3.076-2.532 7.818.543 10.593z"/><path d="m209.325 457.186c-3.583-1.22-7.164-2.601-10.646-4.104-3.802-1.642-8.217.11-9.858 3.913s.11 8.217 3.913 9.858c3.844 1.659 7.799 3.185 11.755 4.531.802.272 1.617.402 2.419.402 3.121 0 6.036-1.965 7.099-5.084 1.335-3.921-.761-8.181-4.682-9.516z"/><path d="m237.648 160.682c-4.16.478-8.344 1.125-12.436 1.926-4.065.795-6.716 4.735-5.921 8.8.7 3.579 3.838 6.062 7.353 6.062.477 0 .962-.045 1.447-.141 3.706-.725 7.497-1.312 11.267-1.744 4.115-.473 7.068-4.191 6.597-8.306-.472-4.116-4.183-7.07-8.307-6.597z"/><path d="m415.941 312.087c-.197-4.176-.562-8.393-1.087-12.533-.521-4.109-4.273-7.029-8.382-6.499-4.109.52-7.02 4.272-6.499 8.382.475 3.752.806 7.574.985 11.359.189 4.017 3.506 7.146 7.485 7.146.119 0 .24-.003.36-.009 4.139-.196 7.335-3.708 7.138-7.846z"/><path d="m399.89 249.533c-1.823-3.72-6.315-5.257-10.035-3.436-3.72 1.822-5.258 6.315-3.436 10.035 1.667 3.402 3.216 6.908 4.604 10.42 1.165 2.946 3.989 4.744 6.977 4.744.918 0 1.851-.17 2.756-.527 3.852-1.522 5.74-5.88 4.217-9.732-1.534-3.877-3.244-7.748-5.083-11.504z"/><path d="m338.347 182.475c-3.58-2.155-7.293-4.195-11.033-6.064-3.707-1.851-8.211-.347-10.062 3.358-1.851 3.706-.347 8.21 3.358 10.062 3.391 1.693 6.755 3.542 10 5.496 1.21.729 2.544 1.075 3.861 1.075 2.544 0 5.024-1.295 6.433-3.633 2.136-3.549.992-8.158-2.557-10.294z"/><path d="m369.609 207.022c-2.918-2.941-7.667-2.958-10.606-.04-2.94 2.918-2.958 7.666-.04 10.606 2.671 2.691 5.267 5.52 7.716 8.405 1.484 1.748 3.596 2.647 5.723 2.647 1.715 0 3.438-.585 4.849-1.781 3.158-2.681 3.546-7.413.866-10.571-2.701-3.182-5.563-6.299-8.508-9.266z"/><path d="m302.356 472.69c.756 0 1.526-.115 2.285-.357 3.98-1.272 7.956-2.719 11.817-4.299 3.834-1.569 5.669-5.949 4.101-9.782-1.569-3.835-5.95-5.667-9.782-4.101-3.497 1.432-7.097 2.741-10.702 3.893-3.945 1.261-6.122 5.481-4.861 9.428 1.018 3.186 3.967 5.218 7.142 5.218z"/><path d="m264.665 464.628c-2.873.172-5.782.292-8.665.256-3.797 0-7.632-.149-11.397-.443-4.166-.332-7.739 2.765-8.062 6.894-.322 4.13 2.765 7.739 6.894 8.062 4.17.326 8.378.509 12.612.488 3.155 0 6.354-.095 9.507-.281 4.135-.246 7.288-3.797 7.043-7.932s-3.773-7.279-7.932-7.044z"/><path d="m289.786 163.225c-4.08-.88-8.251-1.608-12.398-2.165-4.088-.536-7.879 2.33-8.431 6.437-.551 4.104 2.331 7.88 6.437 8.431 3.757.504 7.535 1.163 11.23 1.96.533.115 1.064.171 1.589.171 3.456 0 6.565-2.405 7.323-5.921.874-4.05-1.701-8.04-5.75-8.913z"/><path d="m351.056 429.331c-2.863 2.487-5.856 4.89-8.896 7.14-3.329 2.464-4.03 7.161-1.566 10.49 1.471 1.987 3.737 3.039 6.034 3.039 1.55 0 3.114-.479 4.456-1.473 3.354-2.481 6.654-5.131 9.811-7.874 3.127-2.717 3.459-7.453.742-10.58s-7.454-3.462-10.581-.742z"/><path d="m381.304 392.907c-1.916 3.27-3.985 6.503-6.151 9.612-2.368 3.398-1.533 8.073 1.866 10.44 1.306.91 2.801 1.348 4.28 1.348 2.37 0 4.703-1.121 6.16-3.214 2.39-3.428 4.672-6.995 6.786-10.601 2.095-3.574.896-8.169-2.678-10.264-3.574-2.091-8.168-.894-10.263 2.679z"/><path d="m144.593 204.848c-2.995 2.903-5.917 5.967-8.684 9.103-2.74 3.106-2.443 7.846.662 10.586 1.426 1.258 3.196 1.876 4.959 1.876 2.077 0 4.145-.858 5.627-2.538 2.51-2.846 5.16-5.623 7.877-8.257 2.974-2.883 3.048-7.631.164-10.605-2.882-2.973-7.63-3.049-10.605-.165z"/><path d="m123.591 243.541c-3.686-1.896-8.206-.443-10.099 3.241-1.912 3.719-3.699 7.561-5.312 11.418-1.598 3.822.206 8.215 4.027 9.812.945.395 1.926.582 2.89.582 2.934 0 5.721-1.733 6.923-4.609 1.461-3.495 3.08-6.976 4.812-10.346 1.895-3.683.442-8.204-3.241-10.098z"/><path d="m113.255 346.02c-.748-4.074-4.662-6.773-8.73-6.023-4.074.747-6.771 4.656-6.023 8.73.754 4.11 1.683 8.242 2.761 12.28.895 3.354 3.927 5.568 7.241 5.568.64 0 1.291-.083 1.938-.256 4.002-1.067 6.381-5.178 5.312-9.18-.976-3.656-1.816-7.397-2.499-11.119z"/><path d="m187.449 175.064c-3.763 1.789-7.51 3.755-11.138 5.845-3.589 2.066-4.823 6.652-2.756 10.242 1.388 2.41 3.911 3.758 6.506 3.758 1.27 0 2.557-.322 3.736-1.002 3.288-1.894 6.684-3.675 10.093-5.296 3.74-1.778 5.331-6.253 3.553-9.994s-6.254-5.33-9.994-3.553z"/><path d="m97.557 296.535c-.603 4.124-1.049 8.335-1.326 12.514-.274 4.133 2.854 7.705 6.987 7.979.169.012.337.017.504.017 3.915 0 7.213-3.04 7.476-7.004.251-3.786.655-7.602 1.201-11.338.6-4.099-2.238-7.906-6.337-8.505-4.087-.6-7.907 2.238-8.505 6.337z"/><path d="m119.107 387.633c-3.612 2.026-4.898 6.598-2.873 10.211 2.041 3.639 4.255 7.246 6.578 10.721 1.446 2.162 3.821 3.331 6.241 3.331 1.433 0 2.882-.41 4.163-1.267 3.442-2.303 4.367-6.961 2.064-10.404-2.107-3.149-4.113-6.42-5.963-9.719-2.026-3.612-6.594-4.899-10.21-2.873z"/><path d="m130.65 293.748c-.866 4.174-1.529 8.45-1.971 12.71-.428 4.12 2.566 7.806 6.687 8.233.263.027.523.041.782.041 3.795 0 7.051-2.87 7.451-6.728.39-3.758.975-7.529 1.738-11.21.842-4.056-1.765-8.025-5.82-8.867-4.052-.842-8.025 1.765-8.867 5.821z"/><path d="m256.267 432.767h-.267c-3.779 0-7.595-.189-11.341-.564-4.12-.421-7.797 2.595-8.209 6.717-.412 4.121 2.596 7.797 6.717 8.209 4.239.424 8.558.639 12.833.639h.267c4.143 0 7.5-3.357 7.5-7.5s-3.358-7.501-7.5-7.501z"/><path d="m294.902 197.796c-4.072-1.302-8.257-2.409-12.437-3.292-4.048-.85-8.032 1.737-8.888 5.79-.854 4.054 1.737 8.032 5.79 8.888 3.686.777 7.375 1.754 10.966 2.901.76.243 1.529.358 2.286.358 3.175 0 6.123-2.032 7.142-5.218 1.262-3.945-.913-8.166-4.859-9.427z"/><path d="m375.043 299.517c-4.119.437-7.104 4.129-6.668 8.248.396 3.736.607 7.551.629 11.336.023 4.128 3.377 7.457 7.499 7.457h.044c4.143-.024 7.48-3.401 7.457-7.543-.024-4.282-.265-8.599-.713-12.83-.435-4.119-4.119-7.101-8.248-6.668z"/><path d="m373.244 371.13c1.724-3.918 3.263-7.964 4.577-12.023 1.275-3.941-.886-8.17-4.826-9.445-3.94-1.272-8.169.885-9.445 4.826-1.158 3.58-2.517 7.147-4.036 10.604-1.668 3.792.055 8.218 3.846 9.885.982.433 2.007.637 3.016.637 2.883-.002 5.633-1.675 6.868-4.484z"/><path d="m341.097 224.206c-3.186-2.841-6.554-5.554-10.01-8.065-3.354-2.435-8.042-1.69-10.477 1.66-2.434 3.352-1.69 8.042 1.66 10.477 3.055 2.218 6.029 4.615 8.844 7.124 1.43 1.275 3.213 1.902 4.988 1.902 2.064 0 4.119-.847 5.601-2.509 2.757-3.092 2.485-7.832-.606-10.589z"/><path d="m353.775 263.146c1.897 3.265 3.648 6.658 5.203 10.086 1.256 2.767 3.981 4.403 6.835 4.403 1.036 0 2.089-.216 3.094-.672 3.771-1.711 5.442-6.156 3.731-9.929-1.762-3.884-3.745-7.729-5.895-11.426-2.082-3.582-6.673-4.799-10.253-2.716-3.58 2.084-4.796 6.673-2.715 10.254z"/><path d="m210.068 423.008c-3.44-1.537-6.845-3.269-10.117-5.146-3.594-2.062-8.177-.818-10.237 2.774s-.818 8.177 2.774 10.237c3.707 2.126 7.562 4.088 11.461 5.829.994.444 2.033.654 3.056.654 2.868 0 5.605-1.654 6.852-4.442 1.689-3.781-.007-8.217-3.789-9.906z"/><path d="m172.073 395.355c-2.521-2.797-4.937-5.759-7.177-8.804-2.454-3.337-7.149-4.054-10.485-1.597-3.337 2.454-4.052 7.148-1.597 10.485 2.534 3.444 5.266 6.796 8.12 9.96 1.48 1.643 3.522 2.478 5.571 2.478 1.79 0 3.587-.637 5.021-1.931 3.077-2.772 3.322-7.515.547-10.591z"/><path d="m162.579 243.352c-3.356-2.42-8.046-1.662-10.47 1.698-2.5 3.468-4.852 7.099-6.987 10.791-2.075 3.585-.851 8.173 2.735 10.247 1.183.685 2.474 1.01 3.749 1.01 2.589 0 5.108-1.342 6.498-3.745 1.887-3.26 3.964-6.467 6.173-9.531 2.422-3.36 1.662-8.048-1.698-10.47z"/><path d="m191.447 209.249c-3.683 2.159-7.299 4.53-10.749 7.048-3.346 2.441-4.079 7.134-1.638 10.479 1.469 2.013 3.751 3.08 6.064 3.08 1.534 0 3.081-.47 4.415-1.442 3.047-2.224 6.242-4.318 9.495-6.226 3.573-2.095 4.771-6.69 2.676-10.264s-6.689-4.77-10.263-2.675z"/><path d="m148.522 354.712c-1.169-3.586-2.166-7.269-2.965-10.947-.878-4.048-4.872-6.619-8.919-5.739-4.048.878-6.618 4.871-5.739 8.919.905 4.174 2.036 8.352 3.363 12.418 1.032 3.166 3.97 5.177 7.129 5.177.771 0 1.555-.12 2.326-.372 3.939-1.285 6.091-5.519 4.805-9.456z"/><path d="m293.951 441.647c.784 0 1.583-.124 2.368-.386 4.051-1.347 8.082-2.919 11.984-4.673 3.778-1.697 5.465-6.137 3.767-9.915-1.698-3.779-6.138-5.462-9.915-3.767-3.442 1.547-6.999 2.934-10.57 4.122-3.931 1.307-6.057 5.554-4.749 9.483 1.046 3.147 3.974 5.136 7.115 5.136z"/><path d="m241.966 192.518c-4.252.467-8.523 1.154-12.695 2.044-4.051.863-6.636 4.848-5.771 8.898.751 3.524 3.863 5.938 7.327 5.938.519 0 1.045-.055 1.571-.167 3.682-.784 7.452-1.392 11.205-1.804 4.117-.452 7.089-4.156 6.637-8.273-.453-4.116-4.152-7.082-8.274-6.636z"/><path d="m350.675 394.611c-3.084-2.771-7.826-2.512-10.591.569-2.521 2.807-5.213 5.521-8.001 8.063-3.061 2.792-3.277 7.536-.486 10.596 1.48 1.622 3.508 2.445 5.543 2.445 1.805 0 3.615-.647 5.053-1.959 3.154-2.878 6.2-5.948 9.052-9.124 2.767-3.081 2.512-7.823-.57-10.59z"/><path d="m337.032 370.987c2.344-3.695 4.449-7.581 6.259-11.547 1.72-3.769.059-8.218-3.71-9.937-3.772-1.723-8.219-.058-9.937 3.71-1.526 3.345-3.303 6.622-5.28 9.74-2.218 3.498-1.181 8.132 2.317 10.351 1.246.79 2.636 1.167 4.01 1.167 2.483.001 4.913-1.232 6.341-3.484z"/><path d="m317.037 266.737c2.421 2.783 4.671 5.755 6.687 8.833 1.439 2.198 3.836 3.393 6.281 3.393 1.409 0 2.835-.396 4.102-1.227 3.466-2.27 4.436-6.918 2.166-10.383-2.388-3.646-5.052-7.166-7.919-10.462-2.718-3.124-7.456-3.453-10.581-.735-3.126 2.719-3.455 7.456-.736 10.581z"/><path d="m342.405 299.62c-4.1.593-6.942 4.396-6.35 8.496.525 3.637.806 7.353.832 11.045.029 4.124 3.382 7.446 7.499 7.446h.055c4.142-.03 7.476-3.412 7.446-7.554-.031-4.373-.363-8.774-.986-13.084-.592-4.098-4.391-6.939-8.496-6.349z"/><path d="m278.688 242.107c3.531 1.033 7.026 2.324 10.389 3.837.999.449 2.044.662 3.073.662 2.86 0 5.594-1.646 6.844-4.425 1.699-3.777.015-8.218-3.763-9.917-3.99-1.795-8.139-3.327-12.33-4.554-3.978-1.167-8.141 1.116-9.305 5.092-1.163 3.976 1.116 8.142 5.092 9.305z"/><path d="m241.716 224.932c-4.321.647-8.637 1.604-12.826 2.84-3.973 1.173-6.242 5.345-5.069 9.317.964 3.264 3.951 5.378 7.19 5.378.703 0 1.418-.1 2.127-.309 3.527-1.042 7.162-1.847 10.803-2.393 4.096-.614 6.919-4.433 6.305-8.529-.615-4.095-4.434-6.915-8.53-6.304z"/><path d="m293.34 407.376c1.064 0 2.146-.229 3.175-.709 3.948-1.849 7.809-3.988 11.476-6.362 3.477-2.251 4.471-6.895 2.22-10.372s-6.896-4.472-10.372-2.22c-3.094 2.003-6.352 3.81-9.683 5.368-3.751 1.756-5.369 6.221-3.613 9.973 1.274 2.723 3.976 4.322 6.797 4.322z"/><path d="m212.308 387.806c-3.098-1.997-6.087-4.226-8.885-6.626-3.146-2.697-7.881-2.334-10.576.811-2.696 3.145-2.333 7.879.811 10.576 3.313 2.842 6.854 5.481 10.523 7.847 1.257.811 2.665 1.197 4.057 1.197 2.464 0 4.877-1.213 6.311-3.438 2.243-3.482 1.24-8.123-2.241-10.367z"/><path d="m178.741 363.32c3.765-1.728 5.416-6.18 3.688-9.944-1.536-3.349-2.853-6.832-3.911-10.354-1.192-3.965-5.369-6.211-9.343-5.022-3.967 1.193-6.215 5.376-5.022 9.343 1.258 4.181 2.819 8.315 4.644 12.289 1.263 2.752 3.979 4.374 6.821 4.374 1.046 0 2.111-.221 3.123-.686z"/><path d="m192.752 247.738c-3.278 2.884-6.388 6.017-9.242 9.311-2.712 3.131-2.372 7.868.758 10.58 1.419 1.229 3.167 1.831 4.908 1.831 2.1 0 4.188-.877 5.672-2.589 2.412-2.784 5.04-5.433 7.811-7.869 3.11-2.735 3.414-7.475.679-10.585-2.737-3.111-7.476-3.415-10.586-.679z"/><path d="m163.812 293.333c-1.204 4.193-2.127 8.516-2.744 12.848-.584 4.101 2.267 7.898 6.367 8.482.358.052.715.076 1.067.076 3.673 0 6.882-2.701 7.415-6.443.521-3.65 1.298-7.291 2.312-10.822 1.143-3.981-1.157-8.136-5.139-9.279-3.978-1.14-8.133 1.158-9.278 5.138z"/><path d="m242.909 414.76c4.312.591 8.717.891 13.091.891h.198c4.143 0 7.5-3.357 7.5-7.5s-3.357-7.5-7.5-7.5h-.198c-3.695 0-7.414-.253-11.054-.752-4.099-.562-7.887 2.309-8.449 6.412s2.309 7.886 6.412 8.449z"/><path d="m294.225 350.017c-2.177 2.744-4.652 5.26-7.357 7.476-3.205 2.624-3.675 7.35-1.05 10.554 1.482 1.811 3.636 2.748 5.806 2.748 1.672 0 3.354-.556 4.748-1.698 3.532-2.893 6.764-6.175 9.605-9.757 2.574-3.245 2.03-7.962-1.215-10.537-3.246-2.575-7.963-2.032-10.537 1.214z"/><path d="m241.134 257.736c-4.445 1.065-8.789 2.62-12.91 4.622-3.726 1.809-5.279 6.296-3.47 10.022 1.297 2.671 3.97 4.226 6.752 4.226 1.099 0 2.215-.243 3.271-.756 3.146-1.527 6.461-2.714 9.854-3.526 4.027-.966 6.511-5.014 5.546-9.042-.967-4.027-5.009-6.511-9.043-5.546z"/><path d="m212.263 341.333c-1.839-3.713-6.342-5.232-10.05-3.392-3.712 1.839-5.23 6.339-3.392 10.05 2.026 4.09 4.503 7.975 7.362 11.549 1.481 1.852 3.661 2.814 5.861 2.814 1.644 0 3.298-.537 4.681-1.644 3.234-2.588 3.759-7.308 1.171-10.542-2.189-2.735-4.084-5.708-5.633-8.835z"/><path d="m208.246 289.087c-3.748-1.763-8.216-.156-9.98 3.592-1.951 4.146-3.453 8.509-4.465 12.969-.916 4.04 1.616 8.058 5.655 8.974.559.126 1.116.188 1.666.188 3.425 0 6.518-2.362 7.308-5.843.771-3.404 1.918-6.734 3.408-9.898 1.764-3.75.155-8.217-3.592-9.982z"/><path d="m277.046 275.765c3.147 1.513 6.144 3.373 8.904 5.529 1.371 1.07 2.997 1.589 4.611 1.589 2.229 0 4.437-.99 5.916-2.884 2.55-3.265 1.97-7.978-1.295-10.527-3.607-2.817-7.524-5.249-11.641-7.227-3.729-1.795-8.215-.223-10.008 3.512-1.793 3.733-.221 8.214 3.513 10.008z"/><path d="m256.227 368.533h-.227c-3.512 0-7.017-.377-10.419-1.119-4.046-.886-8.043 1.681-8.927 5.728s1.681 8.043 5.728 8.927c4.45.972 9.032 1.465 13.618 1.465h.227c4.143 0 7.5-3.357 7.5-7.5s-3.358-7.501-7.5-7.501z"/><path d="m309.145 299.775c-4.035.934-6.551 4.961-5.618 8.997.784 3.393 1.203 6.892 1.244 10.399.047 4.112 3.396 7.413 7.497 7.413.029 0 .06 0 .089-.001 4.142-.048 7.461-3.444 7.412-7.586-.053-4.585-.601-9.162-1.627-13.604-.934-4.035-4.965-6.545-8.997-5.618z"/><path d="m469.626 256c0 4.29 3.477 7.767 7.767 7.767s7.767-3.477 7.767-7.767-3.477-7.767-7.767-7.767-7.767 3.477-7.767 7.767z"/><path d="m465.31 46.906c4.29 0 7.767-3.477 7.767-7.767s-3.477-7.767-7.767-7.767-7.767 3.478-7.767 7.767 3.478 7.767 7.767 7.767z"/><path d="m393.5 104.772c1.465 1.464 3.385 2.196 5.304 2.196s3.839-.732 5.304-2.196l6.269-6.269 6.269 6.269c1.465 1.464 3.385 2.196 5.304 2.196s3.839-.732 5.304-2.196c2.929-2.93 2.929-7.678 0-10.607l-6.269-6.269 6.269-6.269c2.929-2.93 2.929-7.678 0-10.607-2.93-2.928-7.678-2.928-10.607 0l-6.269 6.269-6.269-6.269c-2.93-2.928-7.678-2.928-10.607 0-2.929 2.93-2.929 7.678 0 10.607l6.269 6.269-6.269 6.269c-2.931 2.93-2.931 7.678-.002 10.607z"/><path d="m256 312.07c-4.247 0-7.69 3.443-7.69 7.69s3.443 7.69 7.69 7.69 7.69-3.443 7.69-7.69-3.443-7.69-7.69-7.69z"/><path d="m60.759 445.614-35.966 35.967c-2.929 2.93-2.929 7.678 0 10.607 1.465 1.464 3.385 2.196 5.304 2.196s3.839-.732 5.304-2.196l35.966-35.967c2.929-2.93 2.929-7.678 0-10.607-2.93-2.927-7.679-2.927-10.608 0z"/><path d="m50.717 410.685c3.877-1.456 5.841-5.78 4.385-9.658-1.456-3.877-5.778-5.84-9.658-4.385l-26.945 10.117c-3.877 1.456-5.841 5.78-4.385 9.658 1.13 3.009 3.987 4.865 7.022 4.865.876 0 1.767-.154 2.636-.48z"/><path d="m451.241 445.614c-2.929-2.927-7.677-2.929-10.607 0-2.929 2.93-2.929 7.678 0 10.607l35.966 35.967c1.465 1.464 3.384 2.196 5.304 2.196 1.919 0 3.839-.732 5.304-2.196 2.929-2.93 2.929-7.678 0-10.607z"/><path d="m493.502 406.759-26.945-10.117c-3.88-1.455-8.202.508-9.658 4.385-1.456 3.878.508 8.202 4.385 9.658l26.945 10.117c.869.326 1.76.48 2.636.48 3.035 0 5.893-1.856 7.022-4.865 1.456-3.878-.508-8.202-4.385-9.658z"/><path d="m60.759 165.344c1.465 1.464 3.385 2.196 5.304 2.196s3.839-.732 5.304-2.196c2.929-2.93 2.929-7.678 0-10.607l-35.967-35.966c-2.93-2.928-7.678-2.928-10.607 0-2.929 2.93-2.929 7.678 0 10.607z"/><path d="m18.498 204.2 26.945 10.117c.869.326 1.76.48 2.636.48 3.035 0 5.893-1.856 7.022-4.865 1.456-3.878-.508-8.202-4.385-9.658l-26.945-10.117c-3.879-1.457-8.202.508-9.658 4.385-1.456 3.878.508 8.202 4.385 9.658z"/><path d="m445.938 167.54c1.919 0 3.839-.732 5.304-2.196l35.966-35.966c2.929-2.93 2.929-7.678 0-10.607-2.93-2.928-7.678-2.928-10.607 0l-35.966 35.966c-2.929 2.93-2.929 7.678 0 10.607 1.464 1.464 3.384 2.196 5.303 2.196z"/><path d="m461.283 200.274c-3.877 1.456-5.841 5.78-4.385 9.658 1.13 3.009 3.987 4.865 7.022 4.865.876 0 1.767-.154 2.636-.48l26.945-10.117c3.877-1.456 5.841-5.78 4.385-9.658-1.456-3.877-5.776-5.842-9.658-4.385z"/></g></svg>