<svg id="Capa_1" enable-background="new 0 0 512 512" height="512" viewBox="0 0 512 512" width="512" xmlns="http://www.w3.org/2000/svg"><g><path d="m487.168 386.482c4.143 0 7.5-3.357 7.5-7.5v-322.502c0-7.742-5.484-14.304-13.034-15.602-13.614-2.351-24.453-13.561-26.357-27.26-1.078-7.763-7.823-13.618-15.689-13.618h-367.756c-7.447 0-13.965 5.256-15.499 12.505-2.681 12.736-13.09 22.798-25.906 25.038-7.588 1.331-13.095 7.896-13.095 15.607v405.7c0 7.712 5.507 14.276 13.1 15.608 12.812 2.239 23.221 12.301 25.902 25.045 1.533 7.241 8.051 12.497 15.498 12.497h367.756c7.866 0 14.611-5.855 15.688-13.618 1.904-13.7 12.743-24.91 26.352-27.26 7.556-1.299 13.04-7.86 13.04-15.603v-41.187c0-4.143-3.357-7.5-7.5-7.5s-7.5 3.357-7.5 7.5v41.187c0 .396-.261.765-.587.82-19.971 3.448-35.869 19.888-38.662 39.979-.054.388-.411.681-.831.681h-136.207c2.42-13.062 12.956-23.608 26.101-25.878 7.556-1.299 13.04-7.86 13.04-15.603v-399.038c0-7.742-5.484-14.304-13.04-15.603-13.149-2.272-23.682-12.817-26.101-25.877h136.207c.42 0 .777.293.831.683 2.793 20.09 18.691 36.529 38.668 39.979.32.055.581.423.581.819v322.502c0 4.142 3.357 7.499 7.5 7.499zm-198.895-370.799c2.793 20.09 18.691 36.529 38.662 39.978.002 0 .004.001.006.001.32.055.581.423.581.819v399.039c0 .396-.261.765-.587.82-19.971 3.448-35.869 19.888-38.662 39.979-.054.389-.411.682-.831.682h-215.61c-.396 0-.75-.259-.821-.595-3.932-18.681-19.201-33.438-37.992-36.722-.397-.07-.687-.421-.687-.834v-405.7c0-.413.289-.764.682-.833 18.796-3.284 34.065-18.042 37.996-36.714.072-.344.426-.603.822-.603h215.61c.42 0 .778.293.831.683z"/><path d="m57.53 65.104c-5.569 3.308-9.029 9.339-9.029 15.738v19.241c0 4.143 3.357 7.5 7.5 7.5s7.5-3.357 7.5-7.5v-19.241c0-1.151.632-2.214 1.679-2.835 12.257-7.253 22.332-17.635 29.136-30.026.621-1.133 1.707-1.809 2.905-1.809h165.41c1.197 0 2.283.676 2.905 1.81 6.803 12.39 16.877 22.771 29.125 30.02 1.058.628 1.689 1.689 1.689 2.841v280.269c-3.423.696-5.998 3.721-5.998 7.349s2.575 6.654 5.998 7.349v55.353c0 1.15-.632 2.213-1.68 2.835-12.258 7.254-22.332 17.636-29.135 30.025-.622 1.133-1.708 1.81-2.905 1.81h-165.409c-1.197 0-2.284-.677-2.906-1.81-6.803-12.391-16.878-22.772-29.123-30.018-1.059-.629-1.69-1.692-1.69-2.843v-55.352c3.425-.694 6.002-3.72 6.002-7.35s-2.577-6.656-6.002-7.35v-226.09c0-4.143-3.357-7.5-7.5-7.5s-7.5 3.357-7.5 7.5v296.143c0 6.398 3.459 12.429 9.04 15.745 9.945 5.884 18.115 14.299 23.625 24.334 3.247 5.916 9.399 9.591 16.055 9.591h165.41c6.654 0 12.807-3.675 16.054-9.591 5.51-10.034 13.679-18.449 23.637-24.341 5.569-3.31 9.029-9.34 9.029-15.738v-350.321c0-6.4-3.461-12.431-9.041-15.745-9.946-5.885-18.115-14.3-23.624-24.333-3.247-5.916-9.399-9.592-16.055-9.592h-165.411c-6.656 0-12.809 3.676-16.055 9.591-5.51 10.035-13.68 18.45-23.636 24.341z"/><path d="m262.495 112.167c-6.062-11.85-16.374-20.629-29.039-24.722-16.715-5.479-36.424-1.385-49.902 11.508-9.234-9.069-21.732-14.293-34.914-14.293-27.477 0-49.83 22.354-49.83 49.83 0 23.836 17.375 58.164 42.33 64.073v32.807c0 4.143 3.357 7.5 7.5 7.5s7.5-3.357 7.5-7.5v-32.826c8.508-2.042 16.689-7.503 23.751-15.837 3.226 4.491 6.996 8.085 11.214 10.684l-12.763 35.438c-1.403 3.896.618 8.193 4.516 9.598.839.302 1.697.445 2.541.445 3.072 0 5.955-1.903 7.057-4.961l12.897-35.808c10.291.902 22.812-3.316 34.382-12.475 11.892-9.389 21.783-22.971 25.814-35.446v.001c4.093-12.665 3.008-26.166-3.054-38.016zm-113.845 72.283c-.003 0-.006 0-.01 0-.003 0-.007 0-.01 0-7.982-.005-16.616-6.067-23.69-16.634-6.761-10.1-11.13-23.181-11.13-33.325 0-19.205 15.625-34.83 34.83-34.83 9.86 0 19.171 4.185 25.728 11.371-8.281 15.314-8.569 38.084-2.035 56.782-7.004 10.467-15.69 16.631-23.683 16.636zm102.625-38.881c0 .001 0 .001 0 0-3.118 9.652-11.297 20.755-20.836 28.286-9.985 7.883-20.07 10.994-27.666 8.54-7.597-2.455-13.952-10.88-17.437-23.114-3.328-11.689-3.464-25.479-.345-35.13 5.5-17.395 25.108-28.52 43.851-22.433 17.149 5.161 28.641 25.589 22.433 43.851z"/><circle cx="250.446" cy="231.37" r="7.767"/><path d="m129.444 268.076c-11.159 0-20.238 9.079-20.238 20.238v22.396c0 11.159 9.079 20.238 20.238 20.238h102.896c11.159 0 20.238-9.079 20.238-20.238v-22.396c0-11.159-9.079-20.238-20.238-20.238zm108.135 20.238v22.396c0 2.889-2.35 5.238-5.238 5.238h-102.897c-2.889 0-5.238-2.35-5.238-5.238v-22.396c0-2.889 2.35-5.238 5.238-5.238h102.896c2.889 0 5.239 2.35 5.239 5.238z"/><path d="m198.756 360.96c-4.143 0-7.5 3.357-7.5 7.5s3.357 7.5 7.5 7.5h11.892c4.143 0 7.5-3.357 7.5-7.5s-3.357-7.5-7.5-7.5z"/><path d="m92.159 368.46c0 4.143 3.357 7.5 7.5 7.5h11.892c4.143 0 7.5-3.357 7.5-7.5s-3.357-7.5-7.5-7.5h-11.892c-4.142 0-7.5 3.357-7.5 7.5z"/><path d="m149.207 360.96c-4.143 0-7.5 3.357-7.5 7.5s3.357 7.5 7.5 7.5h11.892c4.143 0 7.5-3.357 7.5-7.5s-3.357-7.5-7.5-7.5z"/><path d="m267.695 368.46c0-4.143-3.357-7.5-7.5-7.5h-11.892c-4.143 0-7.5 3.357-7.5 7.5s3.357 7.5 7.5 7.5h11.892c4.143 0 7.5-3.357 7.5-7.5z"/><path d="m109.206 413.78c0 4.143 3.357 7.5 7.5 7.5h128.373c4.143 0 7.5-3.357 7.5-7.5s-3.357-7.5-7.5-7.5h-128.373c-4.143 0-7.5 3.358-7.5 7.5z"/><path d="m448.762 251.359c0-4.143-3.357-7.5-7.5-7.5h-61.011c-4.143 0-7.5 3.357-7.5 7.5s3.357 7.5 7.5 7.5h61.011c4.142 0 7.5-3.357 7.5-7.5z"/><path d="m370.754 344.44c1.379 2.622 4.431 6.246 9.544 4.626l60.149-20.878c3.557-1.265 5.93-4.65 5.903-8.426s-2.445-7.128-6.069-8.359l-59.966-19.921c-3.927-1.307-8.176.821-9.481 4.753-1.307 3.931.822 8.176 4.753 9.481l42.849 14.234-43.056 14.945c-3.913 1.359-5.984 5.632-4.626 9.545z"/><path d="m372.547 206.038c-.096.074 1.467 5.942 7.377 6.024h60.987c4.143 0 7.5-3.357 7.5-7.5s-3.357-7.5-7.5-7.5h-19.041c-.018-3.451-.035-7.284-.035-9.488 0-13.815-11.088-25.055-24.717-25.055-13.63 0-24.718 11.239-24.718 25.055v16.988c.013.198-.02.49.147 1.476zm14.853-18.465c0-5.45 4.45-10.055 9.718-10.055 5.267 0 9.717 4.604 9.717 10.055 0 2.188.017 5.975.034 9.411-3.553.018-15.749.044-19.469.055z"/></g></svg>