<svg id="Capa_1" enable-background="new 0 0 512.009 512.009" height="512" viewBox="0 0 512.009 512.009" width="512" xmlns="http://www.w3.org/2000/svg"><g><path d="m495.192 479.627-37.728-149.811c-2.902-11.579-13.275-19.666-25.225-19.666h-24.618c-4.142 0-7.5 3.357-7.5 7.5s3.358 7.5 7.5 7.5h24.618c5.059 0 9.449 3.418 10.677 8.32l17.656 70.109h-91.562c-8.4 0-16.68-1.479-24.604-4.396l-12.348-4.556c9.7-13.16 19.497-27.692 28.898-42.946 42.72-69.312 68.225-136.045 68.225-178.51 0-43.913-16.463-85.794-46.357-117.927-2.822-3.033-7.568-3.203-10.6-.383-3.033 2.821-3.204 7.567-.383 10.6 27.303 29.348 42.339 67.601 42.339 107.71 0 46.867-34.091 118.877-65.995 170.64-26.621 43.248-68.552 98.98-92.177 102.387-25.76-4.134-71.183-68.686-91.945-102.393-32.016-51.832-66.227-123.877-66.227-170.634.002-87.215 70.957-158.171 158.174-158.171 32.234 0 63.243 9.633 89.675 27.858 3.41 2.353 8.081 1.491 10.432-1.917 2.352-3.41 1.493-8.081-1.917-10.433-28.947-19.958-62.901-30.508-98.19-30.508-95.488 0-173.172 77.685-173.172 173.172 0 33.818 16.314 83.156 44.688 136.979h-47.746c-11.95 0-22.323 8.087-25.223 19.657l-37.73 149.817c-1.976 7.83-.262 15.977 4.702 22.348 4.964 6.373 12.444 10.027 20.521 10.027h427.92c15.888.456 29.485-16.04 25.222-32.373zm-172.631-72.515 16.657 6.146c9.594 3.531 19.617 5.322 29.791 5.322h95.334l6.733 26.74h-106.616c-8.441 0-16.752-1.495-24.704-4.442l-34.805-12.897c4.81-5.233 11.655-13.29 17.61-20.869zm-253.457-73.649c1.227-4.895 5.617-8.312 10.675-8.312h55.896c4.914 8.772 10.126 17.632 15.627 26.538 1.525 2.469 3.063 4.911 4.607 7.34l-30.082 60.625-21.457-27.125c-6.608-8.354-16.509-13.146-27.165-13.146h-19.665zm-35.741 159.292c-2.102-2.698-2.827-6.146-1.99-9.464l22.39-88.908h23.443c6.041 0 11.654 2.716 15.4 7.452l25.849 32.677-31.007 62.488h-45.398c-3.419 0-6.586-1.547-8.687-4.245zm70.831 4.245 61.233-123.405c4.629 6.878 9.292 13.519 13.935 19.851l-23.531 47.431c-1.841 3.71-.325 8.211 3.386 10.052 1.071.531 2.208.783 3.327.783 2.76 0 5.415-1.529 6.725-4.169l20.218-40.752c15.624 21.402 50.42 56.845 66.523 54.408 10.046 0 22.386-7.052 37.49-21.465l41.043 15.209c9.625 3.568 19.691 5.378 29.917 5.378h30.002l-14.79 36.679h-234.94l8.826-17.791c1.841-3.71.325-8.211-3.386-10.052-3.711-1.84-8.211-.325-10.052 3.386l-12.132 24.457zm374.463-4.245c-2.102 2.698-5.268 4.245-8.687 4.245h-74.123l14.789-36.68h64.227l5.786 22.975c.835 3.314.109 6.762-1.992 9.46z"/><path d="m256.01 36.95c-75.113 0-136.222 61.108-136.222 136.222 0 30.046 9.629 58.554 27.846 82.44 56.126 73.649 164.24 69.59 216.753 0 18.217-23.888 27.845-52.395 27.845-82.44 0-75.113-61.109-136.222-136.222-136.222zm-3.336 257.397c-30.078-.807-60.67-13.113-82.633-35.78h171.938c-22.806 23.06-55.366 37.02-89.305 35.78zm-5.268-170.954 11.667 13.897c1.785 2.12 2.768 4.819 2.768 7.6v12.756c-1.898 1.27-3.458 3.055-4.48 5.242-2.129 4.559-1.446 9.787 1.784 13.646l29.354 35.067v31.965h-11.659v-27.17c0-4.143-3.358-7.5-7.5-7.5s-7.5 3.357-7.5 7.5v27.17h-49.75v-98.676c0-2.773.986-5.476 2.774-7.607l11.66-13.89c1.134-1.351 1.756-3.059 1.756-4.822v-26.911c0-1.759 1.431-3.19 3.19-3.19h11c1.753 0 3.18 1.432 3.18 3.19v26.91c0 1.764.621 3.471 1.756 4.823zm48.591 73.798-22.346-26.694h44.691zm58.619 46.375h-51.119v-31.965l29.354-35.067c3.229-3.858 3.913-9.088 1.784-13.646-2.129-4.559-6.578-7.391-11.609-7.391h-46.186v-10.607c0-6.311-2.235-12.439-6.286-17.252l-9.904-11.798v-24.18c0-10.03-8.156-18.19-18.18-18.19h-11c-10.03 0-18.19 8.16-18.19 18.19v24.18l-9.906 11.8c-4.052 4.83-6.284 10.956-6.284 17.25v98.677h-39.686c-14.797-20.634-22.616-44.887-22.616-70.395 0-66.842 54.38-121.222 121.222-121.222s121.222 54.38 121.222 121.222c0 25.506-7.818 49.759-22.616 70.394z"/><path d="m420.537 358.57c0-4.29-3.477-7.767-7.767-7.767s-7.767 3.477-7.767 7.767 3.477 7.767 7.767 7.767 7.767-3.477 7.767-7.767z"/></g></svg>