<svg id="Capa_1" enable-background="new 0 0 512 512" height="512" viewBox="0 0 512 512" width="512" xmlns="http://www.w3.org/2000/svg"><g><path d="m491.628 18.501h-330.482c-4.142 0-7.5 3.357-7.5 7.5s3.358 7.5 7.5 7.5h43.033c-3.542 15.69-17.943 27.471-35.128 27.471-19.839 0-35.98-15.688-35.98-34.971-.061-3.756-3.014-7.55-7.5-7.5h-105.199c-11.233 0-20.372 9.139-20.372 20.372v366.746.002c0 11.232 9.138 20.37 20.37 20.37h.002 57.44v18.754h-24.948c-9.671 0-17.539 7.868-17.539 17.539v13.676c0 9.671 7.868 17.539 17.539 17.539h406.271c9.671 0 17.539-7.868 17.539-17.539v-13.676c0-9.671-7.868-17.539-17.539-17.539h-24.948v-18.754h57.44.002c11.232 0 20.37-9.138 20.37-20.37v-.002-366.746c.001-11.233-9.138-20.372-20.371-20.372zm-57.42 15v39.154c0 10.322 2.361 20.698 6.828 30.006l10.115 21.071c1.29 2.688 3.972 4.256 6.767 4.256 1.088 0 2.194-.238 3.24-.74 3.734-1.793 5.308-6.273 3.516-10.008l-10.114-21.07c-3.501-7.294-5.351-15.425-5.351-23.515v-39.154h42.42c2.962 0 5.372 2.41 5.372 5.372v165.361l-60.516-50.845c-21.743-18.268-35.581-44.975-37.966-73.272l-3.93-46.616zm-56.111 0c-3.542 15.69-17.956 27.471-35.147 27.471-17.187 0-31.597-11.78-35.138-27.471zm-86.95 0c-3.542 15.69-17.956 27.471-35.147 27.471s-31.605-11.78-35.147-27.471zm-122.097 42.471c18.371 0 34.5-9.581 43.471-23.911 8.973 14.33 25.104 23.911 43.479 23.911s34.507-9.581 43.479-23.911c8.971 14.33 25.1 23.911 43.471 23.911 15.466 0 29.334-6.794 38.691-17.487l1.93 22.893c2.718 32.247 18.487 62.681 43.264 83.497l64.768 54.417-23.36 13.932c-19.132 11.409-33.096 30.375-38.31 52.032l-30.271 125.736h-287.323l-14.554-60.45h289.645c4.142 0 7.5-3.357 7.5-7.5s-3.358-7.5-7.5-7.5h-293.256l-12.107-50.286c-5.214-21.657-19.178-40.623-38.31-52.032l-23.36-13.932 64.767-54.417c24.777-20.816 40.546-51.25 43.264-83.497l1.93-22.893c9.358 10.692 23.226 17.487 38.692 17.487zm-154.05-37.099c0-2.962 2.41-5.372 5.372-5.372h42.42v39.154c0 8.089-1.851 16.22-5.351 23.514l-10.114 21.071c-1.792 3.734-.219 8.215 3.516 10.008 1.047.502 2.152.74 3.24.74 2.794 0 5.477-1.569 6.767-4.256l10.115-21.072c4.467-9.308 6.828-19.683 6.828-30.005v-39.154h39.619l-3.93 46.616c-2.385 28.298-16.223 55.005-37.966 73.272l-60.516 50.846zm0 366.746v-172.082l21.075 12.568c15.686 9.354 27.134 24.903 31.41 42.661l29.425 122.225h-76.538c-2.962 0-5.372-2.41-5.372-5.372zm162.081 39.126c-4.142 0-7.5 3.357-7.5 7.5s3.358 7.5 7.5 7.5h282.055c1.4 0 2.539 1.139 2.539 2.539v13.676c0 1.4-1.139 2.539-2.539 2.539h-406.272c-1.4 0-2.539-1.139-2.539-2.539v-13.676c0-1.4 1.139-2.539 2.539-2.539h88.497c4.142 0 7.5-3.357 7.5-7.5s-3.358-7.5-7.5-7.5h-48.549v-18.753h326.376v18.753zm238.009-33.754 29.426-122.225c4.275-17.758 15.724-33.307 31.41-42.661l21.074-12.568v172.082c0 2.962-2.41 5.372-5.372 5.372z"/><path d="m129.136 184.573 15.08 47.9c5.962 18.941 20.914 33.534 39.997 39.034l20.427 5.886c3.728 4.592 8.173 8.659 13.248 12.025l23.262 15.429c4.51 2.992 9.68 4.487 14.85 4.487s10.339-1.495 14.85-4.487l23.262-15.429c16.549-10.976 26.43-29.385 26.43-49.243v-50.22c0-15.424-12.548-27.973-27.972-27.973h-35.216l-5.089-16.172c-2.241-7.125-7.125-12.951-13.752-16.405-6.625-3.452-14.198-4.119-21.324-1.879l-69.762 21.961c-14.708 4.635-22.914 20.373-18.291 35.086zm176.406 5.383v50.22c0 14.817-7.372 28.554-19.721 36.743l-23.262 15.429c-3.984 2.643-9.133 2.643-13.117 0l-23.262-15.429c-12.349-8.189-19.721-21.926-19.721-36.743v-50.22c0-7.153 5.819-12.973 12.972-12.973h73.139c7.152.001 12.972 5.82 12.972 12.973zm-153.61-26.16 69.758-21.96c3.303-1.038 6.816-.729 9.891.873 3.073 1.601 5.336 4.301 6.375 7.604l3.672 11.671h-22.197c-15.424 0-27.972 12.549-27.972 27.973v50.22c0 6.448 1.048 12.742 3.022 18.68l-6.113-1.762c-14.238-4.104-25.395-14.991-29.843-29.124l-15.079-47.896c-2.145-6.827 1.663-14.129 8.486-16.279z"/><path d="m235.385 248.088c4.736 3.526 13.189 7.587 22.286 7.587 6.646 0 13.637-2.169 19.767-8.299 2.929-2.929 2.929-7.678 0-10.606-2.928-2.93-7.677-2.929-10.606-.001-8.939 8.941-21.894-.28-22.513-.73-3.321-2.452-8.001-1.758-10.47 1.555-2.474 3.321-1.786 8.021 1.536 10.494z"/><path d="m323.965 137.48c1.464 1.464 3.384 2.196 5.303 2.196s3.839-.732 5.303-2.196l6.386-6.386 6.386 6.386c1.464 1.464 3.384 2.196 5.303 2.196s3.839-.732 5.303-2.196c2.929-2.93 2.929-7.678 0-10.607l-6.385-6.385 6.385-6.385c2.929-2.93 2.929-7.678 0-10.607-2.929-2.928-7.678-2.928-10.606 0l-6.386 6.386-6.386-6.386c-2.929-2.928-7.678-2.928-10.606 0-2.929 2.93-2.929 7.678 0 10.607l6.385 6.385-6.385 6.385c-2.929 2.929-2.929 7.677 0 10.607z"/><circle cx="386.43" cy="195.497" r="7.767"/></g></svg>