<svg id="Capa_1" enable-background="new 0 0 512.023 512.023" height="512" viewBox="0 0 512.023 512.023" width="512" xmlns="http://www.w3.org/2000/svg"><g><path d="m450.259 349.971v-20.059c.033-8.154-7.442-15.93-16.468-15.426v-101.681c0-64.378-34.949-123.891-91.21-155.313-3.618-2.02-8.186-.728-10.205 2.891-2.02 3.616-.726 8.186 2.891 10.205 51.52 28.775 83.524 83.271 83.524 142.218v101.682h-26.041v-101.683c0-64.434-44.704-119.328-106.168-133.307l22.165-22.061c9.972-9.924 12.777-24.667 7.146-37.56-6.869-15.726-24.346-23.549-40.647-18.199l-18.887 6.198c-.226.071-.472.072-.696 0l-18.889-6.198c-16.303-5.353-33.779 2.474-40.646 18.199-3.67 8.404-3.735 17.586-.589 25.714-32.183 11.682-60.912 32.86-81.621 60.354-23.347 30.998-35.687 67.949-35.687 106.859v101.682c-7.836-.597-16.542 6.367-16.467 15.426v20.059c0 6.441 3.971 11.965 9.591 14.272v98.022c-5.62 2.306-9.591 7.831-9.591 14.272v20.06c0 8.505 6.92 15.425 15.426 15.425h58.125c8.506 0 15.426-6.92 15.426-15.425v-20.06c0-6.441-3.971-11.966-9.591-14.272v-44.065c0-4.143-3.358-7.5-7.5-7.5s-7.5 3.357-7.5 7.5v42.91h-39.794v-95.714h39.794v16.982c0 4.143 3.358 7.5 7.5 7.5s7.5-3.357 7.5-7.5v-18.136c5.62-2.306 9.591-7.831 9.591-14.272v-20.059c.033-8.154-7.443-15.93-16.469-15.426v-37.223l65.098-54.694c25.382-21.325 41.536-52.503 44.315-85.477l3.375-36.51c2.697 1.801 5.822 2.707 8.95 2.707 3.118 0 6.234-.899 8.926-2.689l3.333 36.788c2.538 29.116 15.334 56.636 36.028 77.488 1.466 1.478 3.395 2.217 5.323 2.217 1.91 0 3.82-.725 5.283-2.177 2.94-2.918 2.958-7.666.04-10.606-18.228-18.367-29.497-42.597-31.733-68.25l-3.875-42.764c9.57 1.849 18.712 4.806 27.299 8.725v24.315c0 18.267 7.114 35.441 20.031 48.36l17.882 17.882c1.465 1.464 3.385 2.196 5.304 2.196s3.839-.732 5.304-2.196c2.929-2.93 2.929-7.678 0-10.607l-17.882-17.881c-10.085-10.086-15.639-23.493-15.639-37.754v-16.145c33.966 21.746 56.115 59.814 56.115 102.611v44.867l-36.906-31.009c-3.17-2.666-7.902-2.254-10.566.918-2.665 3.171-2.254 7.902.918 10.566l46.555 39.117v37.222c-7.835-.598-16.542 6.366-16.467 15.426v20.059c0 6.441 3.971 11.965 9.59 14.271v98.022c-5.619 2.306-9.59 7.831-9.59 14.271v20.06c0 8.505 6.92 15.425 15.425 15.425h58.125c8.506 0 15.426-6.92 15.426-15.425v-20.06c0-6.441-3.971-11.966-9.591-14.272v-98.022c5.62-2.301 9.591-7.826 9.591-14.266zm-314.944 126.139c.235 0 .426.191.426.426v20.06c0 .234-.191.425-.426.425h-58.124c-.235 0-.426-.19-.426-.425v-20.06c0-.234.191-.426.426-.426zm.426-146.198v20.059c0 .234-.191.426-.426.426h-58.124c-.235 0-.426-.191-.426-.426v-20.059c0-.234.191-.426.426-.426h58.125c.234 0 .425.192.425.426zm-42.509-15.426v-101.681c0-35.628 11.297-69.459 32.669-97.835 19.743-26.213 47.439-46.155 78.37-56.542l21.169 21.07c-61.463 13.98-106.167 68.874-106.167 133.307v101.682h-26.041zm96.488-103.401-55.448 46.586v-44.867c0-42.796 22.149-80.864 56.114-102.61v16.143c0 14.261-5.554 27.669-15.638 37.753l-17.882 17.882c-2.929 2.93-2.929 7.678 0 10.606 1.464 1.465 3.384 2.197 5.303 2.197s3.839-.732 5.303-2.196l17.882-17.883c12.917-12.917 20.031-30.092 20.031-48.359v-24.314c8.582-3.917 17.718-6.873 27.283-8.723l-3.926 42.471c-2.45 29.087-16.674 56.537-39.022 75.314zm65.505-123.105-41.371-41.177c-5.555-5.528-7.117-13.741-3.98-20.923 4.015-7.897 12.283-13.017 22.224-9.951l18.889 6.198c3.286 1.078 6.761 1.078 10.048 0l18.888-6.198c8.916-2.924 18.47 1.354 22.225 9.951 3.137 7.182 1.574 15.395-3.981 20.924l-41.369 41.175c-.435.432-1.14.431-1.573.001zm121.058 241.932c0-.234.19-.426.425-.426h58.125c.234 0 .426.191.426.426v20.059c0 .234-.191.426-.426.426h-58.125c-.234 0-.425-.191-.425-.426zm9.59 131.198v-95.714h39.795v95.714zm49.386 35.486c0 .234-.191.425-.426.425h-58.125c-.234 0-.425-.19-.425-.425v-20.06c0-.234.19-.426.425-.426h58.125c.234 0 .426.191.426.426z"/><path d="m309.738 363.034h-107.455c-9.62 0-17.446 7.826-17.446 17.446v16.019c0 9.62 7.826 17.446 17.446 17.446h46.228v83.078h-11.997c-4.142 0-7.5 3.357-7.5 7.5s3.358 7.5 7.5 7.5h38.995c4.143 0 7.5-3.357 7.5-7.5s-3.357-7.5-7.5-7.5h-11.999v-83.078h46.229c9.619 0 17.445-7.826 17.445-17.446v-16.019c0-9.62-7.826-17.446-17.446-17.446zm2.446 33.465c0 1.349-1.097 2.446-2.445 2.446h-107.456c-1.349 0-2.446-1.098-2.446-2.446v-16.019c0-1.349 1.097-2.446 2.446-2.446h107.456c1.349 0 2.445 1.098 2.445 2.446z"/></g></svg>