<svg id="Capa_1" enable-background="new 0 0 512.002 512.002" height="512" viewBox="0 0 512.002 512.002" width="512" xmlns="http://www.w3.org/2000/svg"><g><path d="m504.5 286.513h-39.857c-4.143 0-7.5 3.357-7.5 7.5s3.357 7.5 7.5 7.5h32.357v182.061c0 5.172-4.208 9.38-9.38 9.38h-463.24c-5.172 0-9.38-4.208-9.38-9.38v-102.94l142.96.01c36.208 0 71.009-15.31 95.479-42.002 16.613-18.149 39.723-31.163 65.05-35.467v101.123c0 10.935-5.825 21.225-15.201 26.853l-21.061 12.639c-4.716 2.831-6.897 8.295-5.429 13.596s6.151 8.862 11.651 8.862h104.946c5.5 0 10.183-3.562 11.651-8.862s-.713-10.765-5.43-13.596l-21.059-12.639c-9.377-5.628-15.202-15.918-15.202-26.853v-102.785h65.334c4.143 0 7.5-3.357 7.5-7.5s-3.357-7.5-7.5-7.5h-65.334v-14.336l22.072-27.64c19.955-6.609 43.001-9.302 63.925-3.035l53.11 14.979c.681.191 1.366.283 2.04.283 3.273 0 6.282-2.16 7.215-5.466 1.124-3.987-1.196-8.13-5.183-9.255l-53.111-14.979c-17.089-4.817-35.043-5.503-52.395-2.064l28.154-35.256c40.361 3.714 76.94-29.526 76.545-70.503-.039-38.941-31.729-70.609-70.679-70.609-24.087 0-46.287 12.091-59.387 32.343-2.249 3.479-1.253 8.121 2.225 10.371 3.478 2.251 8.122 1.254 10.371-2.225 8.946-13.832 23.279-22.82 39.293-24.976v47.67h-169.377c-9.924 0-17.998 8.074-17.998 17.998v25.751c0 11.246 3.865 22.279 10.883 31.065l30.726 38.478c-17.274-3.191-35.057-2.304-52.036 2.679l-41.798 12.268c-7.864-18.262-26.032-31.083-47.144-31.083h-54.273l4.912-50.585c1.477-25.481 18.394-46.266 32.777-64.294-1.863 12.872-6.889 35.81-6.413 49.171l.407 38.359c.044 4.114 3.394 7.42 7.498 7.42h.082c4.142-.044 7.464-3.438 7.42-7.58l-.408-38.423c-.577-8.452 3.132-27.449 4.513-36.191l47.738 39.092c6.874 6.526 21.621 1.209 21.166-10.419l-.712-23.569c-.136-16.717-12.9-31.231-28.742-36.519l56.995-47.419c3.413-2.84 4.806-7.264 3.636-11.547-1.169-4.282-4.618-7.384-9.001-8.094l-23.422-3.793c-14.407-2.335-29.209 3.14-38.633 14.284l-26.626 31.492-3.606-12.121c-3.041-10.221-9.527-19.217-18.263-25.332l-9.541-6.679c-3.393-2.375-8.07-1.549-10.445 1.844-2.375 3.394-1.55 8.069 1.844 10.445l9.541 6.679c5.973 4.181 10.407 10.332 12.487 17.32l2.863 9.624-32.597-14.851c-14.259-6.495-30.694-5.398-43.964 2.939l-19.078 11.99c-7.375 4.347-6.587 17.357 3.146 20.012l75.286 19.155c-15.496 18.29-29.089 40.744-30.878 65.557l-5.053 52.033h-20.157c-28.289.001-51.305 23.016-51.305 51.306v31.003c0 4.143 3.357 7.5 7.5 7.5h166.257c10.121 0 18.354-8.233 18.354-18.354-.162-9.455.382-16.94-.326-25.864l42.188-12.382c19.964-6.287 43.372-4.446 63.443 2.503l21.073 26.389v16.919c-27.935 4.036-56.536 18.798-76.106 40.513-21.637 23.603-52.407 37.139-84.421 37.139l-150.46-.011c-.001 0-.001 0-.001 0-1.989 0-3.896.79-5.303 2.196-1.408 1.408-2.198 3.315-2.198 5.305v110.44c0 13.443 10.937 24.38 24.38 24.38h463.24c13.443 0 24.38-10.937 24.38-24.38v-189.56c0-4.143-3.357-7.5-7.5-7.5zm-313.979-174.108.576 19.092-50.959-41.729 2.175-13.19 34.342 15.209c8.154 3.611 13.596 11.705 13.866 20.618zm-12.719-83.855c6.044-7.149 15.54-10.663 24.779-9.163l15.152 2.454-56.267 46.814-12.786-5.663zm-133.003 31.427 11.222-7.052c8.983-5.646 20.11-6.389 29.764-1.99l39.013 17.774-7.463 9.722zm132.312 220.449c0 1.85-1.505 3.354-3.354 3.354h-158.757v-23.503c0-20.019 16.286-36.306 36.305-36.306h89.502c20.019 0 36.305 16.287 36.305 36.306v20.149zm261.525-105.561c2.555-6.08 3.916-12.651 3.916-19.3v-28.749h47.659c-3.52 26.002-25.045 46.353-51.575 48.049zm51.575-63.049h-47.66v-47.664c24.712 3.345 44.318 22.952 47.66 47.664zm-227.433 65.454c-4.903-6.139-7.604-13.848-7.604-21.705v-25.751c0-1.653 1.345-2.998 2.998-2.998h169.379v28.749c0 7.857-2.7 15.566-7.603 21.706l-69.953 87.599c-1.062 1.328-1.64 2.979-1.64 4.68v134.748c0 16.173 8.614 31.39 22.482 39.714l12.056 7.235h-83.943l12.057-7.235c13.867-8.324 22.481-23.541 22.481-39.714v-135.853c0-1.701-.578-3.351-1.64-4.68z"/><path d="m119.453 340.595c10.26 2.986 20.833 4.481 31.414 4.481 10.029 0 20.066-1.344 29.844-4.032l26.4-7.271c3.993-1.1 6.34-5.229 5.239-9.222-1.1-3.993-5.226-6.341-9.222-5.239l-26.397 7.27c-17.412 4.785-35.77 4.651-53.086-.39l-20.75-6.04c-3.973-1.162-8.139 1.128-9.297 5.105-1.157 3.977 1.128 8.139 5.105 9.297z"/><path d="m7.497 338.768c.051 0 .102 0 .152-.002 9.879-.198 19.688 1.104 29.165 3.863l20.75 6.04c.699.204 1.405.301 2.1.301 3.249 0 6.243-2.129 7.197-5.406 1.157-3.977-1.128-8.139-5.105-9.297l-20.749-6.04c-10.937-3.184-22.266-4.695-33.655-4.457-4.142.082-7.433 3.506-7.35 7.647.081 4.091 3.422 7.351 7.495 7.351z"/><path d="m341.363 247.123c2.28 0 4.438-1.038 5.86-2.82l61.003-76.39c2.789-3.492 4.325-7.878 4.325-12.348v-6.249c0-4.143-3.357-7.5-7.5-7.5h-92.24c-4.143 0-7.5 3.357-7.5 7.5s3.357 7.5 7.5 7.5h84.573c-.171.629-.469 1.223-.879 1.736l-55.143 69.052-55.144-69.053c-.674-.845-1.045-1.905-1.045-2.986v-6.249c0-4.143-3.357-7.5-7.5-7.5s-7.5 3.357-7.5 7.5v6.249c0 4.47 1.535 8.854 4.324 12.346l61.004 76.392c1.425 1.782 3.582 2.82 5.862 2.82z"/><path d="m128.721 454.908c0 4.29 3.478 7.767 7.767 7.767s7.767-3.477 7.767-7.767-3.477-7.767-7.767-7.767-7.767 3.478-7.767 7.767z"/><path d="m175.628 454.908c0 4.29 3.477 7.767 7.767 7.767s7.767-3.477 7.767-7.767-3.477-7.767-7.767-7.767c-4.289 0-7.767 3.478-7.767 7.767z"/><path d="m152.96 424.355c0 4.29 3.477 7.767 7.767 7.767s7.767-3.477 7.767-7.767-3.477-7.767-7.767-7.767-7.767 3.477-7.767 7.767z"/></g></svg>