<svg id="Capa_1" enable-background="new 0 0 512 512" height="512" viewBox="0 0 512 512" width="512" xmlns="http://www.w3.org/2000/svg"><g><path d="m497.795 147.718h-23.059c-.988-47.557-39.978-85.941-87.767-85.941h-269.219c-48.407 0-87.79 39.383-87.79 87.79v71.471h-15.755c-7.833-.001-14.205 6.371-14.205 14.204v23.01c0 7.494 5.836 13.635 13.2 14.154v175.899c0 7.835 6.375 14.21 14.21 14.21h8.326c.215 5.743 2.193 11.428 5.93 16.173v23.908c0 4.143 3.357 7.5 7.5 7.5s7.5-3.357 7.5-7.5v-14.141c2.264.575 4.585.868 6.907.868 7.138 0 14.276-2.718 19.71-8.151l13.41-13.409c1.541-1.541 2.672-3.335 3.412-5.248h191.046c4.143 0 7.5-3.357 7.5-7.5s-3.357-7.5-7.5-7.5h-65.49v-81.383c0-7.886-6.416-14.302-14.302-14.302h-77.185c-7.886 0-14.302 6.416-14.302 14.302v81.383h-22.052c-.35-.438-19.03-19.173-19.03-19.173-2.875-2.874-6.695-4.456-10.76-4.456s-7.886 1.583-10.758 4.456l-13.41 13.408c-1.761 1.761-3.232 3.704-4.422 5.765h-11.24v-175.058h290.31v182.559c0 4.143 3.357 7.5 7.5 7.5h75.847c.74 1.913 1.872 3.708 3.413 5.249l13.408 13.408c5.266 5.265 12.266 8.164 19.711 8.164 2.361 0 4.677-.294 6.907-.86v14.12c0 4.143 3.357 7.5 7.5 7.5s7.5-3.357 7.5-7.5v-23.908c3.737-4.746 5.714-10.43 5.93-16.173h17.145c7.835 0 14.21-6.375 14.21-14.21v-221.394c0-4.143-3.357-7.5-7.5-7.5s-7.5 3.357-7.5 7.5v220.604h-20.058c-1.19-2.061-2.661-4.003-4.422-5.765l-13.408-13.408c-5.934-5.932-15.586-5.932-21.52 0 0 0-18.68 18.735-19.031 19.173h-70.632v-248.767h164.285c7.833 0 14.205-6.372 14.205-14.205v-22.621c0-7.833-6.372-14.205-14.205-14.205zm-287.134 299.795h-30.394v-80.683h30.394zm-75.788-80.682h30.395v80.683h-30.395zm-66.994 72.118c.023-.023.063-.062.151-.062.089 0 .129.039.153.063l17.902 17.901c.084.084.084.223.001.306l-13.409 13.408h-.001c-5.02 5.021-13.188 5.021-18.207 0-5.021-5.02-5.021-13.188-.001-18.207zm365.9.001c.023-.024.063-.063.152-.063s.129.039.152.063l13.408 13.408c5.02 5.019 5.02 13.185.002 18.205-.001.002-.003.003-.005.005-2.431 2.43-5.663 3.768-9.101 3.768s-6.672-1.339-9.104-3.771l-13.408-13.408c-.024-.023-.063-.063-.063-.152s.039-.129.063-.152zm63.221-255.201h-180.975v-21.031h180.975zm-110.03-106.973c39.517 0 71.756 31.658 72.743 70.941h-61.086c-.613-29.501-15.849-55.473-38.742-70.941zm-342.01 72.79c0-40.137 32.653-72.79 72.79-72.79h27.485c-23.37 15.791-38.765 42.527-38.765 72.79 0 4.143 3.357 7.5 7.5 7.5s7.5-3.357 7.5-7.5c0-40.137 32.658-72.79 72.8-72.79h50.588v144.26h-123.388v-34.832c0-4.143-3.357-7.5-7.5-7.5s-7.5 3.357-7.5 7.5v34.832h-61.51zm-29.96 86.471h303.51v21.419l-303.51.001zm303.51-15.001h-58.652v-144.26h50.992c39.522 0 71.767 31.658 72.754 70.941h-68.374c-7.832 0-14.204 6.372-14.204 14.205v22.621c-.072 8.543 8.356 15.398 17.484 14.205z"/><path d="m162.023 319.899v-18.061c0-7.606-6.188-13.795-13.795-13.795h-90.315c-7.606 0-13.795 6.188-13.795 13.795v18.061c0 7.606 6.188 13.795 13.795 13.795h90.315c7.607 0 13.795-6.188 13.795-13.795zm-15-1.205h-87.905v-15.65h87.905z"/><path d="m287.621 288.044h-90.315c-7.606 0-13.795 6.188-13.795 13.795v18.061c0 7.606 6.188 13.795 13.795 13.795h90.315c7.606 0 13.795-6.188 13.795-13.795v-18.061c0-7.607-6.188-13.795-13.795-13.795zm-1.205 30.65h-87.905v-15.65h87.905z"/><path d="m57.913 351.831c-7.606 0-13.795 6.188-13.795 13.795v18.061c0 7.606 6.188 13.795 13.795 13.795h29.441c7.606 0 13.795-6.188 13.795-13.795v-18.061c0-7.606-6.188-13.795-13.795-13.795zm28.236 30.65h-27.031v-15.65h27.031z"/><path d="m287.621 351.831h-27.772c-8.267 0-14.991 6.725-14.991 14.991v15.668c0 8.267 6.725 14.991 14.991 14.991h27.772c7.606 0 13.795-6.188 13.795-13.795v-18.061c0-7.606-6.188-13.794-13.795-13.794zm-1.205 30.65-26.559.009-.009-15.659h26.567v15.65z"/><path d="m467.366 239.207c0-7.606-6.188-13.795-13.795-13.795h-90.314c-7.606 0-13.795 6.188-13.795 13.795v18.061c0 7.606 6.188 13.795 13.795 13.795h90.314c7.606 0 13.795-6.188 13.795-13.795zm-15 16.855h-87.904v-15.65h87.904z"/><path d="m399.492 302.994c0-7.606-6.188-13.795-13.795-13.795h-22.44c-7.606 0-13.795 6.188-13.795 13.795v18.061c0 7.606 6.188 13.795 13.795 13.795h22.44c7.606 0 13.795-6.188 13.795-13.795zm-15 16.855h-20.03v-15.65h20.03z"/><path d="m467.366 302.994c0-7.606-6.188-13.795-13.795-13.795h-21.969c-7.606 0-13.795 6.188-13.795 13.795v18.061c0 7.606 6.188 13.795 13.795 13.795h21.969c7.606 0 13.795-6.188 13.795-13.795zm-15 16.855h-19.559v-15.65h19.559z"/><path d="m385.697 351.831h-22.44c-7.606 0-13.795 6.188-13.795 13.795v18.061c0 7.606 6.188 13.795 13.795 13.795h22.44c7.606 0 13.795-6.188 13.795-13.795v-18.061c0-7.607-6.188-13.795-13.795-13.795zm-1.205 30.65h-20.03v-15.65h20.03z"/><path d="m453.571 351.831h-21.969c-7.606 0-13.795 6.188-13.795 13.795v18.061c0 7.606 6.188 13.795 13.795 13.795h21.969c7.606 0 13.795-6.188 13.795-13.795v-18.061c0-7.607-6.188-13.795-13.795-13.795zm-1.205 30.65h-19.559v-15.65h19.559z"/><path d="m185.707 38.085c1.465 1.464 3.385 2.196 5.304 2.196s3.839-.732 5.304-2.196l6.385-6.385 6.385 6.385c1.465 1.464 3.385 2.196 5.304 2.196s3.839-.732 5.304-2.196c2.929-2.93 2.929-7.678 0-10.607l-6.385-6.385 6.385-6.385c2.929-2.93 2.929-7.678 0-10.607-2.93-2.928-7.678-2.928-10.607 0l-6.385 6.385-6.385-6.385c-2.93-2.928-7.678-2.928-10.607 0-2.929 2.93-2.929 7.678 0 10.607l6.385 6.385-6.385 6.385c-2.931 2.929-2.931 7.677-.002 10.607z"/><circle cx="293.916" cy="96.776" r="7.767"/><path d="m202.7 162.985c4.29 0 7.767-3.478 7.767-7.767s-3.477-7.767-7.767-7.767-7.767 3.477-7.767 7.767 3.477 7.767 7.767 7.767z"/></g></svg>