<svg id="Capa_1" enable-background="new 0 0 512.002 512.002" height="512" viewBox="0 0 512.002 512.002" width="512" xmlns="http://www.w3.org/2000/svg"><g><path d="m388.003 104.104c1.464 1.464 3.384 2.196 5.303 2.196s3.839-.732 5.303-2.196l6.386-6.386 6.386 6.386c1.464 1.464 3.384 2.196 5.303 2.196s3.839-.732 5.303-2.196c2.929-2.93 2.929-7.678 0-10.607l-6.385-6.385 6.385-6.385c2.929-2.93 2.929-7.678 0-10.607-2.929-2.928-7.678-2.928-10.606 0l-6.386 6.386-6.386-6.386c-2.929-2.928-7.678-2.928-10.606 0-2.929 2.93-2.929 7.678 0 10.607l6.385 6.385-6.385 6.385c-2.929 2.929-2.929 7.677 0 10.607z"/><path d="m297.419 138.722c-4.29 0-7.767 3.478-7.767 7.767s3.477 7.767 7.767 7.767 7.767-3.477 7.767-7.767-3.478-7.767-7.767-7.767z"/><path d="m505.286 172.652c-4.337-4.338-10.099-6.728-16.224-6.728-12.655 0-22.95 10.296-22.95 22.95v32.71h-17.79v-32.71c.182-11.313-9.872-23.1-22.95-22.95-12.649 0-22.94 10.295-22.94 22.95v32.71h-46.801v-191.882c.155-9.942-9.549-20.437-21.476-18.701l-96.81 13.432c-22.553 3.129-45.425 3.127-67.978 0l-96.81-13.432c-9.828-1.517-21.554 6.647-21.476 18.701v191.882h-43.579c-3.821-.05-7.607 3.308-7.5 7.5v264.606c0 4.143 3.358 7.5 7.5 7.5s7.5-3.357 7.5-7.5v-70.559c0-13.91 21.95-28.804 54.625-28.804 13.958 0 27.315 2.919 37.613 8.22 15.349 7.899 33.676 7.899 49.024 0 5.841-3.007 12.89-5.32 20.385-6.691 4.074-.746 6.773-4.653 6.027-8.728-.746-4.076-4.655-6.775-8.728-6.028-9.054 1.657-17.313 4.386-24.549 8.11-11.05 5.688-24.244 5.688-35.294-.001-12.381-6.372-28.177-9.882-44.478-9.882-22.383 0-41.971 6.332-54.625 16.357v-16.191c0-9.339 9.072-16.035 14.48-19.195 10.604-6.196 24.86-9.608 40.145-9.608 13.958 0 27.315 2.919 37.613 8.221 15.349 7.898 33.676 7.899 49.024-.001 10.297-5.301 23.655-8.22 37.613-8.22s27.315 2.919 37.613 8.221c15.349 7.898 33.676 7.899 49.024-.001 10.297-5.301 23.655-8.22 37.613-8.22s27.315 2.919 37.613 8.221c15.349 7.898 33.676 7.899 49.024-.001 21.708-10.922 54.992-11.456 77.758 1.389 5.408 3.16 14.48 9.856 14.48 19.195v16.191c-12.654-10.025-32.242-16.357-54.625-16.357-16.301 0-32.096 3.51-44.478 9.882-11.05 5.689-24.244 5.689-35.294 0-12.381-6.372-28.177-9.882-44.478-9.882s-32.096 3.51-44.478 9.882c-11.05 5.689-24.244 5.688-35.295 0-7.719-3.972-16.949-6.903-26.693-8.479-4.086-.664-7.939 2.119-8.6 6.208s2.119 7.939 6.208 8.601c8.206 1.325 15.89 3.749 22.222 7.008 15.349 7.899 33.675 7.899 49.024 0 10.298-5.301 23.656-8.22 37.613-8.22s27.315 2.919 37.613 8.22c15.349 7.899 33.676 7.899 49.024 0 10.298-5.301 23.656-8.22 37.613-8.22 32.675 0 54.625 14.894 54.625 28.804v16.19c-12.654-10.025-32.242-16.357-54.625-16.357-16.299 0-32.095 3.51-44.478 9.883-11.05 5.689-24.244 5.689-35.294 0-12.382-6.373-28.178-9.883-44.478-9.883s-32.095 3.51-44.478 9.883c-11.05 5.689-24.244 5.689-35.294 0-12.382-6.373-28.178-9.883-44.478-9.883s-32.095 3.51-44.478 9.883c-11.05 5.689-24.244 5.689-35.294 0-12.382-6.373-28.178-9.883-44.478-9.883-10.631 0-20.816 1.427-30.275 4.24-3.97 1.181-6.231 5.356-5.05 9.327s5.357 6.23 9.327 5.05c7.956-2.366 16.946-3.617 25.999-3.617 13.956 0 27.314 2.919 37.613 8.22 15.349 7.901 33.676 7.9 49.024.001 10.299-5.302 23.657-8.221 37.613-8.221s27.314 2.919 37.613 8.22c15.349 7.901 33.675 7.9 49.024.001 10.299-5.302 23.657-8.221 37.613-8.221s27.314 2.919 37.613 8.22c15.349 7.901 33.676 7.9 49.024.001 10.299-5.302 23.657-8.221 37.613-8.221 32.675 0 54.625 14.894 54.625 28.804v26.922c0 4.143 3.358 7.5 7.5 7.5s7.5-3.357 7.5-7.5v-304.817c-.002-6.132-2.388-11.893-6.718-16.222zm-24.174 16.222c0-4.384 3.566-7.95 7.95-7.95 3.261.077 7.66 2.573 7.94 7.95v32.71h-15.89zm-113.774 76.989-6.286 31.196c-.259 1.286-1.209 1.725-1.753 1.872s-1.586.248-2.458-.73l-21.451-24.043c12.008-1.754 22.652-4.73 31.948-8.295zm-24.354-8.368c-47.626 10.829-91.614-6.211-112.415-20.911h159.584c-10.176 7.37-25.884 16.194-47.169 20.911zm-60.874 15.777-21.122 22.896c-.89.963-1.931.844-2.47.689-.541-.156-1.483-.611-1.721-1.901l-5.618-30.497c9.072 3.62 19.402 6.751 30.931 8.813zm-114.948-9.287-6.829 31.173c-.281 1.281-1.238 1.704-1.784 1.843-.544.14-1.588.222-2.446-.772l-19.924-23.102c11.431-2.154 21.8-5.409 30.983-9.142zm-44.152-4.043c-33.8 5.719-78.324-10.657-94.284-23.357h158.45c-14.057 9.064-36.231 20.137-64.166 23.357zm-44.355 13.299-21.15 22.927c-.89.963-1.931.844-2.47.689-.541-.157-1.484-.611-1.722-1.901l-5.716-31.026c9.116 3.82 19.497 7.148 31.058 9.311zm338.777 3.902h48.68v26.233h-48.68zm48.68-15h-48.68v-25.559h48.68zm-48.68-73.269c0-4.384 3.562-7.95 7.94-7.95 3.254.075 7.669 2.574 7.95 7.95v32.71h-15.89zm-351.35-159.172c.366-1.598.282-3.444 4.414-3.844l96.811 13.432c23.921 3.318 48.179 3.318 72.1 0l96.81-13.432c1.633.147 3.452-.196 4.414 3.844v66.889l-103.286 14.33c-22.554 3.13-45.425 3.13-67.978 0l-74.195-10.294c-4.111-.573-7.891 2.296-8.459 6.398-.569 4.103 2.295 7.89 6.398 8.459l74.195 10.294c22.835 3.186 47.975 3.382 72.101 0l101.224-14.044v109.85h-274.549zm296.523 315.872c-12.38-6.374-28.177-9.884-44.478-9.884s-32.098 3.51-44.478 9.883c-11.05 5.689-24.244 5.687-35.294.001-12.38-6.374-28.177-9.884-44.478-9.884s-32.098 3.51-44.478 9.883c-11.05 5.689-24.244 5.687-35.294.001-12.38-6.374-28.177-9.884-44.478-9.884-22.383 0-41.971 6.332-54.625 16.357v-106.684c4.276 3.192 9.568 6.772 15.825 10.326l7.735 41.984c1.205 6.539 5.92 11.747 12.307 13.594 1.619.469 3.263.696 4.888.696 4.785 0 9.409-1.977 12.774-5.625l28.423-30.811c6.039.384 13.485.493 21.411-.09l26.379 30.587c3.372 3.911 8.167 6.06 13.16 6.06 1.436 0 2.888-.178 4.327-.542 6.445-1.632 11.332-6.68 12.754-13.175l9.309-42.495c11.379-6.196 19.829-12.481 24.887-16.642 5.019 4.381 13.525 10.989 25.3 17.392l7.563 41.051c1.205 6.539 5.92 11.747 12.307 13.594 1.619.469 3.263.696 4.888.696 4.785 0 9.409-1.977 12.774-5.624l28.458-30.848c5.027.269 9.062.488 16.26.284l28.916 32.411c3.371 3.777 8.08 5.839 12.968 5.839 1.531 0 3.08-.202 4.61-.617 6.416-1.74 11.218-6.869 12.531-13.387l8.449-41.927c7.374-4.009 13.45-8.179 18.228-11.909v97.252c-1.554.672-3.069 1.383-4.533 2.136-11.051 5.69-24.245 5.687-35.295.001zm54.827-7.039v-20.159h48.68v19.839c-14.096-3.206-33.018-3.486-48.68.32zm63.68 4.358v-106.309h15.89v115.463c-4.487-3.555-9.841-6.646-15.89-9.154z"/><path d="m164.414 79.006 34.497 3.51c2.663.271 5.343.405 8.024.405 2.522 0 5.044-.119 7.547-.359l37.114-3.552c4.124-.395 7.146-4.057 6.751-8.181-.394-4.123-4.055-7.146-8.18-6.751l-37.115 3.552c-4.187.4-8.434.388-12.624-.038l-34.496-3.51c-4.13-.414-7.801 2.582-8.221 6.703-.418 4.12 2.583 7.801 6.703 8.221z"/></g></svg>