<svg id="Capa_1" enable-background="new 0 0 512.002 512.002" height="512" viewBox="0 0 512.002 512.002" width="512" xmlns="http://www.w3.org/2000/svg"><g><path d="m459.002 404.049c-2.115-6.142-6.804-10.864-12.609-13.149 4.016-4.722 7.241-10.127 9.729-15.158 6.262-12.66 9.169-25.155 9.29-25.681.927-4.037-1.594-8.062-5.631-8.988-4.037-.928-8.062 1.594-8.988 5.631-.026.112-2.626 11.288-8.116 22.388-3.195 6.459-7.821 13.799-13.586 17.483v-36.361c0-4.143-3.358-7.5-7.5-7.5s-7.5 3.357-7.5 7.5v39.167h-33.6v-94.917c7.415-.783 13.212-7.07 13.212-14.689v-20.142c0-8.146-6.627-14.773-14.774-14.773h-21.272v-73.766c7.384-.812 13.15-7.083 13.15-14.68v-17.446c0-8.146-6.627-14.774-14.774-14.774h-24.544c-3.388-20.302-21.068-35.828-42.316-35.828h-12.751l14.942-14.871c7.128-7.095 9.133-17.634 5.107-26.851-4.923-11.271-17.45-16.876-29.135-13.045l-11.335 3.72-11.336-3.72c-11.686-3.837-24.212 1.773-29.135 13.045-4.025 9.217-2.021 19.756 5.108 26.851l14.942 14.871h-12.751c-21.248 0-38.929 15.527-42.316 35.828h-24.544c-8.146 0-14.774 6.628-14.774 14.774v17.446c0 7.597 5.765 13.868 13.15 14.68v45.875c0 4.143 3.358 7.5 7.5 7.5s7.5-3.357 7.5-7.5v-35.505l15.736 15.327c6.339 6.175 14.595 9.277 22.861 9.277 7.901 0 15.812-2.836 22.064-8.534l26.053-23.749 26.931 23.991c12.94 11.525 32.681 10.962 44.94-1.284l14.727-14.71v63.08h-31.875v-13.845c0-4.143-3.358-7.5-7.5-7.5s-7.5 3.357-7.5 7.5v13.845h-79.562v-13.845c0-4.143-3.358-7.5-7.5-7.5s-7.5 3.357-7.5 7.5v13.845h-68.148c-8.146 0-14.774 6.627-14.774 14.773v20.142c0 7.619 5.798 13.906 13.212 14.689v94.917h-33.6v-266.77c.001-59.338 48.276-107.613 107.614-107.613h100.954c59.338 0 107.613 48.275 107.613 107.613v192.171c0 4.143 3.358 7.5 7.5 7.5s7.5-3.357 7.5-7.5v-192.171c0-67.609-55.004-122.613-122.613-122.613h-100.954c-67.609 0-122.613 55.004-122.613 122.613v263.947c-11.733-7.504-19.59-30.731-21.703-39.863-.93-4.034-4.957-6.554-8.987-5.625-4.037.927-6.559 4.951-5.631 8.988.121.525 3.028 13.021 9.29 25.681 2.488 5.031 5.713 10.436 9.729 15.158-5.805 2.286-10.495 7.008-12.61 13.152l-5.763 16.759c-3.129 8.575 3.425 20.452 14.575 20.409h60.3c4.142 0 7.5-3.357 7.5-7.5s-3.358-7.5-7.5-7.5h-60.3c.016-.04-.476-.014-.388-.541l5.759-16.747c.938-2.723 3.505-4.552 6.389-4.552h90.851c3.251 4.03 9.301 7.596 16.341 6.727l47.25-5.986c2.708 4.562 7.671 7.636 13.351 7.636h29.274c5.679 0 10.642-3.074 13.351-7.636l47.25 5.986c4.871.583 12.169-1.189 16.341-6.727h90.851c2.884 0 5.451 1.829 6.388 4.549l5.757 16.741c-.045-.006.148.462-.385.55h-292.235c-4.142 0-7.5 3.357-7.5 7.5s3.358 7.5 7.5 7.5h70.626v16.444c0 13.841-3.979 27.297-11.506 38.912l-.145.223c-61.986-.03-62.525.13-63.818.518-3.967 1.191-6.217 5.373-5.025 9.34.976 3.248 3.955 5.345 7.18 5.345.257 0 .515-.014.774-.04 7.011-.284 123.469-.134 200.674.038h.017c4.134 0 7.49-3.347 7.5-7.483.009-4.142-3.341-7.508-7.483-7.517 0 0-27.206-.061-61.621-.115l-.2-.309c-7.527-11.615-11.506-25.071-11.506-38.912v-16.443h166.771c9.134.178 18.23-9.874 14.572-20.418zm-229.726-351.403c2.167-3.205 4.951-6.424 10.712-4.797l11.975 3.93c2.642.865 5.433.866 8.078-.001l11.971-3.929c4.297-1.409 8.903.652 10.713 4.797 1.531 3.507.769 7.517-1.943 10.216l-24.782 24.663-24.78-24.664c-2.712-2.699-3.475-6.709-1.944-10.215zm-6.447 50.717h66.344c12.943 0 23.858 8.857 27.001 20.828h-120.346c3.143-11.97 14.058-20.828 27.001-20.828zm-66.634 35.828h199.612v16.995h-199.612zm63.706 47.254c-6.936 6.321-17.633 6.144-24.354-.403l-15.252-14.855h56.346zm97.429-.569c-6.646 6.64-17.348 6.945-24.362.696l-17.271-15.386h56.34zm-184.032 73.982h245.405v19.688h-245.405zm45.58 136.368c-1.41-.108-2.631-.045-3.305-2.912v-34.494c.615-1.482-.271-2.363 3.305-2.912l46.955 5.948v28.422zm92.291 1c0 .293-.238.531-.531.531h-29.274c-.292 0-.531-.238-.531-.531v-.339-41.642-.338c0-.293.238-.531.531-.531h29.274c.292 0 .531.238.531.531v.338 41.642zm64.266-1.711c-.372.329-1.162.855-2.311.711l-46.955-5.948v-28.422l46.956-5.948c1.41.111 2.631.044 3.304 2.912v34.494c0 1.153-.623 1.874-.994 2.201zm15.994-6.135v-30.561c.143-9.372-8.933-19.297-20.189-17.793l-47.251 5.985c-2.709-4.562-7.671-7.635-13.35-7.635h-29.274c-5.679 0-10.641 3.074-13.35 7.635l-47.25-5.985c-9.281-1.318-20.265 6.434-20.19 17.793v30.561h-14.062v-94.83h218.98v94.83zm-73.658 107.422h-43.541c6.14-12.096 9.351-25.461 9.351-39.138v-16.444h24.839v16.444c0 13.677 3.212 27.042 9.351 39.138z"/><path d="m173.212 306.629c-4.311 0-7.806 3.495-7.806 7.806s3.495 7.806 7.806 7.806 7.806-3.495 7.806-7.806-3.494-7.806-7.806-7.806z"/><path d="m214.607 306.629c-4.311 0-7.806 3.495-7.806 7.806s3.495 7.806 7.806 7.806 7.806-3.495 7.806-7.806-3.495-7.806-7.806-7.806z"/><path d="m256.001 306.629c-4.311 0-7.806 3.495-7.806 7.806s3.495 7.806 7.806 7.806 7.806-3.495 7.806-7.806-3.495-7.806-7.806-7.806z"/><path d="m297.395 306.629c-4.311 0-7.806 3.495-7.806 7.806s3.495 7.806 7.806 7.806 7.806-3.495 7.806-7.806-3.494-7.806-7.806-7.806z"/><path d="m338.79 306.629c-4.311 0-7.806 3.495-7.806 7.806s3.495 7.806 7.806 7.806 7.806-3.495 7.806-7.806-3.495-7.806-7.806-7.806z"/></g></svg>