<svg id="Capa_1" enable-background="new 0 0 512 512" height="512" viewBox="0 0 512 512" width="512" xmlns="http://www.w3.org/2000/svg"><g><path d="m419.706 395.695c-2.503-35.538-35.145-66.181-71.69-65.516h-88.02v-22.716c38.38-5.302 68.036-38.301 68.036-78.115v-17.287h15.552c18.487 0 33.528-15.041 33.528-33.528v-23.54c0-18.487-15.041-33.528-33.528-33.528h-15.552v-45.627c.685-31.238-25.173-58.283-57.007-58.106h-28.293l-24.321-14.32c-3.791-2.232-8.119-3.412-12.519-3.412h-77.728c-14.128 0-25.622 11.494-25.622 25.622v95.843h-15.552c-18.487 0-33.528 15.041-33.528 33.528v23.54c0 18.487 15.041 33.528 33.528 33.528h15.553v17.287c0 39.813 29.655 72.812 68.034 78.115v22.716h-88.01c-35.552-.707-69.135 29.079-71.689 65.517l-9.75 108.13c-.372 4.126 2.671 7.771 6.796 8.144.228.02.455.03.681.03 3.838 0 7.109-2.931 7.461-6.826l9.75-108.129c1.878-25.574 23.678-48.845 50.221-51.477l3.436 26.078c.497 3.774 3.72 6.521 7.426 6.521.326 0 .657-.021.989-.065 4.107-.541 6.997-4.309 6.456-8.415l-3.229-24.507h42.398v49.601c0 24.445 8.181 48.595 23.035 67.998l35.43 46.28c1.477 1.93 3.706 2.941 5.96 2.941 1.59 0 3.193-.504 4.554-1.545 3.289-2.518 3.914-7.226 1.396-10.514l-35.43-46.28c-12.251-16.004-19.244-35.737-19.882-55.868 1.957.134 3.119.298 6.729-.551l35.368-10.194c2.477 5.666 9.852 9.796 17.115 8.993v54.353c0 4.143 3.358 7.5 7.5 7.5s7.5-3.357 7.5-7.5v-54.353c6.2.817 14.173-2.554 17.116-8.994l35.372 10.195c1.61.197 1.803.878 6.725.552-.638 20.13-7.632 39.863-19.882 55.867l-35.43 46.28c-2.518 3.288-1.893 7.996 1.396 10.514 1.36 1.042 2.963 1.545 4.554 1.545 2.254 0 4.484-1.013 5.96-2.941l35.43-46.28c14.854-19.404 23.035-43.554 23.035-67.998v-49.601h42.397l-11.061 83.96c-1.237 9.385-1.864 18.948-1.864 28.425v46.737c0 4.143 3.357 7.5 7.5 7.5s7.5-3.357 7.5-7.5v-46.737c0-8.823.584-17.727 1.735-26.465l11.268-85.533c25.301 2.403 48.364 24.943 50.229 51.477l9.75 108.13c.352 3.896 3.623 6.826 7.461 6.826.226 0 .453-.01.683-.03 4.125-.372 7.168-4.018 6.796-8.144zm-302.164-246.974v-36.542l72.636 16.272c8.214 1.841 16.66 2.761 25.109 2.761 8.447 0 16.896-.921 25.109-2.761l72.636-16.272v16.787 19.756h-195.49zm106.27 15v44.302c0 4.675-3.803 8.479-8.479 8.479h-.094c-4.675 0-8.479-3.804-8.479-8.479v-44.302zm-106.27 0h72.113l-5.53 22.116c-1.653 6.609-7.564 11.225-14.377 11.225h-35.103c-9.431 0-17.104-7.673-17.104-17.104v-16.237zm195.49 0v16.237c0 9.431-7.673 17.104-17.104 17.104h-35.104c-6.812 0-12.724-4.615-14.377-11.225l-5.53-22.116zm30.552-27.256c10.217 0 18.528 8.312 18.528 18.528v23.54c0 10.217-8.312 18.528-18.528 18.528h-15.552v-60.597h15.552zm-226.042-110.843c0-5.857 4.765-10.622 10.622-10.622h77.728c1.725 0 3.422.462 4.907 1.337 27.885 17.585 38.532 15.983 55.868 62.837.95 3.281 3.946 5.414 7.199 5.414.691 0 1.395-.097 2.092-.299 3.979-1.152 6.269-5.312 5.115-9.291-5.537-19.107-14.552-33.071-22.182-42.267h12.133c22.947-.082 42.72 19.495 42.007 43.106v20.969l-75.916 17.007c-14.281 3.199-29.377 3.199-43.659 0l-75.915-17.007v-71.184zm-30.552 171.44c-10.216 0-18.528-8.312-18.528-18.528v-23.54c0-10.217 8.312-18.528 18.528-18.528h15.553v60.597h-15.553zm30.552 32.287v-22.242c4.956 3.133 10.819 4.955 17.104 4.955h35.103c8.613 0 16.507-3.67 22.013-9.695v5.656c0 12.946 10.532 23.479 23.479 23.479h.094c12.946 0 23.479-10.532 23.479-23.479v-5.656c5.506 6.025 13.4 9.695 22.013 9.695h35.104c6.284 0 12.148-1.822 17.104-4.955v22.242c0 35.223-28.656 63.879-63.879 63.879h-67.731c-35.227 0-63.883-28.657-63.883-63.879zm68.034 78.879h59.42v21.952h-5.809c-2.724-4.569-7.701-7.646-13.397-7.646h-21.007c-5.695 0-10.673 3.077-13.397 7.646h-5.811v-21.952zm-34.426 74.6c-.6-.293-1.3 1.128-2.638-1.984v-33.596c0-1.139.926-2.065 2.065-2.065h38.605v26.684zm75.241-2.389c0 .332-.27.602-.601.602h-21.007c-.332 0-.601-.27-.601-.602l.003-42.32c.008-.324.272-.586.598-.586h21.007c.332 0 .601.27.601.601zm54.85 2.055c-.308.231-.955.584-1.813.334l-38.036-10.963v-26.683h38.608c1.132 0 2.052.917 2.062 2.046v33.629c-.005.888-.515 1.407-.821 1.637z"/><path d="m215.287 275.203c14.408 0 27.751-7.192 35.695-19.238 2.28-3.458 1.326-8.109-2.132-10.39s-8.11-1.327-10.39 2.132c-5.16 7.824-13.822 12.496-23.173 12.496s-18.013-4.672-23.173-12.496c-2.28-3.457-6.932-4.413-10.39-2.132-3.458 2.28-4.413 6.932-2.132 10.39 7.944 12.046 21.287 19.238 35.695 19.238z"/><path d="m99.073 405.591c-.541-4.106-4.307-7.002-8.415-6.456-4.107.541-6.997 4.309-6.456 8.415l3.103 23.55c1.152 8.744 1.736 17.647 1.736 26.465v46.737c0 4.143 3.358 7.5 7.5 7.5s7.5-3.357 7.5-7.5v-46.737c0-9.47-.627-19.033-1.865-28.424z"/><path d="m505.14 335.851-42.145-42.145c-2.93-2.928-7.678-2.928-10.607 0-2.929 2.93-2.929 7.678 0 10.607l42.145 42.145c.891.891 1.382 2.074 1.382 3.334s-.491 2.443-1.382 3.334l-8.562 8.562c-1.123.806-3.354 2.549-6.668 0l-61.786-61.786 22.414-22.414c3.878-3.879 6.014-9.035 6.014-14.521s-2.136-10.642-6.015-14.521l-14.798-14.797c-7.831-7.832-18.243-12.146-29.318-12.146-21.4-.48-41.922 18.715-41.463 41.463 0 11.075 4.313 21.487 12.145 29.317l14.798 14.8c3.879 3.878 9.035 6.014 14.521 6.014 3.83 0 7.489-1.062 10.675-3.011l41.4 41.401v152.813c0 4.143 3.357 7.5 7.5 7.5s7.5-3.357 7.5-7.5v-137.811l5.807 5.807c6.966 6.847 19.515 8.183 27.883 0l8.562-8.562c7.684-7.688 7.684-20.196-.002-27.883zm-113.241-39.372-14.799-14.8c-4.998-4.998-7.751-11.643-7.751-18.711s2.753-13.713 7.751-18.711c.001 0 .001 0 .001-.001 4.998-4.998 11.643-7.751 18.711-7.751s13.713 2.753 18.712 7.752l14.798 14.798c2.158 2.157 2.158 5.669 0 7.826l-29.597 29.597c-2.158 2.159-5.669 2.158-7.826.001z"/></g></svg>