<svg id="Capa_1" enable-background="new 0 0 512 512" height="512" viewBox="0 0 512 512" width="512" xmlns="http://www.w3.org/2000/svg"><g><path d="m476.681 347.182h-27.194c-11.289 0-21.349 5.329-27.819 13.597-6.47-8.268-16.531-13.597-27.819-13.597h-6.098v-48.72c0-11.205 9.115-20.32 20.32-20.32h27.189c11.205 0 20.32 9.115 20.32 20.32v19.534c0 4.143 3.357 7.5 7.5 7.5s7.5-3.357 7.5-7.5v-19.534c0-19.476-15.845-35.32-35.32-35.32h-27.19c-11.289 0-21.35 5.33-27.82 13.598-6.47-8.269-16.531-13.598-27.82-13.598h-27.19c-11.289 0-21.35 5.33-27.82 13.598-6.47-8.269-16.531-13.598-27.82-13.598h-27.2c-11.289 0-21.35 5.33-27.82 13.598-6.47-8.269-16.531-13.598-27.82-13.598h-27.19c-11.289 0-21.35 5.33-27.82 13.598-6.47-8.269-16.531-13.598-27.82-13.598h-27.19c-19.476 0-35.32 15.845-35.32 35.32v48.72h-6.101c-19.475 0-35.319 15.844-35.319 35.319v115.024c0 7.394 6.015 13.408 13.408 13.408h76.925 82.834 82.833 82.833 82.834 76.925c7.394 0 13.408-6.015 13.408-13.408v-115.024c0-19.475-15.844-35.319-35.319-35.319zm-27.195 15h27.194c11.204 0 20.319 9.115 20.319 20.319v77.787h-67.833v-77.787c.001-11.204 9.116-20.319 20.32-20.319zm-35.319 20.319v77.787h-67.834v-77.787c0-11.204 9.115-20.319 20.319-20.319h27.195c11.205 0 20.32 9.115 20.32 20.319zm-241 49.508c-4.143 0-7.5 3.357-7.5 7.5v20.779h-67.834v-77.787c0-11.204 9.115-20.319 20.319-20.319h27.195c11.204 0 20.319 9.115 20.319 20.319v21.158c0 4.143 3.357 7.5 7.5 7.5s7.5-3.357 7.5-7.5v-21.158c0-11.204 9.115-20.319 20.319-20.319h27.194c11.204 0 20.319 9.115 20.319 20.319v77.787h-67.833v-20.779c.002-4.143-3.355-7.5-7.498-7.5zm90.333-49.508c0-11.204 9.115-20.319 20.319-20.319h27.194c11.204 0 20.319 9.115 20.319 20.319v77.787h-67.832zm61.74-104.359h27.189c11.205 0 20.32 9.115 20.32 20.32v48.72h-6.098c-11.289 0-21.349 5.329-27.819 13.597-6.47-8.268-16.531-13.597-27.819-13.597h-6.094v-48.72c.001-11.205 9.116-20.32 20.321-20.32zm-82.84 0h27.2c11.205 0 20.32 9.115 20.32 20.32v48.72h-6.101c-11.289 0-21.349 5.329-27.819 13.597-6.47-8.268-16.531-13.597-27.819-13.597h-6.101v-48.72c0-11.205 9.115-20.32 20.32-20.32zm-82.83 0h27.189c11.205 0 20.32 9.115 20.32 20.32v48.72h-6.094c-11.289 0-21.349 5.329-27.819 13.597-6.47-8.268-16.531-13.597-27.819-13.597h-6.098v-48.72c.001-11.205 9.116-20.32 20.321-20.32zm-103.15 20.32c0-11.205 9.115-20.32 20.32-20.32h27.189c11.205 0 20.32 9.115 20.32 20.32v48.72h-6.098c-11.289 0-21.349 5.329-27.819 13.597-6.47-8.268-16.531-13.597-27.819-13.597h-6.093zm-41.42 84.039c0-11.204 9.115-20.319 20.319-20.319h27.194c11.204 0 20.319 9.115 20.319 20.319v77.787h-67.832zm0 92.787h67.833v20.646h-67.833zm82.833 0h67.834v20.646h-67.834zm82.834 0h67.833v20.646h-67.833zm82.833 0h67.833v20.646h-67.833zm82.833 0h67.834v20.646h-67.834zm150.667 20.646h-67.833v-20.646h67.833z"/><path d="m498.592 1.082h-124.112c-2.726-.274-7.862 2.966-7.5 7.579.014 1.248.44 30.921 10.677 61.085 11.838 34.884 31.968 56.021 58.737 62.044-15.333 16.744-40.241 51.096-42.624 99.431h-106.053l5.973-89.123h10.138c4.143 0 7.5-3.357 7.5-7.5s-3.357-7.5-7.5-7.5h-40.328v-11.553c0-4.143-3.357-7.5-7.5-7.5s-7.5 3.357-7.5 7.5v11.553h-40.328c-4.143 0-7.5 3.357-7.5 7.5s3.357 7.5 7.5 7.5h10.138l5.973 89.123h-106.054c-2.382-48.335-27.291-82.688-42.624-99.431 26.769-6.024 46.899-27.16 58.737-62.044 7.304-21.524 9.612-42.789 10.341-53.664h194.422c4.143 0 7.5-3.357 7.5-7.5s-3.357-7.5-7.5-7.5h-325.697c-7.393 0-13.408 6.015-13.408 13.409v.001 218.318.004c0 7.394 6.015 13.408 13.408 13.408h485.184c7.394 0 13.408-6.015 13.408-13.408v-.004-218.319-.001c0-7.393-6.015-13.408-13.408-13.408zm-219.936 141.017-5.973 89.119h-33.367l-5.973-89.119zm181.84 89.119v-215.135h36.504v215.135zm-68.533-165.996c-6.574-19.24-8.827-38.768-9.593-49.14h63.126v102.07c-24.539-2.946-42.525-20.714-53.533-52.93zm-340.459-49.139v215.135h-36.504v-215.135zm68.533 49.139c-11.008 32.216-28.994 49.984-53.533 52.931v-102.071h63.126c-.766 10.373-3.019 29.9-9.593 49.14zm-53.533 166v-86.978c13.73 15.752 34.408 45.97 36.706 86.978zm378.992-86.978v86.978h-36.706c2.298-41.008 22.977-71.227 36.706-86.978z"/></g></svg>