<svg id="Capa_1" enable-background="new 0 0 512 512" height="512" viewBox="0 0 512 512" width="512" xmlns="http://www.w3.org/2000/svg"><g><circle cx="218.157" cy="392.698" r="7.855"/><circle cx="259.81" cy="392.698" r="7.855"/><circle cx="301.462" cy="392.698" r="7.855"/><circle cx="218.157" cy="355.598" r="7.855"/><circle cx="259.81" cy="355.598" r="7.855"/><circle cx="301.462" cy="355.598" r="7.855"/><circle cx="218.157" cy="318.499" r="7.855"/><circle cx="259.81" cy="318.499" r="7.855"/><circle cx="301.462" cy="318.499" r="7.855"/><path d="m394.47 440.506v-129.556c0-14.237-11.583-25.82-25.82-25.82h-22.366l.002-263.403c0-.026-.002-.051-.002-.077v-.011c0-11.93-9.705-21.635-21.635-21.635l-243.17-.004c-11.932 0-21.64 9.708-21.64 21.641v128.223c0 4.143 3.357 7.5 7.5 7.5s7.5-3.357 7.5-7.5v-128.223c0-3.662 2.979-6.641 6.641-6.641h9.597c-.677 2.093-1.046 4.323-1.046 6.639v.011c0 .026-.002.051-.002.077l.002 416.2h-15.192v-253.141c0-4.143-3.357-7.5-7.5-7.5s-7.5 3.357-7.5 7.5v100.344h-20.35c-14.237 0-25.82 11.583-25.82 25.82v129.556c-8.094 4.038-13.669 12.4-13.669 22.043v41.955c0 4.143 3.357 7.5 7.5 7.5h393.139c4.143 0 7.5-3.357 7.5-7.5v-41.955c0-9.643-5.576-18.005-13.669-22.043zm-1.331 56.498h-378.139v-34.455c.12-4.087 3.737-9.682 9.621-9.622h358.896c4.086-.129 9.446 3.783 9.621 9.622v34.455zm-212.131-481.996h76.156v11.035c0 2.983-2.432 5.41-5.42 5.41h-65.326c-2.983 0-5.41-2.427-5.41-5.41zm-75.978 6.68c.021-3.687 3.03-6.68 6.727-6.68h54.251v11.035c0 11.254 9.156 20.41 20.41 20.41h65.326c11.26 0 20.42-9.156 20.42-20.41v-11.035h52.393c3.697 0 6.706 2.993 6.727 6.68v38.202h-226.254zm0 53.202h226.253v333.809c0 4.143 3.357 7.5 7.5 7.5s7.5-3.357 7.5-7.5v-108.569h22.366c5.967 0 10.82 4.854 10.82 10.82v126.977h-274.439zm-65.541 225.24h20.35v137.797h-31.17v-126.977c0-5.967 4.853-10.82 10.82-10.82z"/><path d="m223.808 466.942h-39.477c-4.143 0-7.5 3.357-7.5 7.5s3.357 7.5 7.5 7.5h39.477c4.143 0 7.5-3.357 7.5-7.5s-3.358-7.5-7.5-7.5z"/><path d="m274.205 212.814c-.297-1.733.277-3.501 1.538-4.729l19.187-18.703c5.587-5.444 7.56-13.436 5.149-20.854-2.41-7.42-8.703-12.726-16.424-13.848l-26.517-3.853c-1.741-.253-3.246-1.347-4.024-2.924l-11.858-24.029c-3.453-6.995-10.443-11.34-18.244-11.34s-14.791 4.345-18.244 11.34l-11.858 24.029c-.778 1.577-2.283 2.671-4.023 2.924l-26.519 3.853c-7.72 1.122-14.013 6.428-16.423 13.848-2.41 7.419-.438 15.41 5.148 20.854l19.188 18.705c1.26 1.228 1.834 2.995 1.537 4.729l-4.529 26.41c-1.319 7.688 1.782 15.313 8.093 19.898 6.312 4.586 14.522 5.177 21.426 1.549l23.716-12.47c1.559-.818 3.419-.818 4.976 0l23.717 12.47c3.004 1.579 6.254 2.358 9.486 2.358 4.201 0 8.373-1.316 11.939-3.907 6.311-4.585 9.412-12.21 8.094-19.898zm-8.932-15.47c-4.797 4.675-6.984 11.406-5.852 18.007l4.529 26.41c.507 2.956-1.318 4.641-2.127 5.229-.808.588-2.977 1.803-5.628.406l-23.718-12.47c-2.964-1.558-6.215-2.337-9.467-2.337-3.251 0-6.504.779-9.468 2.337l-23.717 12.47c-2.651 1.394-4.82.182-5.628-.406-.809-.588-2.634-2.272-2.126-5.229l4.528-26.409c1.133-6.602-1.055-13.333-5.851-18.007l-19.188-18.705c-2.146-2.093-1.661-4.528-1.353-5.478.31-.95 1.348-3.207 4.314-3.639l26.519-3.853c6.628-.964 12.354-5.124 15.317-11.129l11.858-24.029c1.327-2.688 3.794-2.979 4.793-2.979s3.466.29 4.793 2.979l11.858 24.029c2.964 6.005 8.689 10.165 15.318 11.129l26.517 3.853c2.968.432 4.006 2.688 4.315 3.639.309.949.794 3.385-1.354 5.479z"/><path d="m223.012 169.765c-4.143 0-7.5 3.357-7.5 7.5v22.438c0 4.143 3.357 7.5 7.5 7.5s7.5-3.357 7.5-7.5v-22.438c0-4.143-3.358-7.5-7.5-7.5z"/><path d="m176.504 310.999h-41.653c-4.143 0-7.5 3.357-7.5 7.5s3.357 7.5 7.5 7.5h41.653c4.143 0 7.5-3.357 7.5-7.5s-3.358-7.5-7.5-7.5z"/><path d="m176.504 348.099h-41.653c-4.143 0-7.5 3.357-7.5 7.5s3.357 7.5 7.5 7.5h41.653c4.143 0 7.5-3.357 7.5-7.5s-3.358-7.5-7.5-7.5z"/><path d="m176.504 385.198h-41.653c-4.143 0-7.5 3.357-7.5 7.5s3.357 7.5 7.5 7.5h41.653c4.143 0 7.5-3.357 7.5-7.5s-3.358-7.5-7.5-7.5z"/></g></svg>